<?xml version="1.0" encoding="utf-8"?>
<!-- Generator: Adobe Illustrator 25.4.1, SVG Export Plug-In . SVG Version: 6.00 Build 0)  -->
<svg version="1.1" id="Layer_1" xmlns="http://www.w3.org/2000/svg" xmlns:xlink="http://www.w3.org/1999/xlink" x="0px" y="0px"
	 viewBox="0 0 348 104" style="enable-background:new 0 0 348 104;" xml:space="preserve">
<style type="text/css">
	
		.st0{clip-path:url(#SVGID_00000123434831929517794640000003575067645832120493_);fill:url(#SVGID_00000132080746333234736690000015538623786038229692_);}
	
		.st1{clip-path:url(#SVGID_00000079472518690996713090000010610210333591172236_);fill:url(#SVGID_00000134971673859930218090000009021733931316727963_);}
	
		.st2{clip-path:url(#SVGID_00000083054817364038732950000005410734904109453461_);fill:url(#SVGID_00000049915114324308611780000011346925038382445453_);}
	.st3{fill-rule:evenodd;clip-rule:evenodd;fill:#5A5B5D;}
	.st4{fill:#2D2D2D;}
	.st5{fill:#2D2D2D;stroke:#606161;stroke-miterlimit:10;}
</style>
<g>
	<g>
		<defs>
			<path id="SVGID_1_" d="M176.8,8.6h8.3c4.3,0,7.8,1.2,10.5,3.7c2.7,2.4,4.1,5.8,4.1,10.1c0,4.6-1.3,8.2-3.9,10.6
				c-2.6,2.4-6.1,3.6-10.5,3.6h-8.6V8.6z M161.9,7L161.9,7v0.6l6.4,3.2v42.7l-6.4,3.3v0.6h0H185v-0.6l-8.2-3.3V38.3h11
				c6.4,0,11.5-1.4,15.3-4.4c3.8-2.9,5.7-6.9,5.7-11.8c0-4.7-1.9-8.4-5.6-11c-3.7-2.7-8.9-4-15.4-4H161.9z"/>
		</defs>
		<clipPath id="SVGID_00000157994837685249576130000017414381011622698919_">
			<use xlink:href="#SVGID_1_"  style="overflow:visible;"/>
		</clipPath>
		
			<linearGradient id="SVGID_00000103966960971173794210000004730532358947677070_" gradientUnits="userSpaceOnUse" x1="2320.4917" y1="2760.0022" x2="2321.7791" y2="2760.0022" gradientTransform="matrix(-58.5815 142.7504 142.7504 58.5815 -257829.8438 -492997.1875)">
			<stop  offset="0" style="stop-color:#77512C"/>
			<stop  offset="5.376340e-03" style="stop-color:#77512C"/>
			<stop  offset="0.2565" style="stop-color:#8E663D"/>
			<stop  offset="0.4946" style="stop-color:#A87F51"/>
			<stop  offset="0.9655" style="stop-color:#BF9569"/>
			<stop  offset="1" style="stop-color:#C1976B"/>
		</linearGradient>
		
			<polygon style="clip-path:url(#SVGID_00000157994837685249576130000017414381011622698919_);fill:url(#SVGID_00000103966960971173794210000004730532358947677070_);" points="
			228,14.3 202,72.5 142.6,50.1 168.7,-8 		"/>
	</g>
	<g>
		<defs>
			<polygon id="SVGID_00000070832960836805483470000015914707767395682224_" points="250.1,7 250.1,7.6 257.6,12.5 231.4,35.5 
				231.4,10.9 237.9,7.6 237.9,7 216.6,7 216.6,7 216.6,7.6 223,10.9 223,53.6 216.6,56.8 216.6,57.4 216.6,57.4 238.5,57.4 
				238.5,56.8 231.4,53.6 231.4,37.8 238.3,31.8 255.7,53.7 251.2,56.8 251.2,57.4 271.8,57.4 271.8,56.8 265.4,53.2 244.1,26.6 
				259.3,13.3 269.4,7.8 269.4,7 			"/>
		</defs>
		<clipPath id="SVGID_00000088835261695138513090000011416728180080464557_">
			<use xlink:href="#SVGID_00000070832960836805483470000015914707767395682224_"  style="overflow:visible;"/>
		</clipPath>
		
			<linearGradient id="SVGID_00000052080350604257245100000011193642785219778460_" gradientUnits="userSpaceOnUse" x1="2320.468" y1="2760.0918" x2="2321.7581" y2="2760.0918" gradientTransform="matrix(-58.5815 142.7504 142.7504 58.5815 -257792.2812 -492981.7812)">
			<stop  offset="0" style="stop-color:#77512C"/>
			<stop  offset="5.376340e-03" style="stop-color:#77512C"/>
			<stop  offset="0.2565" style="stop-color:#8E663D"/>
			<stop  offset="0.4946" style="stop-color:#A87F51"/>
			<stop  offset="0.9655" style="stop-color:#BF9569"/>
			<stop  offset="1" style="stop-color:#C1976B"/>
		</linearGradient>
		
			<polygon style="clip-path:url(#SVGID_00000088835261695138513090000011416728180080464557_);fill:url(#SVGID_00000052080350604257245100000011193642785219778460_);" points="
			291.1,14.3 263.8,75.2 197.3,50.1 224.5,-10.7 		"/>
	</g>
	<g>
		<defs>
			<path id="SVGID_00000014626140718805887350000002987640477010478242_" d="M283,13.1c-5.6,4.7-8.4,11.1-8.4,19.1
				c0,7.9,2.8,14.3,8.3,19c5.6,4.8,12.4,7.2,20.5,7.2c5.8,0,12-0.9,18.5-2.7l1.4-13.3l-0.7-0.1L312,55.7c-2.3,0.7-4.8,1.1-7.6,1.1
				c-5.6,0-10.4-2.3-14.5-7s-6-10.9-6-18.5c0-7.2,2-12.9,5.9-17.2c4-4.3,8.5-6.4,13.7-6.4c3.3,0,6.3,0.5,9.1,1.6l5.5,13.1h0.6
				L323,9.6C316,7.2,309.2,6,302.8,6C295.2,6,288.6,8.4,283,13.1"/>
		</defs>
		<clipPath id="SVGID_00000056385887193945679140000003807599968748320186_">
			<use xlink:href="#SVGID_00000014626140718805887350000002987640477010478242_"  style="overflow:visible;"/>
		</clipPath>
		
			<linearGradient id="SVGID_00000147941850141093351230000008579964952378815387_" gradientUnits="userSpaceOnUse" x1="2320.447" y1="2760.1929" x2="2321.7344" y2="2760.1929" gradientTransform="matrix(-58.5815 142.7504 142.7504 58.5815 -257759.8438 -492968.4688)">
			<stop  offset="0" style="stop-color:#77512C"/>
			<stop  offset="5.376340e-03" style="stop-color:#77512C"/>
			<stop  offset="0.2565" style="stop-color:#8E663D"/>
			<stop  offset="0.4946" style="stop-color:#A87F51"/>
			<stop  offset="0.9655" style="stop-color:#BF9569"/>
			<stop  offset="1" style="stop-color:#C1976B"/>
		</linearGradient>
		
			<polygon style="clip-path:url(#SVGID_00000056385887193945679140000003807599968748320186_);fill:url(#SVGID_00000147941850141093351230000008579964952378815387_);" points="
			343.4,13.6 316.3,74.1 254.5,50.9 281.6,-9.6 		"/>
	</g>
</g>
<path class="st3" d="M155.3,44.7c-0.4-0.7-2.8-1.4-5.2-3.6c-0.5-0.5-1.2-0.6-1.9-0.6c0,0,1.1-1.7,0.1-3.5c0,0,0,0,0,0
	c0-0.3-0.2-0.5-0.3-0.8c-0.2-0.6-0.5-1.4-0.6-2c0,0,0,0,0,0c-0.1-1-0.5-1.3-0.5-2.4c0-1.1,0.4-1.4-0.2-2.2c-0.8-1.1-2-2.7-0.6-4
	c-0.8,3,1.5,5,3.3,3.2l-0.5,1.1c1.8,1,1.3,1.4,2.5,2.5c4.1-0.1,0.7-3.7,0.2-4.9c-0.2-0.6-0.1-1.2-0.4-1.7c-0.2-0.5-0.6-0.6-1-1.2
	c-0.9-1.2,0-1.9,0.4-3.2c-1.2,0.6-1.4,1.2-2,2.2c-0.1-0.9,0-1.2,0.3-1.9c-2.8-0.3-6.5,1.5-7.9,3.5c-1.2,1.6-1.7,4-2.2,6.2
	c-0.1,0.2-0.1,0.5-0.2,0.7c-0.2,0.7-0.4,1.6-0.7,2.4c-0.5,0.2-1.1,0-2.3-0.7c-2.7-1.6-2.7-6.3-2.4-9.1c0.3-2.4,0.4-2.8-0.9-4.7
	c-1.7-2.3-4.5-3.7-6.5-5.7c-0.6-0.6-1-0.9-1.5-1.5l-3.4-4.1c-0.1-0.1-0.2-0.3-0.4-0.4l-0.5-0.4c0.2,2.4,1.3,3.8,2.1,5.6
	c-1.4-0.6-3.6-3.3-4.6-4.6L116,7c0,1.4,0.2,2.3,0.8,3.5c0.5,1.1,1.1,1.8,1.6,2.8c-0.9-0.4-0.9-0.7-1.7-1.4c-0.5-0.5-1.1-0.8-1.6-1.2
	c0,2.8,2.2,4.4,3.9,6.2l-4.7-2.2c0.6,2.6,2.9,3.8,5.3,5l-4.2-1c0.3,2.3,3.4,3.7,6.1,4.2l-4.7-0.2c0.8,2,2.9,2.2,5.5,2.6L119,26
	c1,1.9,2.6,1.2,4.7,1.2c-0.4,0.1-0.7,0.4-1.2,0.6c-0.7,0.3-0.8,0.3-1.2,0.9c0.6,0.6,0.8,0.7,2.1,0.7c0,0.7-0.1,0.9,0.4,1.4l1.4,1.4
	c1.1,0.7,0.4,0.5,1.9,1c0.5,0.2,1.7,0.9,2.4,1.2c0.9,0.4,2.2,0.6,3,1l-2.7-0.4h0l-0.1,0c-0.3,0-1.6-0.2-2.7-0.6
	c-0.1,0-0.2-0.1-0.4-0.1c0,0,0,0,0,0l0,0c-1.4-0.4-3-0.3-4.3,0.2c-1.3,0.5-1.8,1.2-2.7,1.5c-1.3-0.2-2.2-1.4-4-1.5
	c-3-0.2-4.6,4.8-7.1,2.9c-1.1-0.9-1.1-2.6-0.2-3.7c0,0-0.4,0.1-0.8,0.5c-0.2,0.2-0.4,0.4-0.5,0.6c-0.3,0.5-0.6,1.3-0.8,2.4
	c0,0,0,0.1,0,0.2c0,0.1,0,0.2,0,0.2c0,0,0,0,0,0c0,0,0,0.1,0,0.1c0,0.3,0,0.7,0.2,1.1c0,0,0,0,0,0c0.7,1.9,3.1,3.3,5.4,2.4
	c1.4-0.5,1.8-1.6,2.7-2.5c1.1-1.2,1.9-1.4,3.9-1.6c0.2,0,0.5,0,0.9,0c-0.2,0.8-0.7,1.1-0.7,2.2c0,1.1,0.1,1.9,0,3
	c-0.1,1.2-0.4,3.1-1.2,3.9c0,0.1-0.1,0.1-0.1,0.1c-0.2,0.2-1,0.7-2.7,1.1c-0.7,0.6-1.6,3.4-2.3,4.6c-0.3,0.6-1.1,1.6-1.3,2.1
	c-0.2,0.5-0.2,1,0,1.5l0.1,0.1l0.2,0.2c0.2,0.2,0.4,0.5,0.4,1c0,0.1,0,0.1,0,0.2v0h0c0,0.1,0.1,0.2,0.1,0.5c0,0,0,0,0,0h3.4
	l-2.1-2.1c-0.2-3.3,1.9-5.1,3.7-6.3l0.1,0c1.9,0.5,5.3-2.4,6.3-3.6l0-0.1c0,0,0,0,0-0.1l0.3-0.4l0.1,0.1c1.3,1,1.3,1.6,2.1,3.2v0
	c0,0,0.2,0.9,0.2,1.6c0,0,0,0.1,0,0.1c0,0,0,0,0,0c0,0,0,0,0,0c0,0.2,0.1,0.4,0.2,0.5l4,2.4c0.5,0.3,0.7,0.6,1,0.9
	c0.8,0.7,1.3,1.1,1.6,1.3c0.3,0.2,0.5,0.4,0.8,0.6c0,0.3-0.1,0.5-0.1,1.2l-0.1,0.5h3.4c-0.8-0.5-0.7-1.7-1.2-2.4
	c-0.3-0.4-0.4-0.3-1-0.8c-1.6-1.6-1.7-1.5-3.2-2.4c-4.2-2.6-1.8-4.6-1.4-6.9c0.2-1.3,0.1-2.1-0.2-2.8c0.8,0.5,1.7,0.8,1.8,0.9
	c2.2,0.8,6.8,1.4,9.2,1c0,0,1-0.1,1.1,0.7c0,0,0,0,0,0c-0.2,1.1-0.2,2.2-0.5,3.1c-0.8,3.2-2.7,5.7-2.4,7.1c0,0.1,0.1,0.2,0.1,0.3
	c0.1,0.3,0.2,0.7,0.2,1.1c0,0.1-0.1,0.2-0.2,0.3c-0.2,0.4-0.1,0.5-0.3,0.8h3.6c-0.6-1.8-1.4-1.4-1.3-3.2c0.2-2.2,1-2.8,1.8-4.5
	l1.4-2.3c0.6-0.8,0.8-1.6,1.2-2.6c0.1-0.3,0.2-0.4,0.3-0.5l0,0c0,0,0.2-0.3,0.3-0.7c0,0,0.1,0,0.1,0c1,0.2,1.5,0.5,2.5,0.7
	c0.9,0.2,1.9,0.3,2.7,0.6c1.6,0.6,0.7,0.4,2.7,0.6c-1.6,0.8-0.8,1-1.9,1.9c-1.6,1.2-1.8,0.6-2.8,1.1c0.2-0.7,0.1-0.9-0.2-1.6
	c-0.6-0.1-0.9,0-1.6,0.2l-1,0.4c-0.3,0.1-0.2,0.1-0.3,0.2c2.3,2.5,3.4,2.7,5.7,1.8c1.8-0.7,1-1.1,2.1-2.2
	C154.5,46.7,156,46.1,155.3,44.7 M150.8,25.7c0,1.3-0.6,0.5-0.9,0.4c-0.9-0.4-0.7,0.1-1.6-0.4C149.6,25.9,149.7,25.4,150.8,25.7
	 M126.6,42c-0.8-0.9-1.8-1.2-2.1-2.7c0.3,0.3,0.3,0.4,0.5,0.7c1.2,1.4,3.2,2,3.2,5.2C127.5,44.1,128.3,44.2,126.6,42"/>
<path class="st4" d="M60.7,82.5c-1,0-1.8-0.2-2.5-0.5c-0.2-0.1-0.4-0.2-0.6-0.3c1.6-0.9,2.7-2.6,2.7-4.6c0-2.9-2.4-5.3-5.4-5.3
	c-3,0-5.4,2.3-5.4,5.3c0,1.2,0.3,2.5,0.9,3.5c0.6,1,1.4,1.9,2.5,2.7c1.1,0.8,2.3,1.3,3.6,1.7c1.4,0.4,2.8,0.6,4.3,0.6
	c2,0,3.9-0.3,5.6-0.9c1.7-0.6,3.3-1.5,4.6-2.8c1.3-1.3,2.3-2.8,3.1-4.7c0.7-1.9,1.1-4.2,1.1-6.7V38.6c0-1.7,0.1-3.1,0.2-4.2
	c0.2-1.1,0.5-1.9,1-2.5c0.5-0.6,1.1-1,2-1.2c0.9-0.2,2.1-0.3,3.5-0.3v-2H63.6h-17v2c1.9,0,3.4,0.2,4.3,0.5c0.9,0.4,1.5,0.9,1.6,1.7
	c0.1,0.8-0.1,1.8-0.7,3l-9.9,22.6l-9.8-22.6c-0.6-1.2-0.8-2.2-0.7-3c0.1-0.8,0.6-1.4,1.5-1.7c0.9-0.4,2.4-0.5,4.5-0.5v-2h-23v2
	c1.4,0,2.5,0.1,3.4,0.3c0.9,0.2,1.6,0.6,2.2,1.1c0.6,0.5,1.1,1.1,1.5,1.9c0.4,0.8,0.9,1.7,1.4,2.9l15.3,34.7h1.5l15.2-34.7
	c0.5-1.2,1.1-2.2,1.6-3c0.5-0.8,1.1-1.4,1.7-1.9c0.6-0.5,1.4-0.8,2.2-1c1.1-0.2,1.7-0.2,2.8,0c0.9,0.2,1.6,0.6,2,1.2
	c0.5,0.6,0.8,1.4,0.9,2.5c0.2,1.1,0.2,2.5,0.2,4.2v35.2c0,2-0.2,3.7-0.7,5c-0.5,1.3-1.1,2.2-2,2.8C63,82.2,61.9,82.5,60.7,82.5"/>
<line class="st5" x1="94" y1="5.6" x2="94" y2="98.8"/>
<line class="st5" x1="324.5" y1="84.2" x2="107.2" y2="84.2"/>
<g>
	<path d="M107.2,78.8V65.4h4.3c1.3,0,2.3,0.3,2.9,0.9c0.6,0.6,0.9,1.6,0.9,2.9c0,1.3-0.3,2.3-0.9,3c-0.6,0.6-1.6,1-2.8,1h-1.8v5.7
		H107.2z M109.6,71.3h1c0.8,0,1.3-0.2,1.6-0.5c0.3-0.3,0.5-0.8,0.5-1.6c0-0.7-0.1-1.3-0.4-1.5s-0.8-0.4-1.6-0.4h-1.1V71.3z"/>
	<path d="M115.2,78.8l3-13.4h3.4l3.1,13.4h-2.7l-0.7-3.4h-2.9l-0.6,3.4H115.2z M118.8,73.4h2.1l-1.1-5.6L118.8,73.4z"/>
	<path d="M125.9,78.8V65.4h2.5v11.2h4.5v2.3H125.9z"/>
	<path d="M134.7,78.8V65.4h2.5v11.2h4.5v2.3H134.7z"/>
	<path d="M142.4,78.8l3-13.4h3.4l3.1,13.4h-2.7l-0.7-3.4h-2.9l-0.6,3.4H142.4z M146,73.4h2.1l-1.1-5.6L146,73.4z"/>
	<path d="M153.2,78.8V65.4h4c0.8,0,1.5,0.1,2,0.2s0.9,0.4,1.2,0.7c0.5,0.5,0.8,1,1,1.7s0.3,1.8,0.3,3.3c0,1.9-0.1,3.3-0.2,4
		c-0.1,0.8-0.4,1.5-0.7,2c-0.3,0.6-0.7,0.9-1.3,1.2c-0.5,0.2-1.5,0.3-2.9,0.3H153.2z M155.6,76.8h1.1c0.6,0,1,0,1.2-0.1
		s0.4-0.2,0.5-0.4c0.2-0.3,0.4-0.8,0.5-1.4c0.1-0.6,0.1-1.6,0.1-2.9c0-1.3-0.1-2.3-0.2-2.8c-0.1-0.6-0.3-1-0.6-1.3
		c-0.1-0.2-0.3-0.3-0.6-0.3c-0.2-0.1-0.6-0.1-1.1-0.1h-1.1V76.8z"/>
	<path d="M163.7,78.8V65.4h2.5v13.4H163.7z"/>
	<path d="M168.2,72.1c0-1.4,0.1-2.6,0.2-3.4s0.3-1.5,0.6-1.9c0.4-0.6,0.9-1,1.4-1.3c0.5-0.3,1.3-0.4,2.1-0.4c0.9,0,1.6,0.1,2.1,0.4
		c0.5,0.3,1,0.7,1.4,1.3c0.3,0.4,0.5,1.1,0.6,1.9s0.2,2,0.2,3.4c0,1.4-0.1,2.5-0.2,3.4s-0.3,1.5-0.6,1.9c-0.4,0.6-0.9,1-1.4,1.3
		c-0.5,0.3-1.3,0.4-2.1,0.4c-0.9,0-1.6-0.1-2.1-0.4c-0.5-0.3-1-0.7-1.4-1.3c-0.3-0.4-0.5-1.1-0.6-1.9S168.2,73.5,168.2,72.1z
		 M170.7,72.1c0,2.2,0.1,3.6,0.4,4.2s0.7,0.9,1.4,0.9c0.7,0,1.2-0.3,1.4-0.8s0.4-2,0.4-4.2s-0.1-3.6-0.4-4.2s-0.7-0.9-1.4-0.9
		s-1.2,0.3-1.4,0.9S170.7,69.9,170.7,72.1z"/>
	<path d="M183.4,78.8V65.4h2.5V71l3.1-5.6h2.8l-3.4,5.6l3.6,7.9h-2.7l-2.4-5.6l-0.9,1.5v4.1H183.4z"/>
	<path d="M192.9,72.1c0-1.4,0.1-2.6,0.2-3.4s0.3-1.5,0.6-1.9c0.4-0.6,0.9-1,1.4-1.3c0.5-0.3,1.3-0.4,2.1-0.4s1.6,0.1,2.1,0.4
		c0.5,0.3,1,0.7,1.4,1.3c0.3,0.4,0.5,1.1,0.6,1.9s0.2,2,0.2,3.4c0,1.4-0.1,2.5-0.2,3.4s-0.3,1.5-0.6,1.9c-0.4,0.6-0.9,1-1.4,1.3
		c-0.5,0.3-1.3,0.4-2.1,0.4s-1.6-0.1-2.1-0.4c-0.5-0.3-1-0.7-1.4-1.3c-0.3-0.4-0.5-1.1-0.6-1.9S192.9,73.5,192.9,72.1z M195.5,72.1
		c0,2.2,0.1,3.6,0.4,4.2c0.3,0.6,0.7,0.9,1.4,0.9c0.7,0,1.2-0.3,1.4-0.8s0.4-2,0.4-4.2s-0.1-3.6-0.4-4.2c-0.3-0.6-0.7-0.9-1.4-0.9
		c-0.7,0-1.2,0.3-1.4,0.9C195.6,68.5,195.5,69.9,195.5,72.1z"/>
	<path d="M205.6,78.8V67.6h-2.9v-2.2h8.3v2.2h-2.9v11.2H205.6z"/>
	<path d="M212.3,78.8V65.4h2.5v5.3h3.4v-5.3h2.5v13.4h-2.5v-6.1h-3.4v6.1H212.3z"/>
	<path d="M223,78.8V65.4h4.5c1.4,0,2.3,0.3,2.9,0.8c0.6,0.5,0.9,1.4,0.9,2.7c0,0.9-0.2,1.6-0.5,2.1c-0.3,0.5-0.8,0.8-1.4,0.9
		c1.2,0.3,1.8,1.3,1.9,3c0,0.1,0,0.1,0,0.2l0.1,1.8c0,0.5,0.1,0.9,0.2,1.2s0.3,0.6,0.5,0.8h-3c-0.1-0.2-0.1-0.5-0.2-0.8
		s-0.1-0.7-0.1-1.3l0-1.4V75c0-0.8-0.2-1.3-0.5-1.6s-1-0.4-2-0.4h-0.9v5.9H223z M225.4,71h1.4c0.7,0,1.2-0.1,1.5-0.4
		c0.3-0.3,0.4-0.8,0.4-1.6c0-0.7-0.2-1.1-0.5-1.4s-0.9-0.4-1.7-0.4h-1.2V71z"/>
	<path d="M233.3,65.4h2.5v9.1c0,1,0.1,1.7,0.4,2.1c0.3,0.4,0.7,0.6,1.3,0.6c0.6,0,1.1-0.2,1.3-0.6c0.2-0.4,0.4-1.1,0.4-2.1v-9h2.5
		v9.3c0,0.9-0.1,1.6-0.2,2c-0.1,0.4-0.3,0.8-0.5,1.1c-0.4,0.5-0.8,0.8-1.4,1.1c-0.6,0.2-1.3,0.4-2.1,0.4c-1.5,0-2.6-0.3-3.3-1
		c-0.6-0.7-0.9-1.8-0.9-3.5V65.4z"/>
	<path d="M244,78.8V65.4h4c0.8,0,1.5,0.1,2,0.2c0.5,0.1,0.9,0.4,1.2,0.7c0.5,0.5,0.8,1,1,1.7s0.3,1.8,0.3,3.3c0,1.9-0.1,3.3-0.2,4
		c-0.1,0.8-0.4,1.5-0.7,2c-0.3,0.6-0.7,0.9-1.3,1.2c-0.5,0.2-1.5,0.3-2.9,0.3H244z M246.4,76.8h1.1c0.6,0,1,0,1.2-0.1
		s0.4-0.2,0.5-0.4c0.2-0.3,0.4-0.8,0.5-1.4c0.1-0.6,0.1-1.6,0.1-2.9c0-1.3-0.1-2.3-0.2-2.8c-0.1-0.6-0.3-1-0.6-1.3
		c-0.1-0.2-0.3-0.3-0.6-0.3c-0.2-0.1-0.6-0.1-1.1-0.1h-1.1V76.8z"/>
	<path d="M264.3,74h2.4c0,0.1,0,0.1,0,0.3s0,0.2,0,0.3c0,1.6-0.3,2.7-1,3.5c-0.7,0.8-1.7,1.1-3,1.1c-0.6,0-1.2-0.1-1.7-0.2
		c-0.5-0.2-0.9-0.4-1.2-0.8c-0.5-0.5-0.8-1.1-1-1.9c-0.2-0.8-0.3-2.2-0.3-4.3c0-1.4,0.1-2.5,0.2-3.3c0.1-0.8,0.3-1.4,0.5-1.8
		c0.4-0.6,0.8-1.1,1.3-1.3s1.2-0.4,2.1-0.4c1.4,0,2.4,0.4,3,1.1c0.6,0.7,0.9,1.9,0.9,3.4h-2.4v-0.3c0-0.7-0.1-1.3-0.4-1.6
		c-0.2-0.4-0.6-0.5-1.1-0.5c-0.6,0-1,0.2-1.2,0.7c-0.2,0.5-0.3,1.9-0.3,4.1c0,2.4,0.1,3.9,0.3,4.4c0.2,0.5,0.6,0.8,1.2,0.8
		c0.6,0,0.9-0.2,1.2-0.6c0.2-0.4,0.3-1.2,0.3-2.3V74z"/>
	<path d="M268.7,78.8V65.4h6.9v2.2h-4.4v3.1h4.1v2.1h-4.1v3.7h4.5v2.3H268.7z"/>
	<path d="M277.6,78.8V65.4h2.6l3.5,9.4l-0.1-9.4h2.4v13.4h-2.6l-3.5-9.4l0.1,9.4H277.6z"/>
	<path d="M290.2,78.8V67.6h-2.9v-2.2h8.3v2.2h-2.9v11.2H290.2z"/>
	<path d="M296.9,78.8V65.4h4.5c1.4,0,2.3,0.3,2.9,0.8c0.6,0.5,0.9,1.4,0.9,2.7c0,0.9-0.2,1.6-0.5,2.1c-0.3,0.5-0.8,0.8-1.4,0.9
		c1.2,0.3,1.8,1.3,1.9,3c0,0.1,0,0.1,0,0.2l0.1,1.8c0,0.5,0.1,0.9,0.2,1.2s0.3,0.6,0.5,0.8h-3c-0.1-0.2-0.1-0.5-0.2-0.8
		s-0.1-0.7-0.1-1.3l0-1.4V75c0-0.8-0.2-1.3-0.5-1.6s-1-0.4-2-0.4h-0.9v5.9H296.9z M299.3,71h1.4c0.7,0,1.2-0.1,1.5-0.4
		c0.3-0.3,0.4-0.8,0.4-1.6c0-0.7-0.2-1.1-0.5-1.4s-0.9-0.4-1.7-0.4h-1.2V71z"/>
	<path d="M306.2,78.8l3-13.4h3.4l3.1,13.4h-2.7l-0.7-3.4h-2.9l-0.6,3.4H306.2z M309.8,73.4h2.1l-1.1-5.6L309.8,73.4z"/>
	<path d="M317,78.8V65.4h2.5v11.2h4.5v2.3H317z"/>
</g>
<g>
	<path d="M107.8,98.8V89h1.8v9.7H107.8z M109.4,96.5l-0.1-2.1l5.1-5.3h2l-4.2,4.5l-1,1.1L109.4,96.5z M114.6,98.8l-3.7-4.4l1.2-1.3
		l4.7,5.8H114.6z"/>
	<path d="M130.2,98.9c-0.8,0-1.5-0.1-2.1-0.4c-0.6-0.3-1.2-0.6-1.7-1.1c-0.5-0.5-0.8-1-1.1-1.6c-0.3-0.6-0.4-1.3-0.4-2
		c0-0.7,0.1-1.4,0.4-2c0.3-0.6,0.6-1.1,1.1-1.6c0.5-0.5,1-0.8,1.7-1.1s1.3-0.4,2.1-0.4c0.8,0,1.4,0.1,2.1,0.4c0.6,0.2,1.2,0.6,1.7,1
		c0.5,0.5,0.8,1,1.1,1.6c0.3,0.6,0.4,1.3,0.4,2c0,0.7-0.1,1.4-0.4,2c-0.3,0.6-0.6,1.1-1.1,1.6c-0.5,0.5-1,0.8-1.7,1.1
		C131.7,98.8,131,98.9,130.2,98.9z M130.2,97.3c0.5,0,0.9-0.1,1.4-0.2s0.8-0.4,1.1-0.7c0.3-0.3,0.5-0.7,0.7-1.1
		c0.2-0.4,0.3-0.9,0.3-1.4c0-0.5-0.1-1-0.3-1.4s-0.4-0.8-0.7-1.1s-0.7-0.5-1.1-0.7s-0.9-0.3-1.4-0.3c-0.5,0-0.9,0.1-1.4,0.3
		s-0.8,0.4-1.1,0.7c-0.3,0.3-0.5,0.7-0.7,1.1s-0.3,0.9-0.3,1.4c0,0.5,0.1,0.9,0.3,1.4c0.2,0.4,0.4,0.8,0.7,1.1
		c0.3,0.3,0.7,0.5,1.1,0.7S129.7,97.3,130.2,97.3z"/>
	<path d="M147.3,98.8v-8.2h-3.2V89h8.3v1.5h-3.2v8.2H147.3z"/>
	<path d="M163.6,98.8h-1.8V89h1.8V98.8z M168.8,94.6h-5.3v-1.5h5.3V94.6z M168.6,89h1.8v9.7h-1.8V89z"/>
	<path d="M181.1,98.8V89h4c0.9,0,1.6,0.1,2.2,0.4c0.6,0.3,1.1,0.7,1.4,1.2s0.5,1.1,0.5,1.9c0,0.7-0.2,1.3-0.5,1.8
		c-0.3,0.5-0.8,0.9-1.4,1.2s-1.4,0.4-2.2,0.4h-3l0.8-0.8v3.6H181.1z M182.9,95.3l-0.8-0.9h2.9c0.8,0,1.4-0.2,1.8-0.5
		c0.4-0.3,0.6-0.8,0.6-1.4c0-0.6-0.2-1.1-0.6-1.4c-0.4-0.3-1-0.5-1.8-0.5h-2.9l0.8-0.9V95.3z M187.5,98.8l-2.5-3.5h1.9l2.5,3.5
		H187.5z"/>
	<path d="M203.6,98.9c-1.3,0-2.4-0.4-3.1-1.1c-0.8-0.8-1.1-1.8-1.1-3.3V89h1.8v5.4c0,1,0.2,1.7,0.6,2.2s1,0.7,1.8,0.7
		c0.8,0,1.4-0.2,1.8-0.7s0.6-1.2,0.6-2.2V89h1.8v5.5c0,1.4-0.4,2.5-1.1,3.3C205.9,98.6,204.9,98.9,203.6,98.9z"/>
	<path d="M218.4,98.8V89h4.3c1,0,2,0.2,2.8,0.6c0.8,0.4,1.4,1,1.9,1.7s0.7,1.6,0.7,2.6s-0.2,1.8-0.7,2.6c-0.4,0.7-1.1,1.3-1.9,1.7
		c-0.8,0.4-1.7,0.6-2.8,0.6H218.4z M220.3,97.3h2.4c0.7,0,1.4-0.1,1.9-0.4c0.5-0.3,1-0.7,1.3-1.2c0.3-0.5,0.5-1.1,0.5-1.8
		c0-0.7-0.2-1.3-0.5-1.8s-0.7-0.9-1.3-1.2c-0.5-0.3-1.2-0.4-1.9-0.4h-2.4V97.3z"/>
	<path d="M237.1,100.9l0.8-3.1l0.3,1c-0.3,0-0.6-0.1-0.8-0.3c-0.2-0.2-0.3-0.5-0.3-0.8c0-0.3,0.1-0.6,0.3-0.8
		c0.2-0.2,0.5-0.3,0.8-0.3c0.3,0,0.6,0.1,0.8,0.3c0.2,0.2,0.3,0.5,0.3,0.8c0,0.1,0,0.2,0,0.3s-0.1,0.2-0.1,0.4
		c0,0.1-0.1,0.3-0.2,0.5l-0.7,2H237.1z"/>
	<path d="M261.1,98.8V89h4c0.9,0,1.6,0.1,2.2,0.4c0.6,0.3,1.1,0.7,1.4,1.2s0.5,1.1,0.5,1.9c0,0.7-0.2,1.3-0.5,1.8
		c-0.3,0.5-0.8,0.9-1.4,1.2c-0.6,0.3-1.4,0.4-2.2,0.4h-3l0.8-0.8v3.6H261.1z M262.9,95.3l-0.8-0.9h2.9c0.8,0,1.4-0.2,1.8-0.5
		c0.4-0.3,0.6-0.8,0.6-1.4c0-0.6-0.2-1.1-0.6-1.4c-0.4-0.3-1-0.5-1.8-0.5h-2.9l0.8-0.9V95.3z"/>
	<path d="M283.4,98.9c-1.3,0-2.4-0.4-3.1-1.1c-0.8-0.8-1.1-1.8-1.1-3.3V89h1.8v5.4c0,1,0.2,1.7,0.6,2.2s1,0.7,1.8,0.7
		c0.8,0,1.4-0.2,1.8-0.7s0.6-1.2,0.6-2.2V89h1.8v5.5c0,1.4-0.4,2.5-1.1,3.3C285.7,98.6,284.7,98.9,283.4,98.9z"/>
	<path d="M298.2,98.8V89h1.5l6.1,7.5h-0.7V89h1.8v9.7h-1.5l-6.1-7.5h0.7v7.5H298.2z"/>
	<path d="M319.4,97.3h5.5v1.5h-7.3V89h7.1v1.5h-5.3V97.3z M319.3,93.1h4.8v1.5h-4.8V93.1z"/>
</g>
</svg>
