<?xml version="1.0" encoding="utf-8"?>
<!-- Generator: Adobe Illustrator 16.0.0, SVG Export Plug-In . SVG Version: 6.00 Build 0)  -->
<!DOCTYPE svg PUBLIC "-//W3C//DTD SVG 1.0//EN" "http://www.w3.org/TR/2001/REC-SVG-20010904/DTD/svg10.dtd">
<svg version="1.0" id="Layer_1" xmlns="http://www.w3.org/2000/svg" xmlns:xlink="http://www.w3.org/1999/xlink" x="0px" y="0px"
	 width="279px" height="97px" viewBox="0 0 279 97" enable-background="new 0 0 279 97" xml:space="preserve">
<g>
	<path fill="#231F20" d="M126.572,77.111c1.028,0,1.855,0.297,2.48,0.895c0.627,0.598,0.94,1.379,0.94,2.342
		c0,0.967-0.31,1.742-0.926,2.326c-0.618,0.584-1.45,0.877-2.495,0.877h-2.789v-6.439H126.572z M132.811,83.551v-6.439h5.121v0.738
		h-4.313v1.891h2.609v0.74h-2.609v2.328h4.578v0.742H132.811z M143.391,83.551h-0.509l-3.137-6.439h0.878l2.515,5.16l2.511-5.16h0.9
		L143.391,83.551z M148.84,83.551v-6.439h5.121v0.738h-4.314v1.891h2.608v0.74h-2.608v2.328h4.58v0.742H148.84z M156.837,83.551
		v-6.439h0.809v5.697h4.254v0.742H156.837z M166.946,83.717c-0.976,0-1.779-0.318-2.416-0.953c-0.635-0.637-0.954-1.439-0.954-2.416
		c0-0.982,0.32-1.791,0.956-2.424c0.637-0.637,1.44-0.955,2.414-0.955c0.973,0,1.782,0.318,2.424,0.955
		c0.64,0.637,0.962,1.447,0.962,2.424s-0.32,1.779-0.96,2.416C168.735,83.398,167.926,83.717,166.946,83.717 M166.946,82.965
		c0.73,0,1.339-0.248,1.815-0.742c0.482-0.492,0.724-1.119,0.724-1.875c0-0.766-0.241-1.393-0.72-1.885
		c-0.477-0.494-1.084-0.74-1.819-0.74c-0.733,0-1.339,0.246-1.819,0.744c-0.48,0.492-0.72,1.119-0.72,1.881
		c0,0.756,0.239,1.383,0.72,1.875C165.607,82.717,166.213,82.965,166.946,82.965 M173.12,83.551v-6.443h3.733
		c0.633,0,1.13,0.156,1.497,0.469c0.362,0.311,0.545,0.736,0.545,1.279c0,0.559-0.176,1.01-0.528,1.355
		c-0.352,0.346-0.821,0.52-1.407,0.52h-3.031v2.82H173.12z M173.929,79.977h2.873c0.409,0,0.718-0.088,0.93-0.266
		c0.211-0.18,0.316-0.443,0.316-0.787c0-0.338-0.105-0.604-0.316-0.791c-0.212-0.189-0.508-0.283-0.889-0.283h-2.914V79.977z
		 M181.635,83.551v-6.439h5.121v0.738h-4.313v1.891h2.607v0.74h-2.607v2.328h4.578v0.742H181.635z M189.595,83.551v-6.443h3.736
		c0.638,0,1.138,0.162,1.499,0.479c0.363,0.316,0.543,0.756,0.543,1.314c0,0.465-0.143,0.865-0.423,1.199
		c-0.284,0.33-0.658,0.537-1.124,0.621l1.628,2.83h-0.896l-1.629-2.82h-2.524v2.82H189.595z M190.404,79.977h2.873
		c0.411,0,0.721-0.088,0.93-0.266c0.21-0.18,0.315-0.443,0.315-0.787c0-0.338-0.105-0.604-0.315-0.791
		c-0.209-0.189-0.506-0.283-0.888-0.283h-2.915V79.977z M197.656,82.582l0.474-0.695c0.458,0.355,0.937,0.623,1.436,0.813
		c0.499,0.186,0.99,0.279,1.478,0.279c0.601,0,1.091-0.129,1.467-0.379c0.378-0.254,0.563-0.58,0.563-0.977
		c0-0.314-0.134-0.572-0.407-0.779c-0.266-0.205-0.64-0.324-1.115-0.365c-0.115-0.01-0.279-0.021-0.495-0.033
		c-1.07-0.074-1.8-0.199-2.189-0.373c-0.302-0.145-0.533-0.328-0.69-0.559c-0.156-0.225-0.234-0.48-0.234-0.764
		c0-0.52,0.232-0.943,0.702-1.279c0.466-0.332,1.076-0.502,1.821-0.502c0.541,0,1.079,0.09,1.608,0.266
		c0.528,0.178,1.032,0.439,1.505,0.785l-0.471,0.662c-0.4-0.318-0.822-0.559-1.265-0.721c-0.444-0.158-0.896-0.238-1.366-0.238
		c-0.491,0-0.896,0.094-1.216,0.279c-0.315,0.191-0.478,0.428-0.478,0.711c0,0.113,0.027,0.215,0.078,0.313
		c0.051,0.092,0.127,0.176,0.234,0.26c0.271,0.197,0.847,0.324,1.736,0.381c0.405,0.021,0.724,0.047,0.95,0.072
		c0.659,0.076,1.183,0.287,1.565,0.631c0.388,0.346,0.579,0.773,0.579,1.279c0,0.602-0.262,1.098-0.793,1.486
		c-0.527,0.389-1.222,0.582-2.078,0.582c-0.647,0-1.251-0.094-1.811-0.279C198.692,83.252,198.164,82.965,197.656,82.582
		 M131.859,31.047l-5.718-15.282c-0.204-0.559-0.395-0.948-0.57-1.172c-0.175-0.222-0.438-0.389-0.788-0.488l-1.166-0.355
		l-0.027-0.547c0.847,0.037,1.834,0.05,2.974,0.05c1.153,0,2.347-0.014,3.576-0.05l0.051,0.547l-1.205,0.342
		c-0.169,0.043-0.293,0.105-0.371,0.183c-0.075,0.083-0.117,0.196-0.117,0.35c0,0.169,0.046,0.395,0.136,0.678
		c0.09,0.28,0.217,0.646,0.379,1.093l4.139,11.409l4.498-11.395c0.18-0.463,0.322-0.838,0.424-1.122
		c0.103-0.283,0.154-0.509,0.154-0.676c0-0.156-0.043-0.265-0.122-0.338c-0.083-0.071-0.203-0.129-0.365-0.169l-1.191-0.318
		l-0.027-0.584c0.932,0.037,1.871,0.05,2.818,0.05c0.95,0,1.861-0.014,2.73-0.05l0.053,0.547l-1.295,0.403
		c-0.301,0.087-0.526,0.226-0.68,0.428c-0.154,0.199-0.357,0.593-0.615,1.184l-6.396,15.183L131.859,31.047z M147.147,27.053
		c0,0.505,0.005,0.968,0.008,1.382c0.005,0.414,0.012,0.787,0.021,1.128c0.006,0.211,0.155,0.355,0.446,0.43l1.45,0.442l0.024,0.547
		c-1.103-0.025-2.161-0.039-3.178-0.039c-1.036,0-2.095,0.014-3.179,0.039l-0.054-0.547l1.579-0.466
		c0.211-0.061,0.328-0.19,0.346-0.394c0.006-0.337,0.014-0.717,0.021-1.133c0.003-0.417,0.003-0.884,0.003-1.39V16.779
		c0-0.43,0-0.82-0.003-1.166c-0.007-0.347-0.015-0.66-0.021-0.94c-0.009-0.218-0.11-0.362-0.31-0.43l-1.59-0.494l-0.025-0.545
		c1.102,0.035,2.162,0.052,3.181,0.052c1.025,0,2.085-0.017,3.179-0.052l0.051,0.545l-1.59,0.469
		c-0.204,0.049-0.314,0.182-0.331,0.392c-0.009,0.299-0.016,0.619-0.021,0.971c-0.003,0.35-0.008,0.732-0.008,1.146V27.053z
		 M156.077,16.727v10.302c0,0.938,0.011,1.862,0.029,2.775h6.239l1.641-3.357l0.576-0.091l-0.281,4.537l-0.078,0.09
		c-2.211-0.025-4.258-0.039-6.138-0.039h-3.218c-1.036,0-2.094,0.014-3.177,0.039l-0.052-0.544l1.575-0.469
		c0.213-0.063,0.33-0.19,0.345-0.394c0.009-0.337,0.018-0.717,0.021-1.133c0.004-0.419,0.004-0.882,0.004-1.388V16.779
		c0-0.43,0-0.82-0.004-1.166c-0.004-0.346-0.013-0.661-0.021-0.938c-0.007-0.221-0.107-0.363-0.307-0.43l-1.588-0.496l-0.025-0.545
		c1.103,0.035,2.16,0.052,3.178,0.052c1.025,0,2.088-0.017,3.177-0.052l0.05,0.545l-1.585,0.467
		c-0.206,0.053-0.317,0.184-0.332,0.394c-0.01,0.299-0.016,0.726-0.021,1.291C156.079,16.469,156.077,16.744,156.077,16.727
		 M175.374,12.938l5.69,15.497c0.212,0.581,0.406,0.979,0.581,1.184c0.176,0.208,0.427,0.361,0.749,0.461l1.208,0.357l0.023,0.544
		c-1.117-0.025-2.157-0.039-3.113-0.039c-0.973,0-2.124,0.014-3.447,0.039l-0.052-0.544l1.216-0.357
		c0.172-0.059,0.296-0.125,0.367-0.195c0.072-0.069,0.107-0.182,0.107-0.336c0-0.168-0.043-0.388-0.133-0.663
		c-0.087-0.275-0.214-0.64-0.379-1.096l-1.201-3.396h-6.179l-1.35,3.384c-0.178,0.471-0.32,0.849-0.421,1.127
		c-0.103,0.28-0.154,0.498-0.154,0.658c0,0.143,0.042,0.253,0.123,0.322c0.079,0.071,0.204,0.134,0.364,0.187l1.19,0.339
		l0.027,0.572c-1.213-0.025-2.204-0.039-2.974-0.039s-1.629,0.014-2.576,0.039l-0.067-0.544l1.298-0.395
		c0.324-0.1,0.564-0.258,0.718-0.468c0.153-0.209,0.325-0.54,0.512-0.986l6.551-15.46L175.374,12.938z M171.284,23.24h5.279
		l-2.497-6.981L171.284,23.24z M193.559,14.357c-0.896-0.296-1.721-0.442-2.476-0.442c-1.125,0-2.025,0.269-2.695,0.811
		c-0.67,0.541-1.007,1.292-1.007,2.256c0,0.551,0.117,1.03,0.354,1.445c0.233,0.414,0.549,0.777,0.947,1.088
		c0.396,0.313,0.846,0.59,1.35,0.836c0.504,0.248,1.028,0.488,1.565,0.724c0.59,0.25,1.164,0.521,1.718,0.804
		c0.556,0.282,1.058,0.615,1.508,0.995c0.446,0.378,0.807,0.837,1.076,1.368c0.268,0.533,0.402,1.153,0.402,1.866
		c0,1.679-0.664,2.963-1.992,3.85c-1.329,0.887-3.05,1.33-5.159,1.33c-1.359,0-2.863-0.228-4.51-0.683l-0.079-0.101l0.63-4.309
		l0.574-0.087l0.897,3.597c0.907,0.355,1.834,0.534,2.782,0.534c1.272,0,2.265-0.281,2.978-0.839
		c0.717-0.557,1.072-1.348,1.072-2.383c0-0.541-0.117-1.017-0.347-1.424c-0.228-0.411-0.54-0.764-0.929-1.06
		c-0.388-0.295-0.83-0.56-1.324-0.804c-0.498-0.24-1.012-0.48-1.541-0.716c-0.598-0.251-1.18-0.526-1.741-0.821
		c-0.565-0.297-1.077-0.641-1.532-1.034c-0.458-0.395-0.824-0.874-1.099-1.445c-0.272-0.57-0.408-1.238-0.408-1.997
		c0-1.529,0.645-2.71,1.943-3.547c1.292-0.833,2.896-1.254,4.811-1.254c1.354,0,2.764,0.157,4.242,0.467l0.093,0.091l-0.759,3.955
		l-0.51,0.087L193.559,14.357z M125.121,41.779c1.343,0.038,2.634,0.06,3.877,0.06c1.24,0,2.528-0.021,3.857-0.06l0.08,0.66
		L131,43.011c-0.261,0.064-0.401,0.221-0.419,0.479c-0.013,0.36-0.02,0.752-0.027,1.177c-0.003,0.427-0.008,0.892-0.008,1.397
		v13.963c0,1.008-0.036,1.924-0.116,2.752c-0.079,0.828-0.216,1.566-0.416,2.211c-0.197,0.648-0.477,1.225-0.839,1.734
		c-0.36,0.51-0.816,0.961-1.37,1.357c-0.554,0.395-1.216,0.744-1.998,1.039c-0.78,0.299-1.705,0.572-2.773,0.818l-0.235-0.773
		c1.081-0.449,1.93-0.949,2.549-1.492c0.618-0.545,1.085-1.168,1.402-1.867c0.316-0.697,0.521-1.484,0.61-2.357
		c0.088-0.869,0.131-1.859,0.131-2.959V46.124c0-0.525-0.001-0.998-0.008-1.416c-0.005-0.424-0.012-0.803-0.022-1.143
		c-0.011-0.269-0.136-0.439-0.375-0.522l-1.935-0.603L125.121,41.779z M145.561,41.456l6.922,18.849
		c0.261,0.707,0.496,1.189,0.711,1.443c0.212,0.25,0.518,0.438,0.91,0.561l1.468,0.432l0.028,0.666
		c-1.36-0.037-2.623-0.049-3.786-0.049c-1.185,0-2.582,0.012-4.194,0.049l-0.062-0.666l1.479-0.432
		c0.207-0.072,0.357-0.15,0.445-0.238c0.088-0.086,0.132-0.225,0.132-0.408c0-0.205-0.053-0.479-0.165-0.811
		c-0.107-0.334-0.263-0.777-0.458-1.332l-1.466-4.133h-7.514l-1.638,4.117c-0.219,0.574-0.392,1.033-0.515,1.373
		c-0.125,0.34-0.187,0.604-0.187,0.799c0,0.176,0.048,0.309,0.148,0.395c0.1,0.088,0.246,0.162,0.446,0.223l1.448,0.418l0.03,0.695
		c-1.474-0.037-2.68-0.049-3.619-0.049c-0.933,0-1.976,0.012-3.132,0.049l-0.075-0.666l1.575-0.477
		c0.394-0.125,0.685-0.313,0.871-0.572c0.188-0.256,0.398-0.658,0.624-1.201l7.967-18.807L145.561,41.456z M140.589,53.986h6.421
		l-3.037-8.495L140.589,53.986z M161.476,63.48l-6.953-18.587c-0.25-0.679-0.481-1.154-0.694-1.426s-0.532-0.47-0.959-0.596
		l-1.417-0.432l-0.032-0.664c1.029,0.044,2.236,0.062,3.617,0.062c1.401,0,2.854-0.018,4.35-0.062l0.063,0.664l-1.467,0.416
		c-0.207,0.05-0.359,0.125-0.45,0.224c-0.095,0.098-0.142,0.239-0.142,0.426c0,0.206,0.054,0.481,0.164,0.824
		c0.112,0.347,0.262,0.788,0.458,1.333l5.039,13.873l5.47-13.858c0.219-0.563,0.392-1.021,0.515-1.362
		c0.126-0.347,0.189-0.619,0.189-0.826c0-0.185-0.052-0.323-0.15-0.41c-0.1-0.087-0.246-0.157-0.443-0.208l-1.448-0.386l-0.035-0.71
		c1.137,0.044,2.278,0.062,3.433,0.062c1.155,0,2.26-0.018,3.321-0.062l0.061,0.664l-1.572,0.494
		c-0.365,0.105-0.642,0.275-0.828,0.517c-0.186,0.243-0.436,0.722-0.748,1.443l-7.78,18.464L161.476,63.48z M180.046,63.357
		c-1.255,0-2.546,0.016-3.865,0.049l-0.062-0.666l1.918-0.568c0.27-0.086,0.408-0.244,0.423-0.48
		c0.007-0.408,0.016-0.871,0.021-1.377c0.005-0.51,0.01-1.072,0.01-1.689V46.124c0-0.525-0.005-0.996-0.01-1.416
		c-0.005-0.424-0.014-0.802-0.021-1.143c-0.015-0.265-0.137-0.441-0.376-0.522l-1.935-0.603l-0.03-0.66
		c1.341,0.038,2.644,0.06,3.913,0.06c1.036,0,2.04-0.024,3.007-0.078c0.964-0.049,1.956-0.078,2.973-0.078
		c3.635,0,6.367,0.822,8.195,2.459c1.827,1.644,2.741,4.074,2.741,7.301c0,3.801-1.014,6.754-3.046,8.855
		c-2.029,2.1-4.878,3.15-8.544,3.15c-1.009,0-1.905-0.014-2.696-0.043C181.875,63.373,181.003,63.357,180.046,63.357
		 M181.544,61.986c0.612,0.082,1.215,0.133,1.802,0.16c0.588,0.027,1.177,0.041,1.769,0.041c2.746,0,4.833-0.799,6.27-2.398
		c1.434-1.598,2.15-4.049,2.15-7.346c0-3.205-0.682-5.583-2.043-7.127c-1.362-1.547-3.516-2.319-6.471-2.319
		c-0.466,0-0.985,0.008-1.55,0.028c-0.568,0.022-1.209,0.057-1.927,0.109V61.986z M201.699,41.839h3.791
		c2.327,0,4.788-0.021,7.374-0.06l0.094,0.123l-0.905,4.762l-0.622,0.11l-0.969-3.561h-7.203v8.475h1.419
		c1.078,0,2.289-0.008,3.617-0.029c0.269-0.014,0.445-0.146,0.529-0.4l0.546-2.082l0.843-0.031c-0.032,1.439-0.048,2.5-0.048,3.193
		c0,0.666,0.016,1.713,0.048,3.145l-0.843,0.061l-0.561-2.115c-0.083-0.264-0.246-0.4-0.484-0.41
		c-1.35-0.023-2.573-0.035-3.663-0.035h-1.403v5.611c0,1.141,0.008,2.266,0.03,3.377h7.484l1.901-3.916l0.704-0.125l-0.343,5.367
		l-0.11,0.105c-2.695-0.033-5.178-0.043-7.454-0.043h-3.71c-1.257,0-2.546,0.01-3.866,0.043l-0.06-0.664l1.916-0.566
		c0.258-0.072,0.4-0.232,0.42-0.48c0.01-0.41,0.018-0.871,0.023-1.377c0.006-0.508,0.006-1.072,0.006-1.688V46.124
		c0-0.525,0-0.998-0.006-1.416c-0.006-0.424-0.014-0.803-0.023-1.143c-0.012-0.269-0.136-0.439-0.375-0.522l-1.933-0.603
		l-0.028-0.66C199.174,41.817,200.465,41.839,201.699,41.839 M221.799,46.064v12.563c0,0.615,0,1.176,0.006,1.678
		c0.005,0.506,0.012,0.959,0.022,1.371c0.009,0.268,0.147,0.443,0.405,0.521l1.734,0.541l0.044,0.664
		c-1.238-0.033-2.476-0.043-3.71-0.043c-1.259,0-2.55,0.01-3.866,0.043l-0.065-0.664l1.919-0.566c0.271-0.082,0.41-0.244,0.422-0.48
		c0.009-0.408,0.019-0.871,0.022-1.377c0.005-0.508,0.009-1.072,0.009-1.688V46.124c0-0.522-0.004-0.996-0.009-1.416
		c-0.004-0.424-0.014-0.803-0.022-1.143c-0.012-0.27-0.135-0.439-0.374-0.522l-1.933-0.603l-0.034-0.66
		c1.343,0.038,2.63,0.06,3.868,0.06c1.236,0,2.472-0.021,3.694-0.06l0.079,0.66l-1.778,0.54c-0.247,0.063-0.384,0.221-0.405,0.48
		c-0.011,0.367-0.018,0.769-0.022,1.199C221.799,45.091,221.799,45.559,221.799,46.064 M222.201,52.443l6.282-6.922
		c0.489-0.545,0.882-1.002,1.187-1.379c0.303-0.373,0.451-0.673,0.451-0.902c0-0.201-0.139-0.34-0.42-0.415l-1.279-0.337
		l-0.029-0.709c1.027,0.038,2.177,0.06,3.446,0.06c1.217,0,2.357-0.021,3.426-0.06l0.065,0.66l-1.576,0.494
		c-0.476,0.156-0.893,0.392-1.24,0.709c-0.346,0.318-0.717,0.694-1.115,1.126l-6.234,6.782l7.095,9.248
		c0.3,0.389,0.598,0.707,0.887,0.949c0.29,0.24,0.67,0.43,1.14,0.561l1.418,0.43l0.029,0.664c-0.869-0.033-1.979-0.043-3.318-0.043
		c-0.355,0-0.713,0-1.076,0.006c-0.363,0.004-0.729,0.016-1.09,0.023c-0.364-0.742-1.325-2.133-2.885-4.178L222.201,52.443z
		 M248.613,41.456l6.921,18.849c0.26,0.707,0.498,1.189,0.712,1.443c0.212,0.25,0.517,0.438,0.91,0.561l1.467,0.432l0.029,0.666
		c-1.361-0.037-2.622-0.049-3.787-0.049c-1.186,0-2.582,0.012-4.194,0.049l-0.063-0.666l1.481-0.432
		c0.206-0.072,0.354-0.15,0.442-0.238c0.091-0.086,0.135-0.225,0.135-0.408c0-0.205-0.053-0.479-0.164-0.811
		c-0.11-0.334-0.264-0.777-0.461-1.332l-1.466-4.133h-7.514l-1.638,4.117c-0.216,0.574-0.39,1.033-0.515,1.373
		c-0.123,0.34-0.187,0.604-0.187,0.799c0,0.176,0.051,0.309,0.146,0.395c0.102,0.088,0.249,0.162,0.447,0.223l1.449,0.418
		l0.031,0.695c-1.478-0.037-2.683-0.049-3.617-0.049c-0.938,0-1.98,0.012-3.133,0.049l-0.08-0.666l1.576-0.477
		c0.396-0.125,0.688-0.313,0.872-0.572c0.188-0.256,0.396-0.658,0.625-1.201l7.965-18.807L248.613,41.456z M243.637,53.986h6.426
		l-3.039-8.495L243.637,53.986z M265.341,58.625c0,0.617,0.005,1.172,0.01,1.666c0.003,0.494,0.012,0.938,0.021,1.34
		c0.011,0.318,0.147,0.521,0.407,0.602l1.729,0.508l0.048,0.662c-1.237-0.033-2.474-0.045-3.71-0.045
		c-1.26,0-2.548,0.012-3.866,0.045l-0.062-0.662l1.917-0.568c0.256-0.072,0.396-0.234,0.421-0.48c0.01-0.408,0.017-0.871,0.02-1.379
		c0.009-0.508,0.011-1.07,0.011-1.688V46.124c0-0.525-0.002-0.998-0.011-1.42c-0.003-0.42-0.01-0.799-0.02-1.139
		c-0.011-0.265-0.138-0.439-0.377-0.526l-1.933-0.6l-0.028-0.658c1.339,0.036,2.648,0.058,3.928,0.058
		c0.254,0,0.571-0.006,0.961-0.021c0.39-0.017,0.86-0.032,1.416-0.054c0.57-0.021,1.043-0.035,1.42-0.045
		c0.379-0.01,0.679-0.017,0.901-0.017c2.392,0,4.191,0.441,5.386,1.328c1.198,0.882,1.797,2.172,1.797,3.866
		c0,1.529-0.413,2.773-1.233,3.719c-0.822,0.955-2.074,1.688-3.764,2.199c0.664,0.988,1.277,1.943,1.834,2.859
		c0.558,0.92,1.077,1.764,1.557,2.527c0.48,0.768,0.919,1.443,1.318,2.029s0.771,1.045,1.113,1.387
		c0.175,0.174,0.352,0.328,0.53,0.455c0.176,0.127,0.36,0.232,0.551,0.316c0.193,0.082,0.397,0.152,0.612,0.215
		c0.21,0.064,0.449,0.123,0.706,0.186L279,63.465c-0.75,0.092-1.377,0.139-1.887,0.139c-0.428,0-0.8-0.01-1.125-0.029
		c-0.323-0.021-0.614-0.061-0.861-0.125c-0.256-0.061-0.486-0.141-0.692-0.238c-0.201-0.1-0.405-0.225-0.608-0.377
		c-0.43-0.32-0.852-0.779-1.268-1.381c-0.418-0.6-0.852-1.283-1.3-2.043c-0.446-0.758-0.913-1.57-1.396-2.428
		c-0.487-0.857-0.999-1.697-1.533-2.518c-0.158-0.246-0.294-0.445-0.404-0.588c-0.111-0.141-0.231-0.256-0.364-0.338
		c-0.132-0.084-0.282-0.141-0.458-0.17c-0.175-0.033-0.4-0.049-0.67-0.063l-1.093-0.027V58.625z M265.341,52.119
		c0.634,0.031,1.224,0.047,1.763,0.047c1.799,0,3.118-0.375,3.953-1.133c0.836-0.756,1.254-1.939,1.254-3.553
		c0-1.561-0.4-2.703-1.2-3.42c-0.802-0.721-2.052-1.081-3.759-1.081c-0.291,0-0.601,0.01-0.935,0.032
		c-0.329,0.018-0.691,0.05-1.076,0.091V52.119z M55.247,78.648c-1.151-0.012-2.133-0.207-2.943-0.615
		c-0.246-0.107-0.469-0.229-0.681-0.365c1.894-1.102,3.175-3.145,3.175-5.477c0-3.512-2.879-6.359-6.433-6.359
		c-3.519,0-6.383,2.799-6.421,6.273c-0.024,1.467,0.372,2.951,1.097,4.225c0.717,1.24,1.714,2.318,2.968,3.215
		c1.263,0.91,2.708,1.602,4.33,2.078c1.623,0.498,3.349,0.752,5.162,0.752c2.382,0,4.605-0.363,6.651-1.111
		c2.059-0.73,3.875-1.844,5.423-3.338c1.57-1.49,2.778-3.375,3.666-5.641c0.867-2.268,1.321-4.959,1.335-8.035V26.349
		c-0.015-2.059,0.081-3.731,0.274-5.009c0.197-1.282,0.572-2.259,1.133-2.939c0.562-0.672,1.369-1.141,2.441-1.395
		c1.063-0.249,2.458-0.356,4.187-0.345v-2.398H58.677H38.421v2.398c2.297-0.011,4.018,0.203,5.147,0.637
		c1.121,0.431,1.753,1.103,1.896,2.042c0.147,0.918-0.109,2.127-0.776,3.611L32.896,49.848L21.183,22.951
		c-0.672-1.46-0.95-2.65-0.874-3.587c0.082-0.917,0.702-1.611,1.818-2.049c1.113-0.451,2.903-0.654,5.321-0.654v-2.398H0v2.398
		c1.661,0,3.025,0.124,4.081,0.375c1.078,0.262,1.958,0.676,2.651,1.254c0.7,0.567,1.314,1.307,1.832,2.251
		c0.529,0.925,1.071,2.065,1.647,3.403l18.251,41.379h1.756l18.155-41.379c0.652-1.461,1.271-2.662,1.904-3.61
		c0.614-0.954,1.31-1.697,2.06-2.234c0.749-0.537,1.633-0.915,2.657-1.134c1.289-0.262,2.048-0.262,3.331,0.039
		c1.07,0.254,1.871,0.723,2.415,1.395c0.541,0.68,0.909,1.658,1.102,2.939c0.2,1.277,0.276,2.95,0.271,5.009v41.956
		c0,2.43-0.288,4.402-0.81,5.922c-0.541,1.523-1.33,2.645-2.351,3.359C57.944,78.301,56.694,78.66,55.247,78.648 M102.66,3.31
		v90.379h-0.744h-0.744V3.31h0.744h0.464H102.66z M126.572,77.85h-1.981v4.957h1.981c0.802,0,1.432-0.221,1.894-0.666
		c0.46-0.445,0.691-1.047,0.691-1.807c0-0.746-0.235-1.346-0.701-1.799C127.984,78.076,127.359,77.85,126.572,77.85"/>
</g>
</svg>
