<?xml version="1.0" encoding="utf-8"?>
<!-- Generator: Adobe Illustrator 25.4.1, SVG Export Plug-In . SVG Version: 6.00 Build 0)  -->
<svg version="1.1" id="Layer_1" xmlns="http://www.w3.org/2000/svg" xmlns:xlink="http://www.w3.org/1999/xlink" x="0px" y="0px"
	 viewBox="0 0 348 104" style="enable-background:new 0 0 348 104;" xml:space="preserve">
<style type="text/css">
	.st0{display:none;}
	.st1{display:inline;fill:#B42322;}
	.st2{display:inline;opacity:0.54;}
	.st3{clip-path:url(#SVGID_00000022518422406047265810000013557047126219471514_);}
	.st4{clip-path:url(#SVGID_00000168089210505872662890000015108367541091210645_);}
	.st5{clip-path:url(#SVGID_00000140717807534977582320000002901926874002469504_);}
	.st6{display:inline;opacity:0.9;}
	.st7{clip-path:url(#SVGID_00000136408825479177077600000015379361894497759394_);}
	.st8{fill-rule:evenodd;clip-rule:evenodd;fill:url(#SVGID_00000062885052072739448830000001968133745222361523_);}
	.st9{fill:#FFFFFF;}
	.st10{fill:#15123E;}
	.st11{fill:#16133F;}
</style>
<g>
	<path class="st11" d="M47.6,14.3v2.7c2.5,0,4.5,0.2,5.7,0.7c1.2,0.5,1.9,1.2,2.1,2.3c0.2,1-0.1,2.4-0.9,4L41.5,53.7l-13-29.8
		c-0.7-1.6-1.1-2.9-1-4c0.1-1,0.8-1.8,2-2.3c1.2-0.5,3.2-0.7,5.9-0.7v-2.7H5v2.7c1.8,0,3.4,0.1,4.5,0.4c1.2,0.3,2.2,0.7,2.9,1.4
		c0.8,0.6,1.5,1.4,2,2.5c0.6,1,1.2,2.3,1.8,3.8l20.2,45.8h1.9L58.7,25c0.7-1.6,1.4-3,2.1-4c0.7-1.1,1.5-1.9,2.3-2.5
		c0.8-0.6,1.8-1,2.9-1.3c0.8-0.2,1.4-0.2,2-0.2v-2.8H47.6z"/>
	<path class="st11" d="M72.4,18.8c0.6,0.8,1,1.8,1.2,3.3c0.2,1.4,0.3,3.3,0.3,5.6v46.5c0,2.7-0.3,4.9-0.9,6.6
		c-0.6,1.7-1.5,2.9-2.6,3.7c-1.1,0.8-2.5,1.2-4.1,1.2c-1.3,0-2.4-0.2-3.3-0.7c-0.3-0.1-0.5-0.3-0.8-0.4c2.1-1.2,3.5-3.5,3.5-6.1
		c0-3.9-3.2-7-7.1-7c-3.9,0-7.1,3.1-7.1,7c0,1.6,0.4,3.3,1.2,4.7c0.8,1.4,1.9,2.6,3.3,3.6c1.4,1,3,1.8,4.8,2.3
		c1.8,0.6,3.7,0.8,5.7,0.8c2.6,0,5.1-0.4,7.4-1.2c2.3-0.8,4.3-2,6-3.7c1.7-1.6,3.1-3.7,4.1-6.2c1-2.5,1.5-5.5,1.5-8.9v-42
		c0-2.3,0.1-4.1,0.3-5.6c0.2-1.4,0.6-2.5,1.3-3.3c0.6-0.7,1.5-1.3,2.7-1.5c1.2-0.3,2.7-0.4,4.6-0.4v-2.7H70.1H68v2.8
		c0.5,0,1.1,0.1,1.7,0.2C70.9,17.6,71.8,18.1,72.4,18.8"/>
</g>
<g>
	<g>
		<path class="st9" d="M101.5,68.5V15.8h237.3c1.7,0,3.1,1,3.1,2.3v48.2c0,1.2-1.4,2.3-3.1,2.3H101.5z"/>
		<path class="st10" d="M338.8,16.8c1.2,0,2.1,0.7,2.1,1.3v48.2c0,0.6-0.9,1.3-2.1,1.3H102.5V16.8H338.8z M338.8,14.8H100.5v54.8
			h238.3c2.3,0,4.1-1.5,4.1-3.3V18C343,16.2,341.1,14.8,338.8,14.8"/>
		<polygon class="st11" points="123.4,51.1 123.4,55.5 110.5,55.5 110.5,51.1 114.2,51.1 114.2,33.8 110.8,33.8 110.8,29.5 
			123.1,29.5 123.1,33.8 119.7,33.8 119.7,51.1 		"/>
		<polygon class="st11" points="132.9,40.6 132.9,55.5 127.3,55.5 127.3,29.3 129.1,29.3 143.7,44.2 143.7,29.5 149.3,29.5 
			149.3,55.6 147.6,55.6 		"/>
		<path class="st11" d="M164.3,29.5c8.3,0,12.8,6.3,12.8,12.9c0.1,6.7-4.4,13.1-12.8,13.1h-9.7v-26H164.3z M164.3,50.5
			c4.8,0,7.3-3.9,7.3-8c0-4.2-2.6-7.9-7.3-7.9h-4.1v16H164.3z"/>
		<polygon class="st11" points="191.9,51.1 191.9,55.5 178.9,55.5 178.9,51.1 182.6,51.1 182.6,33.8 179.2,33.8 179.2,29.5 
			191.6,29.5 191.6,33.8 188.2,33.8 188.2,51.1 		"/>
		<polygon class="st11" points="212.4,29.9 218,46.1 218.1,46.1 220.3,37.4 222.9,29.5 228.7,29.5 228.7,30.3 219.8,55.7 
			216.5,55.7 211.3,41.7 211.2,41.7 206.1,55.7 202.7,55.7 193.7,30.3 193.7,29.5 199.5,29.5 202.2,37.4 204.5,46.1 204.6,46.1 
			210.1,29.9 		"/>
		<path class="st11" d="M242.4,56c-7,0-13.3-4.7-13.3-13.5c0-8.8,6.4-13.4,13.4-13.4c6.8,0,13.3,4.7,13.3,13.4
			C255.7,50.4,250.2,56,242.4,56 M242.4,50.9c4.1,0,7.7-2.7,7.7-8.4c0-5.5-3.6-8.3-7.7-8.3c-4.1,0-7.7,2.8-7.7,8.3
			C234.7,48.2,238.3,50.9,242.4,50.9"/>
		<path class="st11" d="M281.2,54.7v0.8h-6l-5.4-8.6h-4.7v8.6h-5.6V29.4c3.7,0,7.4,0,11.1,0c6,0,9.2,4.3,9.2,8.9
			c0,3.3-1.7,6.2-4.7,7.7L281.2,54.7z M270.7,42.3c2.3,0,3.9-1.8,3.8-4.1c0-2.2-1.5-3.9-3.8-3.9h-5.6v8H270.7z"/>
		<path class="st11" d="M290.1,40.2c1.6,0,3.5,0,4.5-0.5c1.4-0.7,1.9-2.7,2.6-5.7c0.9-3.2,3.2-5.8,8.9-4.6v3.8
			c-2.1-0.2-3.2,0.4-3.8,2.4c-0.8,3-1.7,5.3-3.3,6.9l8,12.1v0.8h-6.3l-6.6-10.7c-1,0.3-2.9,0.3-4.1,0.3v10.5h-5.5V29.4h5.5V40.2z"/>
		<path class="st11" d="M313.3,47.8c0.1,2.4,2.7,3.4,5.3,3.4c2.3,0,5-0.6,5-3.3c0-3-3.2-3.2-5.7-3.4c-4.7-0.4-9.5-2-9.5-7.4
			c0-5.8,4.7-8.2,9.9-8.2c4.9,0,9.9,2,9.9,7.9H323c-0.3-2.1-2.5-3-4.7-3c-2.2,0-4.4,1.2-4.4,3.2c0,2.3,2.3,2.8,5,3.1
			c5.5,0.5,10.2,1.7,10.2,7.8c0,6.1-5.3,8-10.5,8.2c-5.2,0-10.6-2.6-10.6-8.3H313.3z"/>
	</g>
	<g>
		<path d="M112.5,74.3l-5.9,6.3l6.3,6.6v0.2h-3.1l-5.5-5.8v5.8h-2.5V74.2h2.5v5.6l5-5.6L112.5,74.3L112.5,74.3z"/>
		<path d="M133.6,80.9c0,3.4-2.1,6.8-6.8,6.8c-4.6,0-6.8-3.3-6.8-6.8c0-3.5,2.2-6.9,6.8-6.9C131.3,73.9,133.6,77.4,133.6,80.9z
			 M122.5,80.9c0.1,2.2,1.2,4.5,4.3,4.5c3.1,0,4.3-2.3,4.3-4.5c0-2.2-1.2-4.7-4.3-4.7C123.7,76.2,122.4,78.7,122.5,80.9z"/>
		<path d="M145.5,76.5h-4.2v-2.3c3.8,0,7,0,10.8,0v2.3H148v10.9h-2.5V76.5z"/>
		<path d="M170.2,87.4v-5.3h-6.5v5.3h-2.5V74.2h2.5v5.6h6.5v-5.6h2.5v13.2H170.2z"/>
		<path d="M194.2,87.4h-3l-3.8-4.4H185v4.4h-2.5V74.2c2.1,0,4.2,0,6.3,0c3.1,0,4.7,2.1,4.7,4.4c0,1.8-0.8,3.6-3.3,4.1l4,4.5V87.4z
			 M185,76.5v4.2h3.8c1.6,0,2.3-1.1,2.3-2.1c0-1.1-0.7-2.1-2.3-2.1H185z"/>
		<path d="M214.7,74.2v7.5c0,3.9-2.4,5.9-5.7,5.9c-3.2,0-5.9-1.9-5.9-5.9v-7.5h2.5v7.5c0,2.4,1.4,3.6,3.4,3.6s3.2-1.4,3.2-3.6v-7.5
			H214.7z"/>
		<path d="M236.3,80.7c0.1,3.3-2,6.7-6.6,6.7c-1.6,0-3.6,0-5.2,0V74.2c1.6,0,3.6,0,5.2,0C234.2,74.2,236.2,77.4,236.3,80.7z M227,85
			h2.7c3,0,4.2-2.2,4.1-4.3c-0.1-2.1-1.3-4.1-4.1-4.1H227V85z"/>
		<path d="M247.1,89.2h-1.3l0.4-1.9c-0.5-0.1-0.9-0.4-0.9-1c0-1.7,2.7-1.7,2.7,0.1C248,86.6,248,86.6,247.1,89.2z"/>
		<path d="M275.2,83.5h-3.7v3.9H269V74.2c2.1,0,4.1,0,6.2,0C281.6,74.2,281.6,83.5,275.2,83.5z M271.5,81.2h3.7c3.2,0,3.2-4.7,0-4.7
			h-3.7V81.2z"/>
		<path d="M300.8,74.2v7.5c0,3.9-2.4,5.9-5.7,5.9c-3.2,0-5.9-1.9-5.9-5.9v-7.5h2.5v7.5c0,2.4,1.4,3.6,3.4,3.6c2.1,0,3.2-1.4,3.2-3.6
			v-7.5H300.8z"/>
		<path d="M319.4,74.2h2.5v13.2h-1.5v0l-6.9-8.9v8.9h-2.5V74.2h2l6.5,8.2V74.2z"/>
		<path d="M341.5,87.4h-9.9c0-4.4,0-8.8,0-13.2h9.9v2.4h-7.4v3h7.1V82h-7.1v3h7.4V87.4z"/>
	</g>
</g>
</svg>
