<svg xmlns:xlink="http://www.w3.org/1999/xlink" xmlns="http://www.w3.org/2000/svg" width="150" height="302" viewBox="0 0 150 302" fill="none">
<g opacity="0.3" clip-path="url(#clip0_15_3497)">
<mask id="mask0_15_3497" style="mask-type:luminance" maskUnits="userSpaceOnUse" x="-1" y="2" width="301" height="301">
<path d="M12.8583 154.659C15.8766 157.679 17.1186 161.638 18.9633 165.37C19.7493 166.952 20.6657 168.466 21.703 169.896C22.1422 170.513 22.6131 171.106 23.114 171.675C23.6893 172.347 24.289 172.993 24.9131 173.613C26.0728 174.774 27.3216 175.841 28.6482 176.807C30.0852 177.834 31.5944 178.757 33.1642 179.567C34.6121 180.338 36.1285 180.973 37.6939 181.465C38.528 181.738 39.3758 181.979 40.2373 182.185C41.2144 182.418 42.2738 182.5 43.0409 183.203C43.8492 182.997 44.7122 182.892 45.4017 182.746C46.9877 182.382 48.5752 182.033 50.1642 181.702C51.6863 181.382 53.219 181.048 54.7624 180.698C55.0775 180.625 55.4199 180.534 55.7715 180.438L55.1688 180.256C53.5376 179.726 51.9537 179.061 50.4336 178.267C45.0188 175.428 40.5962 171.012 37.7533 165.603C36.2693 162.729 35.3195 159.348 33.1231 157.154C32.1348 156.15 30.9547 155.354 29.6528 154.814C29.5889 154.814 29.1962 154.654 29.2419 154.659L28.7852 154.513C28.4199 154.399 28.0546 154.298 27.6848 154.216C27.3149 154.134 26.9268 154.107 26.566 153.997C26.4927 153.971 26.4211 153.941 26.3514 153.906L26.1368 153.815C26.0005 153.748 25.8693 153.672 25.7441 153.587C24.7911 153.747 23.8241 153.81 22.8583 153.774L18.0638 153.71L13.4473 153.632L11.6208 153.582C12.0455 153.933 12.4565 154.294 12.8446 154.681M44.808 215.355C45.0775 219.379 45.2327 223.343 46.5432 227.175C47.6064 230.326 49.8639 232.935 52.8309 234.442C55.4976 235.875 58.6163 236.518 61.6757 237.23C62.0345 236.765 62.4349 236.335 62.872 235.943L64.598 234.214C65.767 233.037 66.9725 231.897 68.1688 230.752C69.3652 229.607 70.493 228.557 71.6848 227.49C72.2784 226.956 72.872 226.418 73.4839 225.907L73.5524 225.848C71.0216 225.43 68.5952 224.528 66.4062 223.193C63.4717 221.359 61.2814 218.547 60.2236 215.255C59.0592 211.783 58.9085 207.979 58.6574 204.356C58.3743 200.251 58.2221 196.145 58.2008 192.039C58.2008 191.02 58.2008 190.005 58.2008 188.992C58.2008 187.97 58.1094 186.966 58.1231 185.94C58.1231 185.027 58.1597 184.115 58.1871 183.203C57.4062 183.531 56.5615 183.755 55.8217 184.001C54.3332 184.494 52.84 184.973 51.3423 185.438C49.84 185.894 48.3377 186.318 46.808 186.683L44.84 187.14C44.84 188.052 44.7258 188.964 44.6802 189.84C44.6117 191.118 44.5569 192.4 44.5067 193.681C44.4565 194.963 44.3058 196.222 44.2921 197.527C44.2784 198.832 44.2921 200.091 44.2921 201.373C44.3408 206.038 44.5173 210.697 44.8218 215.351L44.808 215.355ZM65.041 240.747C65.2419 242.088 65.4062 243.434 65.6848 244.766C65.8217 245.409 65.977 246.048 66.1688 246.677L66.2921 247.074C66.5313 247.698 66.8073 248.308 67.1186 248.899C68.6269 251.863 71.2385 254.119 74.3925 255.181C78.2236 256.49 82.1917 256.645 86.2191 256.914C90.8736 257.219 95.5356 257.392 100.205 257.434C101.49 257.434 102.773 257.434 104.055 257.434C105.365 257.434 106.607 257.266 107.904 257.22C109.201 257.174 110.47 257.115 111.753 257.047C112.891 256.91 114.038 256.873 115.182 256.937C115.347 256.353 115.52 255.769 115.68 255.19C116.073 253.767 116.453 252.342 116.822 250.915C117.19 249.489 117.558 248.061 117.927 246.632C118.192 245.61 118.415 244.57 118.689 243.548C117.7 243.575 116.706 243.597 115.708 243.612C114.68 243.612 113.676 243.525 112.653 243.534C111.63 243.543 110.616 243.534 109.603 243.534C105.484 243.507 101.374 243.355 97.2738 243.078C93.6209 242.823 89.84 242.672 86.3651 241.509C83.0687 240.456 80.2532 238.269 78.4199 235.336C77.1298 233.238 76.2425 230.917 75.8035 228.494C75.2601 229.05 74.7076 229.602 74.1688 230.163C73.0592 231.313 71.9588 232.472 70.8492 233.626C69.7396 234.78 68.6848 235.907 67.5752 237.02L65.8537 238.749C65.5387 239.064 65.2281 239.415 64.8857 239.72C64.9678 240.04 65.0227 240.396 65.0775 240.742L65.041 240.747ZM119.415 261.49C119.622 262.348 119.861 263.195 120.132 264.031C120.624 265.597 121.261 267.114 122.036 268.561C122.839 270.128 123.755 271.634 124.776 273.068C125.741 274.394 126.81 275.642 127.972 276.8C128.593 277.425 129.237 278.027 129.909 278.597C130.477 279.098 131.072 279.568 131.689 280.007C133.121 281.042 134.636 281.958 136.219 282.744C139.954 284.569 143.918 285.828 146.941 288.843C147.068 288.971 147.187 289.108 147.31 289.24C147.31 288.98 147.333 288.716 147.347 288.456C147.42 286.631 147.496 284.792 147.575 282.94C147.648 281.088 147.699 279.231 147.849 277.384C147.895 276.85 147.922 276.298 147.954 275.737C147.815 275.558 147.71 275.356 147.644 275.139C147.534 274.779 147.502 274.387 147.42 274.022C147.338 273.657 147.242 273.283 147.123 272.922C147.078 272.776 147.032 272.63 146.977 272.466C146.977 272.466 146.845 272.119 146.822 272.051C146.28 270.753 145.485 269.576 144.484 268.588C142.288 266.394 138.899 265.445 136.023 263.963C130.611 261.12 126.19 256.702 123.347 251.294C122.725 250.094 122.181 248.855 121.717 247.585C121.475 248.954 121.224 250.322 120.936 251.664C120.607 253.218 120.263 254.77 119.904 256.321C119.63 257.494 119.379 258.694 118.991 259.848C119.251 260.377 119.319 260.947 119.452 261.485L119.415 261.49ZM149.644 268.47C150.265 267.429 151.011 266.468 151.867 265.609C154.374 263.105 157.671 262.069 160.772 260.541C162.087 259.887 163.346 259.124 164.534 258.26C165.047 257.897 165.541 257.507 166.014 257.092C166.571 256.615 167.108 256.116 167.625 255.596C168.592 254.634 169.482 253.598 170.288 252.498C171.137 251.306 171.9 250.054 172.571 248.753C173.213 247.55 173.744 246.29 174.155 244.99C174.379 244.296 174.58 243.589 174.749 242.882C174.959 242.001 175.018 241.057 175.735 240.409C175.916 240.25 176.125 240.124 176.351 240.04C176.622 239.691 176.989 239.428 177.406 239.283C178.562 238.826 179.904 239.1 181.114 239.164C182.183 239.219 183.248 239.267 184.31 239.31C185.388 239.346 186.42 239.479 187.507 239.488C188.593 239.497 189.635 239.488 190.703 239.488C194.581 239.46 198.453 239.318 202.32 239.059C205.667 238.835 208.963 238.703 212.146 237.622C214.766 236.737 216.935 234.862 218.187 232.399C219.388 230.172 219.927 227.563 220.52 225.008C220.52 224.68 220.566 224.36 220.593 224.05C220.608 223.711 220.732 223.385 220.947 223.121C221.162 222.857 221.456 222.67 221.785 222.586C222.328 222.445 222.878 222.339 223.434 222.266C224.548 222.102 225.667 221.961 226.776 221.733C227.31 221.619 227.84 221.491 228.365 221.331L228.694 221.226C229.207 221.029 229.707 220.801 230.192 220.542C232.657 219.291 234.534 217.124 235.42 214.507C236.502 211.313 236.635 208.033 236.858 204.689C237.12 200.827 237.263 196.958 237.288 193.084C237.288 192.016 237.288 190.953 237.288 189.89C237.288 188.828 237.146 187.774 237.109 186.697C237.073 185.62 237.023 184.567 236.963 183.504C236.899 182.295 236.639 180.954 237.082 179.799C237.227 179.382 237.491 179.016 237.84 178.746C237.926 178.519 238.051 178.309 238.21 178.125C238.849 177.414 239.808 177.354 240.685 177.144C241.393 176.976 242.1 176.775 242.794 176.551C244.095 176.139 245.356 175.609 246.562 174.968C247.864 174.298 249.117 173.536 250.31 172.687C251.41 171.881 252.447 170.992 253.411 170.028C253.931 169.508 254.429 168.974 254.909 168.417C255.324 167.945 255.714 167.452 256.078 166.939C256.942 165.752 257.705 164.495 258.361 163.18C259.89 160.078 260.927 156.794 263.434 154.28C264.277 153.446 265.216 152.715 266.233 152.104C265.216 151.491 264.277 150.759 263.434 149.923C260.927 147.414 259.89 144.125 258.361 141.023C257.704 139.709 256.941 138.452 256.078 137.264C255.685 136.717 255.438 136.406 254.909 135.786C254.379 135.166 253.931 134.696 253.411 134.18C252.449 133.214 251.412 132.324 250.31 131.521C249.118 130.671 247.865 129.908 246.562 129.24C245.357 128.599 244.096 128.07 242.794 127.661C242.1 127.433 241.393 127.232 240.685 127.064C239.808 126.854 238.858 126.794 238.21 126.083C238.051 125.899 237.926 125.689 237.84 125.462C237.491 125.192 237.227 124.826 237.082 124.408C236.625 123.254 236.899 121.913 236.963 120.704C237.023 119.641 237.068 118.574 237.109 117.511C237.151 116.448 237.278 115.403 237.288 114.317C237.297 113.232 237.288 112.187 237.288 111.124C237.26 107.25 237.117 103.381 236.858 99.5186C236.635 96.1747 236.502 92.881 235.42 89.7013C234.533 87.0846 232.656 84.9185 230.192 83.6659C227.963 82.4661 225.351 81.9323 222.794 81.3347C222.47 81.3347 222.146 81.2936 221.836 81.2617C221.495 81.2475 221.169 81.1239 220.905 80.9094C220.641 80.6948 220.453 80.4008 220.37 80.0711C220.229 79.5307 220.123 78.9823 220.05 78.4288C219.886 77.3111 219.744 76.1934 219.516 75.0894C219.402 74.5557 219.274 74.0219 219.114 73.5019C219.082 73.3878 219.046 73.2783 219.009 73.1688C218.811 72.6569 218.582 72.1573 218.324 71.6725C217.072 69.2094 214.903 67.3354 212.283 66.4537C209.087 65.368 205.804 65.2402 202.456 65.0121C198.587 64.7566 194.715 64.6137 190.84 64.5833C189.772 64.5833 188.708 64.5833 187.644 64.5833C186.58 64.5833 185.525 64.7201 184.447 64.7612C183.37 64.8022 182.315 64.8479 181.251 64.9026C180.041 64.9665 178.699 65.2311 177.543 64.784C177.125 64.6406 176.758 64.3772 176.488 64.0267C176.261 63.9446 176.05 63.8208 175.867 63.6618C175.155 63.0186 175.096 62.0651 174.886 61.1892C174.717 60.4775 174.516 59.7704 174.292 59.077C173.88 57.7784 173.349 56.5201 172.708 55.318C172.037 54.0169 171.274 52.7653 170.424 51.5727C169.618 50.4716 168.729 49.4345 167.762 48.4705C167.242 47.9505 166.708 47.4532 166.151 46.9788C165.679 46.5614 165.185 46.1701 164.671 45.8064C163.481 44.9446 162.223 44.1817 160.909 43.5254C157.804 41.9972 154.516 40.9616 152 38.4571C151.165 37.6163 150.434 36.679 149.822 35.6652C149.204 36.7072 148.459 37.668 147.603 38.5255C145.091 41.03 141.799 42.0656 138.694 43.5938C137.381 44.2502 136.124 45.013 134.936 45.8748C134.421 46.2395 133.926 46.6308 133.452 47.0472C132.899 47.5034 132.361 48.0189 131.845 48.539C130.876 49.5006 129.986 50.5379 129.183 51.6411C128.332 52.8326 127.569 54.0844 126.899 55.3864C126.257 56.5878 125.728 57.8462 125.32 59.1455C125.091 59.8389 124.895 60.546 124.721 61.2576C124.511 62.1335 124.456 63.0824 123.74 63.7302C123.559 63.8892 123.35 64.013 123.123 64.0952C122.85 64.4422 122.485 64.7049 122.068 64.8525C120.909 65.3086 119.566 65.0349 118.356 64.9711C117.292 64.9163 116.228 64.8661 115.16 64.8296C114.091 64.7931 113.05 64.6608 111.963 64.6471C110.877 64.6334 109.831 64.6471 108.767 64.6471C104.889 64.6745 101.015 64.8175 97.146 65.076C93.8035 65.2995 90.5067 65.4318 87.3195 66.5176C84.6999 67.4006 82.5311 69.2742 81.2784 71.7364C80.0775 73.9626 79.5432 76.572 78.9451 79.1267C78.9451 79.4552 78.9039 79.7745 78.872 80.0848C78.8573 80.4249 78.7335 80.7513 78.5189 81.0158C78.3043 81.2803 78.0103 81.4689 77.6802 81.5537C77.1395 81.6931 76.5904 81.7982 76.0364 81.8684C74.9177 82.0327 73.799 82.1741 72.6939 82.4022C72.1597 82.5162 71.6255 82.644 71.1049 82.8036L70.7715 82.9086C70.2599 83.1087 69.76 83.3371 69.2738 83.5928C66.8093 84.8444 64.9339 87.0112 64.0501 89.6283C62.9633 92.8216 62.8354 96.1017 62.6117 99.4456C62.3499 103.311 62.1977 107.18 62.1551 111.051C62.1551 112.119 62.1551 113.182 62.1551 114.245C62.1551 115.307 62.2921 116.361 62.3332 117.438C62.3743 118.514 62.42 119.568 62.4793 120.631C62.5432 121.84 62.8035 123.181 62.3606 124.336C62.2138 124.752 61.9507 125.117 61.6026 125.389C61.518 125.617 61.3927 125.827 61.2327 126.01C60.5889 126.721 59.6346 126.781 58.7578 126.991C58.0455 127.159 57.3423 127.36 56.6437 127.588C55.3432 127.997 54.0836 128.525 52.8811 129.167C51.5779 129.835 50.3249 130.598 49.1322 131.448C48.0289 132.251 46.9907 133.141 46.0272 134.107C45.5113 134.623 45.009 135.156 44.5341 135.713C44.0592 136.27 43.7578 136.625 43.3606 137.191C42.5051 138.38 41.7491 139.637 41.1003 140.95C39.566 144.052 38.5341 147.337 36.0272 149.85C35.1836 150.687 34.2423 151.419 33.2236 152.031C34.2422 152.641 35.1835 153.372 36.0272 154.207C38.5341 156.716 39.566 160.005 41.1003 163.107C41.748 164.421 42.5041 165.678 43.3606 166.866C43.726 167.379 44.1177 167.872 44.5341 168.344C44.9907 168.901 45.5113 169.435 46.0272 169.955C46.9931 170.919 48.0311 171.808 49.1322 172.614C50.3259 173.463 51.5788 174.225 52.8811 174.895C54.0835 175.538 55.3431 176.068 56.6437 176.478C57.3423 176.702 58.0455 176.903 58.7578 177.071C59.6346 177.281 60.5843 177.341 61.2327 178.052C61.3917 178.236 61.517 178.446 61.6026 178.673C61.9507 178.945 62.2138 179.31 62.3606 179.726C62.8172 180.881 62.5432 182.222 62.4793 183.431C62.42 184.494 62.3743 185.561 62.3332 186.624C62.2921 187.687 62.1642 188.732 62.1551 189.817C62.1459 190.903 62.1551 191.943 62.1551 193.011C62.1825 196.882 62.3347 200.751 62.6117 204.616C62.8354 207.96 62.9633 211.254 64.0501 214.434C64.9326 217.052 66.8084 219.219 69.2738 220.469C71.5022 221.669 74.114 222.203 76.6711 222.8C76.9999 222.8 77.3241 222.846 77.6346 222.873C77.974 222.89 78.2994 223.014 78.5631 223.228C78.8268 223.442 79.015 223.735 79.1003 224.064C79.2395 224.606 79.3448 225.156 79.4154 225.711C79.5843 226.824 79.7213 227.942 79.9542 229.05C80.0638 229.582 80.1962 230.111 80.3515 230.638C80.388 230.752 80.4245 230.861 80.4565 230.966C80.6559 231.478 80.8846 231.977 81.1414 232.462C82.3949 234.926 84.5656 236.8 87.1871 237.681C90.3834 238.767 93.6665 238.899 97.009 239.123C100.875 239.378 104.749 239.521 108.63 239.552C109.694 239.552 110.762 239.552 111.826 239.552C112.89 239.552 113.945 239.41 115.023 239.374C116.1 239.337 117.155 239.283 118.219 239.228C119.429 239.164 120.776 238.904 121.931 239.346C122.348 239.494 122.713 239.757 122.986 240.104C123.214 240.186 123.423 240.311 123.603 240.473C124.32 241.112 124.374 242.065 124.584 242.941C124.758 243.653 124.954 244.36 125.183 245.053C125.591 246.353 126.12 247.611 126.762 248.812C127.431 250.117 128.194 251.37 129.046 252.562C129.851 253.662 130.742 254.698 131.708 255.66C132.224 256.18 132.762 256.677 133.315 257.156C133.936 257.685 134.228 257.932 134.799 258.324C135.987 259.188 137.246 259.952 138.562 260.605C141.662 262.133 144.954 263.169 147.466 265.673C148.303 266.513 149.035 267.452 149.644 268.47ZM151.735 277.366C151.813 279.272 151.817 281.179 151.849 283.091C151.881 284.87 151.909 286.654 151.94 288.437C151.94 288.661 151.94 288.894 151.94 289.117C152.059 288.989 152.169 288.862 152.292 288.743C155.31 285.728 159.278 284.487 163.014 282.644C164.595 281.858 166.109 280.943 167.539 279.907C168.16 279.471 168.756 279 169.324 278.497C169.991 277.927 170.639 277.325 171.26 276.7C172.421 275.541 173.49 274.293 174.457 272.968C175.478 271.534 176.393 270.027 177.196 268.461C177.967 267.013 178.604 265.498 179.1 263.935C179.374 263.096 179.613 262.247 179.817 261.39C179.934 260.605 180.15 259.839 180.461 259.109C180.041 257.973 179.74 256.768 179.402 255.623C178.982 254.205 178.603 252.777 178.224 251.344C177.927 250.208 177.625 249.063 177.356 247.927C176.929 249.05 176.437 250.147 175.881 251.212C173.04 256.62 168.621 261.038 163.21 263.88C160.329 265.363 156.945 266.312 154.749 268.506C153.745 269.494 152.949 270.673 152.411 271.973C152.411 272.037 152.246 272.402 152.251 272.384C152.201 272.525 152.151 272.671 152.105 272.84C151.991 273.2 151.89 273.57 151.808 273.94C151.758 274.181 151.717 274.432 151.671 274.679C151.735 275.591 151.703 276.517 151.735 277.366ZM182.096 250.309C182.498 251.732 182.931 253.146 183.347 254.565C183.562 255.309 183.831 256.066 184.068 256.846C185.196 256.695 186.402 256.892 187.516 256.951C188.797 257.018 190.081 257.076 191.365 257.124C192.662 257.174 193.904 257.325 195.214 257.339C196.525 257.352 197.781 257.339 199.064 257.339C203.73 257.302 208.393 257.129 213.05 256.819C217.078 256.549 221.046 256.394 224.877 255.09C228.03 254.024 230.641 251.768 232.151 248.803C233.593 246.125 234.237 242.982 234.959 239.908C234.959 239.775 234.959 239.652 234.986 239.52C234.265 238.955 233.58 238.346 232.936 237.695C231.68 236.555 230.443 235.414 229.242 234.201C228.041 232.987 226.904 231.874 225.74 230.706L223.941 228.913L223.484 228.457C223.041 230.86 222.159 233.162 220.881 235.245C219.048 238.178 216.232 240.365 212.936 241.417C209.461 242.581 205.63 242.736 202.027 242.987C197.918 243.27 193.808 243.422 189.699 243.443C188.68 243.443 187.662 243.443 186.648 243.443C185.635 243.443 184.621 243.534 183.593 243.521C182.566 243.507 181.466 243.484 180.397 243.452H180.16C180.47 244.31 180.685 245.222 180.927 246.048C181.351 247.444 181.689 248.885 182.096 250.309ZM235.434 234.994C235.918 235.533 236.575 236.153 237.114 236.819C237.571 236.723 238.027 236.646 238.484 236.582C239.854 236.381 241.178 236.212 242.507 235.934C243.151 235.802 243.79 235.642 244.42 235.478L244.817 235.35C245.441 235.112 246.051 234.837 246.644 234.529C249.612 233.022 251.871 230.413 252.936 227.262C254.242 223.43 254.397 219.465 254.667 215.442C254.971 210.792 255.144 206.134 255.187 201.469C255.187 200.188 255.187 198.906 255.187 197.623C255.187 196.318 255.023 195.073 254.972 193.777C254.922 192.482 254.867 191.213 254.799 189.936C254.735 188.727 254.516 187.409 254.744 186.2C253.963 186.095 253.187 185.954 252.411 185.835C250.927 185.607 249.466 185.269 247.995 184.973C246.525 184.676 245.055 184.412 243.58 184.129C242.845 183.987 242.068 183.887 241.297 183.75C241.297 184.498 241.338 185.246 241.347 185.995C241.347 187.021 241.26 188.025 241.269 189.042C241.278 190.059 241.269 191.077 241.269 192.094C241.245 196.209 241.093 200.314 240.813 204.411C240.562 208.033 240.406 211.838 239.242 215.305C238.189 218.6 236 221.415 233.064 223.247C231.056 224.477 228.845 225.339 226.534 225.793L226.703 225.966L228.493 227.791C229.689 228.992 230.883 230.195 232.073 231.4C233.205 232.563 234.319 233.767 235.434 234.994ZM259.228 182.272C260.084 182.068 260.931 181.828 261.772 181.551C263.337 181.06 264.853 180.425 266.301 179.654C267.869 178.848 269.378 177.934 270.817 176.916C272.142 175.951 273.39 174.883 274.548 173.723C275.175 173.115 275.784 172.468 276.374 171.784C277.014 171.041 277.288 170.662 277.785 170.005C278.823 168.575 279.739 167.061 280.525 165.48C282.351 161.748 283.616 157.788 286.635 154.768C286.895 154.508 287.164 154.257 287.447 154.011C287.087 154.011 286.73 153.979 286.37 153.974C284.676 153.974 282.991 154.107 281.297 154.189C279.603 154.271 277.831 154.371 276.096 154.44C275.183 154.472 274.246 154.481 273.324 154.499C272.695 154.55 272.062 154.515 271.443 154.394C271.192 154.458 270.941 154.517 270.699 154.595L270.265 154.741C270.265 154.741 269.918 154.878 269.854 154.896C268.552 155.436 267.372 156.232 266.383 157.236C264.187 159.43 263.237 162.811 261.753 165.685C258.91 171.094 254.488 175.51 249.073 178.349C247.772 179.027 246.423 179.61 245.036 180.091C246.406 180.351 247.753 180.643 249.105 180.94C251.607 181.492 254.324 182.017 256.68 183.139C257.379 182.573 258.338 182.482 259.228 182.272ZM286.593 149.495C283.575 146.475 282.329 142.515 280.484 138.783C279.697 137.202 278.781 135.688 277.744 134.258C277.288 133.601 276.972 133.222 276.333 132.479C275.758 131.808 275.155 131.165 274.507 130.54C273.349 129.38 272.101 128.312 270.776 127.346C269.338 126.327 267.829 125.412 266.26 124.609C264.813 123.835 263.297 123.198 261.73 122.707C260.89 122.433 260.041 122.191 259.187 121.991C258.511 121.875 257.845 121.705 257.196 121.484C256.74 121.63 256.31 121.84 255.959 121.94L254.082 122.529C252.676 122.985 251.265 123.377 249.831 123.747C248.63 124.053 247.425 124.349 246.224 124.659C247.164 125.038 248.091 125.458 248.991 125.928C254.406 128.766 258.828 133.183 261.671 138.592C263.155 141.466 264.105 144.85 266.301 147.045C267.291 148.046 268.471 148.84 269.772 149.38C269.836 149.38 270.201 149.545 270.183 149.536L270.616 149.682C270.977 149.796 271.347 149.896 271.717 149.978C272.087 150.06 272.475 150.088 272.835 150.197C272.913 150.224 272.977 150.261 273.05 150.293L273.242 150.375C274.155 150.343 275.091 150.297 276.014 150.279C277.84 150.247 279.703 150.243 281.548 150.234C283.362 150.242 285.175 150.353 286.977 150.567C287.265 150.594 287.552 150.635 287.835 150.672C287.401 150.301 286.986 149.908 286.593 149.495ZM254.63 88.8208C254.361 84.7972 254.205 80.8329 252.899 77.0054C251.836 73.853 249.577 71.2435 246.607 69.7383C243.927 68.2921 240.781 67.6489 237.703 66.9327C237.457 66.9327 237.219 66.8962 236.977 66.8779C236.854 67.0102 236.73 67.1425 236.612 67.2794L235.187 68.8487C234.274 69.8615 233.338 70.8651 232.447 71.896C230.621 73.9809 228.58 75.9014 226.598 77.8266L226.082 78.3421C228.549 78.774 230.913 79.6654 233.05 80.9697C235.986 82.8024 238.176 85.617 239.228 88.9121C240.393 92.3792 240.548 96.1838 240.799 99.806C241.082 103.912 241.234 108.017 241.256 112.123C241.256 113.141 241.256 114.158 241.256 115.175C241.256 116.192 241.347 117.196 241.333 118.223C241.32 119.249 241.297 120.353 241.265 121.416C241.265 121.489 241.265 121.557 241.265 121.626C242.635 121.169 244.137 120.955 245.498 120.64C247.093 120.272 248.686 119.895 250.278 119.509C251.794 119.139 253.333 118.857 254.845 118.524C254.425 117.187 254.699 115.672 254.772 114.299C254.842 113.019 254.899 111.737 254.945 110.454C254.995 109.158 255.151 107.917 255.16 106.608C255.169 105.299 255.16 104.044 255.16 102.762C255.114 98.1089 254.934 93.4558 254.621 88.8026L254.63 88.8208ZM234.402 63.4291C234.201 62.0879 234.032 60.7421 233.753 59.41C233.621 58.7668 233.466 58.1282 233.297 57.4986L233.173 57.1017C232.932 56.4785 232.656 55.8693 232.347 55.277C230.839 52.3127 228.227 50.0574 225.073 48.9952C221.242 47.6859 217.274 47.5308 213.246 47.2616C208.589 46.9575 203.927 46.7841 199.26 46.7415C197.977 46.7415 196.694 46.7415 195.411 46.7415C194.128 46.7415 192.858 46.9104 191.562 46.956C190.265 47.0016 188.995 47.0609 187.712 47.1293C186.52 47.1932 185.219 47.4076 184.023 47.1932C183.808 47.8045 183.593 48.4158 183.393 49.0179C182.904 50.4869 182.479 51.9696 182.023 53.4476C181.566 54.9257 181.155 56.4128 180.772 57.9137C180.589 58.6391 180.415 59.3644 180.246 60.0898C180.205 60.2722 180.169 60.4548 180.128 60.6372H180.584C181.648 60.6007 182.717 60.5779 183.781 60.5642C184.845 60.5505 185.813 60.6509 186.831 60.6418C187.849 60.6327 188.867 60.6418 189.886 60.6418C194.004 60.6631 198.114 60.8151 202.214 61.098C205.84 61.3489 209.648 61.4994 213.123 62.6627C216.42 63.7152 219.235 65.9025 221.068 68.835C222.254 70.7706 223.097 72.8955 223.561 75.1168C225.37 73.438 227.155 71.7364 228.918 70.012C230.018 68.9308 231.201 67.9135 232.278 66.8186C232.842 66.256 233.402 65.6934 233.959 65.1307L234.607 64.4692C234.502 64.1271 234.443 63.7621 234.393 63.4109L234.402 63.4291ZM180.018 42.6541C179.814 41.7964 179.575 40.9494 179.301 40.1131C178.806 38.5498 178.169 37.035 177.397 35.5876C176.595 34.019 175.68 32.5111 174.657 31.0759C173.691 29.7507 172.622 28.503 171.461 27.3442C170.84 26.7192 170.192 26.1216 169.525 25.5468C168.956 25.0452 168.36 24.5746 167.74 24.1371C166.31 23.1008 164.796 22.1853 163.214 21.4C159.479 19.5752 155.511 18.3162 152.493 15.3007C152.205 15.0133 151.931 14.7168 151.667 14.4112C151.667 14.6849 151.667 14.9631 151.667 15.2368C151.712 17.2897 151.767 19.3425 151.79 21.3954C151.79 23.3799 151.854 25.3689 151.886 27.3579C151.886 28.1927 151.922 29.0321 151.945 29.867C151.945 29.9536 151.972 30.0403 151.991 30.1224C152.073 30.4965 152.173 30.8614 152.288 31.2264C152.333 31.3678 152.383 31.5138 152.434 31.6553C152.434 31.6553 152.571 32.0065 152.589 32.0704C153.129 33.3698 153.926 34.5473 154.931 35.5329C157.128 37.7272 160.511 38.6806 163.388 40.1587C168.802 42.999 173.223 47.4174 176.064 52.8272C176.488 53.6392 176.877 54.474 177.224 55.3226C177.525 54.2323 177.84 53.1419 178.178 52.0608C178.635 50.5325 179.237 49.0316 179.826 47.5444C180.141 46.7461 180.466 45.9569 180.799 45.1677V45.1403C180.315 44.4423 180.224 43.5254 180.018 42.6541ZM147.169 15.3965C144.146 18.412 140.183 19.6529 136.447 21.4959C134.865 22.2822 133.35 23.1977 131.918 24.233C131.3 24.6717 130.706 25.1422 130.137 25.6426C129.464 26.2174 128.819 26.8166 128.201 27.44C127.038 28.5976 125.97 29.8454 125.004 31.1717C123.982 32.6068 123.067 34.1148 122.265 35.6834C121.489 37.1289 120.852 38.6441 120.361 40.2089C120.087 41.0422 119.848 41.8892 119.644 42.7498C119.388 43.8037 119.32 44.9533 118.461 45.7242C118.414 45.7618 118.365 45.7968 118.315 45.8292C119.082 48.1421 119.867 50.4504 120.598 52.777L121.79 56.6592C121.817 56.7367 121.845 56.8189 121.867 56.901C122.35 55.5368 122.927 54.2076 123.593 52.923C126.437 47.5149 130.857 43.0971 136.269 40.2545C139.146 38.7764 142.534 37.823 144.73 35.6287C145.733 34.6416 146.528 33.4644 147.068 32.1662C147.068 32.1023 147.233 31.71 147.224 31.751C147.278 31.6096 147.324 31.4637 147.37 31.3222C147.488 30.9573 147.584 30.5923 147.667 30.2182C147.749 29.8442 147.776 29.575 147.854 29.2602C147.854 28.69 147.817 28.1243 147.813 27.5586C147.785 25.5149 147.845 23.4529 147.881 21.4228C147.918 19.3927 147.986 17.4357 148.041 15.4422L148.068 14.4841C147.749 14.8263 147.466 15.1137 147.169 15.4102V15.3965ZM111.945 47.216C110.662 47.1476 109.379 47.0928 108.096 47.0426C106.813 46.9925 105.557 46.8419 104.246 46.8282C102.936 46.8146 101.68 46.8282 100.397 46.8282C95.7304 46.8647 91.0683 47.0381 86.4108 47.3483C82.3834 47.6175 78.4154 47.7725 74.5844 49.0818C71.4303 50.144 68.8187 52.3993 67.3104 55.3636C65.8629 58.046 65.219 61.1846 64.5021 64.2594C64.5021 64.3825 64.5021 64.4966 64.4747 64.6152C65.5798 65.669 66.5798 66.8505 67.6391 67.95C68.6985 69.0494 69.8035 70.126 70.8674 71.23C71.9314 72.334 72.9405 73.3787 73.9907 74.4234C74.6072 75.0392 75.2693 75.6277 75.8583 76.2482C76.2588 73.6354 77.1745 71.128 78.5524 68.8715C80.3867 65.9381 83.204 63.7507 86.5022 62.6992C89.977 61.5359 93.7807 61.3854 97.4108 61.1345C101.52 60.8486 105.63 60.6965 109.74 60.6783C110.759 60.6783 111.778 60.6783 112.794 60.6783C113.817 60.6783 114.822 60.587 115.845 60.6007C116.867 60.6144 117.977 60.6372 119.041 60.6691H119.374C118.954 59.6486 118.591 58.6054 118.288 57.5442C117.831 56.2669 117.406 54.985 116.968 53.7031C116.242 51.5863 115.566 49.4468 114.89 47.3163C113.907 47.333 112.924 47.2995 111.945 47.216ZM62.3514 67.3159C61.8948 67.4117 61.4382 67.4892 60.9816 67.5576C59.6391 67.7584 58.2921 67.9226 56.9587 68.2009C56.3149 68.3378 55.6756 68.4929 55.0455 68.6571L54.6483 68.7848C54.0237 69.0238 53.4138 69.2995 52.8218 69.6105C49.8538 71.1163 47.596 73.7258 46.5341 76.8777C45.2236 80.7052 45.0683 84.6695 44.7989 88.6931C44.4945 93.3433 44.321 98.001 44.2784 102.666C44.2784 103.948 44.2784 105.23 44.2784 106.512C44.2784 107.794 44.4473 109.062 44.493 110.358C44.5387 111.653 44.598 112.922 44.6665 114.203C44.7168 115.116 44.8537 116.056 44.8263 116.986C45.8035 117.269 46.7715 117.689 47.6939 117.985C49.0638 118.441 50.461 118.825 51.8446 119.24C53.2281 119.655 54.6163 120.034 56.0227 120.344C56.7305 120.499 57.4565 120.608 58.1688 120.745C58.1688 119.879 58.1231 119.012 58.1094 118.14C58.1094 117.114 58.1962 116.115 58.1871 115.093C58.1779 114.071 58.1871 113.058 58.1871 112.041C58.2114 107.926 58.3636 103.82 58.6437 99.7238C58.8948 96.1017 59.0455 92.297 60.2099 88.8299C61.2664 85.5357 63.4569 82.7219 66.3925 80.8877C68.5588 79.5644 70.9578 78.6664 73.461 78.2417C72.9633 77.8311 72.4839 77.3841 71.9907 76.9416C70.8126 75.8923 69.6498 74.8279 68.5021 73.7482C67.3834 72.699 66.3286 71.5813 65.2693 70.4727C64.3286 69.4463 63.283 68.4198 62.3606 67.3204L62.3514 67.3159ZM43.2099 120.691C42.4382 121.548 41.2875 121.603 40.2327 121.872C39.3742 122.076 38.5265 122.315 37.6893 122.588C36.1231 123.079 34.6065 123.716 33.1596 124.491C31.5895 125.292 30.0802 126.207 28.6436 127.228C27.317 128.193 26.0682 129.261 24.9085 130.421C24.283 131.046 23.6848 131.689 23.1094 132.36C22.6085 132.928 22.1376 133.522 21.6985 134.139C20.6621 135.57 19.7458 137.083 18.9587 138.665C17.1322 142.396 15.872 146.356 12.8537 149.376C12.7122 149.517 12.566 149.65 12.3971 149.782L16.4336 149.905L21.7624 150.06C23.1315 150.028 24.5001 150.142 25.8445 150.402C25.9313 150.352 26.0181 150.297 26.1049 150.256C26.1738 150.22 26.2456 150.19 26.3195 150.165C26.3893 150.13 26.461 150.098 26.5341 150.069C26.8948 149.964 27.283 149.932 27.6528 149.85C28.0227 149.768 28.388 149.668 28.7533 149.554L29.2099 149.408L29.6208 149.253C30.9216 148.713 32.1014 147.919 33.0912 146.917C35.2875 144.723 36.2372 141.338 37.7213 138.464C40.5642 133.055 44.9868 128.638 50.4017 125.8C51.9217 125.006 53.5056 124.341 55.1368 123.811L55.872 123.592L55.4838 123.533C53.9998 123.323 52.5295 123.04 51.0684 122.711C49.6072 122.383 48.1642 121.95 46.7305 121.512C46.0151 121.293 45.2997 121.069 44.5843 120.841C44.1779 120.713 43.7533 120.599 43.3377 120.453C43.3031 120.539 43.2634 120.623 43.219 120.704L43.2099 120.691ZM-0.488739 151.999C-0.492035 151.716 -0.439362 151.434 -0.333557 151.171C-0.227783 150.908 -0.0709534 150.669 0.127747 150.466C0.375946 150.243 0.655975 150.059 0.95871 149.919C1.04291 149.877 1.12991 149.84 1.21902 149.809C1.3017 149.766 1.38715 149.728 1.47476 149.695C1.93137 149.563 2.388 149.527 2.8446 149.431C3.30124 149.335 3.73499 149.212 4.17334 149.075C4.34686 149.02 4.52045 148.961 4.69394 148.897L5.18701 148.71C6.75314 148.061 8.17371 147.105 9.36517 145.9C12.009 143.254 13.1505 139.185 14.9359 135.722C18.3631 129.212 23.6898 123.897 30.2099 120.481C32.0428 119.53 33.9502 118.731 35.9131 118.09C36.8263 117.786 37.7609 117.528 38.7167 117.315L39.6985 117.087C39.6254 116.443 39.6163 115.786 39.5935 115.102C39.5569 113.822 39.5295 112.54 39.5113 111.256C39.5113 110.025 39.6162 108.816 39.6025 107.607C39.5889 106.398 39.6025 105.157 39.6025 103.957C39.633 99.0031 39.8187 94.0534 40.1597 89.1082C40.461 84.747 40.6483 80.1714 42.0455 75.9927C43.3113 72.0201 45.9472 68.6253 49.4838 66.4126C52.8483 64.3592 56.6633 63.1566 60.598 62.9091C60.8725 59.0407 62.0702 55.2942 64.0911 51.9832C66.3002 48.4541 69.6896 45.8212 73.6574 44.5518C77.8401 43.1513 82.42 42.9689 86.7853 42.6678C91.735 42.3271 96.6893 42.1416 101.648 42.1112C102.872 42.1112 104.1 42.1112 105.301 42.1112C106.502 42.1112 107.74 42.0017 108.954 42.02C110.169 42.0382 111.516 42.0656 112.799 42.1021C113.484 42.1021 114.141 42.134 114.785 42.207C114.858 41.8785 114.94 41.5455 115.014 41.2262C115.233 40.2819 115.47 39.3467 115.79 38.4251C116.431 36.4641 117.231 34.5585 118.183 32.7273C121.605 26.2161 126.926 20.8976 133.443 17.4768C136.909 15.6931 140.982 14.5526 143.63 11.9112C144.837 10.7209 145.793 9.30166 146.443 7.73701C146.47 7.65946 146.639 7.21691 146.63 7.24428C146.694 7.07093 146.753 6.89762 146.808 6.71971C146.945 6.28632 147.064 5.84386 147.164 5.39679C147.265 4.94972 147.301 4.48431 147.429 4.05093C147.475 3.91372 147.533 3.78096 147.603 3.6541C147.603 3.61761 147.635 3.58111 147.648 3.54005C147.796 3.20712 147.995 2.89928 148.237 2.62767C148.79 2.0118 150.064 1.7746 150.758 2.30379L150.79 2.32662C150.986 2.42055 151.162 2.55048 151.31 2.70975C151.37 2.77362 151.411 2.84213 151.461 2.90599C151.773 3.20356 152.004 3.5756 152.132 3.98711C152.265 4.44331 152.301 4.8995 152.402 5.35569C152.497 5.80256 152.616 6.24411 152.758 6.67861C152.813 6.85652 152.872 7.02994 152.931 7.2033C152.931 7.17593 153.096 7.61847 153.119 7.69602C153.772 9.26002 154.729 10.6788 155.936 11.8701C158.58 14.5115 162.657 15.652 166.119 17.4357C172.635 20.8565 177.957 26.175 181.379 32.6863C182.334 34.5157 183.134 36.4216 183.772 38.3841C184.076 39.2965 184.336 40.2302 184.552 41.1851C184.625 41.5045 184.708 41.8375 184.781 42.166C185.425 42.093 186.082 42.0838 186.767 42.061C188.046 42.0245 189.327 41.9972 190.612 41.9789C191.849 41.9789 193.055 42.0838 194.288 42.0701C195.52 42.0564 196.735 42.0701 197.94 42.0701C202.899 42.1036 207.854 42.2891 212.804 42.6267C217.169 42.9278 221.753 43.1102 225.936 44.5107C229.912 45.7754 233.31 48.4088 235.525 51.9422C237.576 55.3052 238.78 59.1156 239.032 63.0459C242.903 63.3194 246.651 64.5161 249.963 66.5358C253.501 68.747 256.138 72.1424 257.402 76.1158C258.804 80.2946 258.986 84.8702 259.292 89.2314C259.633 94.1765 259.817 99.1263 259.845 104.081C259.845 105.303 259.845 106.53 259.845 107.73C259.845 108.93 259.954 110.166 259.936 111.38C259.918 112.593 259.89 113.943 259.849 115.225C259.849 115.91 259.817 116.567 259.744 117.21L260.73 117.438C261.676 117.652 262.612 117.894 263.53 118.213C265.493 118.853 267.401 119.652 269.233 120.604C275.764 124.003 281.105 129.306 284.548 135.809C286.333 139.271 287.479 143.34 290.123 145.986C291.313 147.192 292.732 148.147 294.297 148.797L294.794 148.984L295.315 149.162C295.753 149.298 296.196 149.417 296.644 149.517C297.1 149.613 297.557 149.65 297.986 149.782C298.075 149.814 298.162 149.853 298.246 149.896C298.334 149.927 298.42 149.963 298.502 150.005C298.804 150.147 299.084 150.331 299.333 150.553C299.532 150.755 299.689 150.995 299.794 151.258C299.899 151.521 299.95 151.802 299.945 152.086C299.95 152.369 299.899 152.651 299.794 152.914C299.689 153.177 299.532 153.417 299.333 153.619C299.085 153.841 298.805 154.025 298.502 154.166C298.419 154.209 298.334 154.247 298.246 154.28C298.162 154.322 298.075 154.359 297.986 154.39C297.53 154.522 297.073 154.558 296.644 154.654C296.214 154.75 295.73 154.873 295.315 155.01L294.794 155.188L294.297 155.375C292.731 156.024 291.312 156.981 290.123 158.19C287.479 160.831 286.333 164.9 284.548 168.363C281.125 174.874 275.801 180.191 269.283 183.609C267.451 184.56 265.543 185.36 263.58 185.999C262.667 186.3 261.726 186.56 260.781 186.775C260.456 186.852 260.128 186.934 259.794 187.003C259.867 187.646 259.881 188.303 259.899 188.987C259.939 190.268 259.968 191.549 259.986 192.833C259.986 194.065 259.881 195.274 259.895 196.482C259.909 197.691 259.895 198.932 259.895 200.132C259.867 205.086 259.683 210.036 259.342 214.981C259.036 219.342 258.854 223.923 257.452 228.097C256.186 232.069 253.55 235.464 250.014 237.677C246.648 239.728 242.834 240.929 238.899 241.176C238.63 245.052 237.434 248.806 235.411 252.124C233.202 255.653 229.812 258.286 225.845 259.556C221.662 260.956 217.078 261.139 212.712 261.44C207.765 261.783 202.811 261.969 197.849 261.996C196.625 261.996 195.402 261.996 194.196 261.996C192.991 261.996 191.758 262.106 190.543 262.092C189.329 262.079 187.977 262.042 186.698 262.005C186.014 262.005 185.356 261.974 184.712 261.901C184.639 262.234 184.557 262.562 184.484 262.886C184.265 263.832 184.004 264.764 183.703 265.682C183.066 267.645 182.265 269.551 181.31 271.38C177.889 277.89 172.569 283.208 166.055 286.631C162.589 288.415 158.511 289.555 155.867 292.201C154.661 293.39 153.705 294.807 153.055 296.371C153.027 296.448 152.854 296.891 152.863 296.868C152.804 297.037 152.744 297.21 152.689 297.388C152.548 297.822 152.429 298.264 152.333 298.711C152.233 299.167 152.196 299.623 152.064 300.057C152.021 300.194 151.965 300.327 151.895 300.453C151.881 300.493 151.864 300.531 151.845 300.568C151.698 300.902 151.498 301.21 151.251 301.48C150.703 302.096 149.424 302.333 148.735 301.808L148.703 301.781C148.505 301.689 148.326 301.559 148.178 301.398C148.123 301.334 148.082 301.27 148.032 301.202C147.716 300.906 147.483 300.534 147.356 300.12C147.228 299.664 147.192 299.208 147.091 298.752C146.991 298.296 146.872 297.862 146.735 297.429C146.68 297.249 146.621 297.076 146.557 296.909C146.557 296.909 146.397 296.489 146.37 296.412C145.72 294.848 144.763 293.431 143.557 292.242C140.909 289.596 136.836 288.456 133.37 286.672C126.853 283.251 121.532 277.933 118.109 271.421C117.158 269.59 116.358 267.685 115.717 265.723C115.415 264.811 115.16 263.867 114.941 262.927C114.867 262.603 114.785 262.275 114.712 261.942C114.068 262.015 113.411 262.024 112.726 262.047C111.443 262.083 110.16 262.115 108.881 262.133C107.603 262.151 106.434 262.028 105.205 262.037C103.977 262.047 102.753 262.037 101.552 262.037C96.5935 262.01 91.6391 261.825 86.6893 261.481C82.324 261.18 77.7441 260.997 73.5615 259.597C69.5852 258.332 66.1872 255.699 63.9724 252.165C61.9171 248.804 60.7134 244.993 60.4656 241.062C56.594 240.789 52.844 239.594 49.5295 237.576C45.9934 235.363 43.3577 231.968 42.0912 227.996C40.6939 223.822 40.5067 219.242 40.2053 214.881C39.8613 209.942 39.6757 204.992 39.6483 200.032C39.6483 198.809 39.6483 197.586 39.6483 196.382C39.6483 195.178 39.5386 193.946 39.5569 192.733C39.5752 191.519 39.6026 190.169 39.6391 188.887C39.6391 188.203 39.6711 187.546 39.7441 186.902C39.4154 186.834 39.082 186.752 38.7624 186.674C37.8187 186.461 36.8842 186.203 35.9587 185.899C33.9958 185.258 32.0885 184.458 30.2555 183.508C23.7382 180.089 18.4148 174.773 14.9907 168.262C13.2053 164.804 12.0638 160.731 9.41992 158.089C8.22989 156.881 6.80914 155.924 5.24188 155.275C5.16425 155.275 4.72128 155.078 4.74869 155.087L4.22818 154.91C3.78983 154.773 3.34683 154.654 2.89935 154.554C2.44272 154.458 1.98611 154.421 1.52948 154.289C1.44199 154.258 1.35654 154.222 1.27374 154.18C1.18649 154.146 1.10123 154.108 1.01813 154.066C0.714447 153.927 0.434082 153.742 0.187042 153.518C-0.0116272 153.316 -0.168365 153.076 -0.274139 152.813C-0.379944 152.55 -0.432739 152.269 -0.429443 151.985V151.94L-0.488739 151.999Z" fill="white"/>
</mask>
<g mask="url(#mask0_15_3497)">
<path d="M-0.479523 1.74707H299.95V302.406H-0.479523V1.74707Z" fill="url(#paint0_linear_15_3497)"/>
</g>
<mask id="mask1_15_3497" style="mask-type:luminance" maskUnits="userSpaceOnUse" x="122" y="23" width="23" height="25">
<path d="M141.913 24.1645C138.936 22.0113 135.635 25.0405 134.945 27.9692C134.589 29.4975 135.032 31.3587 136.772 31.7647C138.091 32.0749 139.813 31.2721 140.041 29.8396C140.091 29.6369 140.073 29.4237 139.99 29.2319C139.908 29.0402 139.766 28.8805 139.584 28.7766L139.379 28.6763C139.229 28.5928 139.059 28.5531 138.888 28.5617C138.717 28.5703 138.552 28.6269 138.411 28.725C138.27 28.823 138.16 28.9585 138.093 29.1161C138.026 29.2737 138.005 29.447 138.032 29.6161C137.917 29.7637 137.754 29.8658 137.57 29.9043C137.387 29.9427 137.196 29.9149 137.032 29.8259C136.274 29.315 136.977 27.805 137.278 27.2393C137.781 26.3041 138.594 25.3735 139.74 25.3461C140.886 25.3187 141.626 26.3543 141.986 27.2712C142.826 29.4017 141.831 31.7921 140.411 33.4298C139.103 34.9216 137.377 35.9865 135.457 36.4863C134.415 36.7651 133.337 36.8775 132.26 36.8193C131.458 36.7182 130.66 36.5766 129.872 36.3951C129.701 36.1099 129.494 35.8477 129.256 35.615C127.927 34.3513 126.018 34.4973 124.653 35.615C123.05 36.9425 122.475 39.3832 122.201 41.3539C122.047 42.4128 122.047 43.4884 122.201 44.5473C122.352 45.5646 122.658 46.6184 123.493 47.2844C123.561 47.3197 123.637 47.3374 123.713 47.3357C123.79 47.3341 123.865 47.3132 123.931 47.275C123.998 47.2369 124.053 47.1826 124.093 47.1173C124.133 47.052 124.156 46.9777 124.16 46.9013C124.132 45.9889 123.749 45.0765 123.653 44.1641C123.562 43.2315 123.598 42.2908 123.758 41.3676C124.027 39.7253 124.507 37.3257 126.132 36.4818C127.63 35.7017 128.872 37.0885 128.982 38.5209C129.05 39.2554 128.868 40.2773 128.105 40.5966C127.978 40.664 127.834 40.6904 127.692 40.6725C127.55 40.6545 127.416 40.593 127.31 40.4963C127.123 40.2682 127.192 39.8941 127.119 39.6249C126.904 38.8585 126.059 39.0228 125.749 39.6249C125.617 39.9821 125.598 40.3709 125.693 40.7394C125.789 41.1078 125.995 41.4384 126.283 41.6869C126.619 41.9725 127.031 42.1547 127.469 42.2113C127.906 42.268 128.351 42.1968 128.749 42.0063C129.146 41.8207 129.497 41.5513 129.78 41.2165C130.062 40.8818 130.268 40.4896 130.384 40.0674C130.591 39.3668 130.624 38.6259 130.479 37.9096C131.098 38.0467 131.728 38.1322 132.361 38.1651C133.724 38.2491 135.092 38.0947 136.402 37.7089C139.109 36.9599 141.433 35.2142 142.904 32.8231C144.507 30.0859 144.703 26.1445 141.89 24.1144" fill="white"/>
</mask>
<g mask="url(#mask1_15_3497)">
<path d="M122.064 22.0112H144.726V47.5079H122.064V22.0112Z" fill="url(#paint1_linear_15_3497)"/>
</g>
<mask id="mask2_15_3497" style="mask-type:luminance" maskUnits="userSpaceOnUse" x="71" y="48" width="42" height="21">
<path d="M111.132 51.4086C110.123 50.3503 108.963 49.3284 107.479 49.0319C104.849 48.5027 101.69 49.4881 99.3334 50.6468C98.3016 51.1432 97.3429 51.7787 96.4841 52.5355C96.5677 51.5659 96.3093 50.5976 95.7535 49.7983C94.6804 48.2655 92.3425 47.6679 90.8813 49.0547C90.5769 49.3558 90.3451 49.7222 90.2035 50.1261C90.0619 50.53 90.0141 50.9608 90.0639 51.3859C90.1553 52.1751 90.7626 53.238 91.7215 52.9506C92.6804 52.6632 92.0822 51.7462 92.0548 51.1258C92.0274 50.4187 92.7534 50.2135 93.3242 50.3777C95.3425 51.0027 94.411 53.9588 93.7215 55.1951C93.2732 56.146 92.5035 56.9084 91.548 57.3483C90.4566 57.768 89.2146 57.7771 88.0639 57.8045C86.8894 57.8803 85.7106 57.7522 84.5799 57.4259C84.1048 57.2692 83.6556 57.0432 83.2466 56.7553C82.9179 56.5272 82.6484 56.217 82.3334 55.9661C82.1885 55.2772 81.9041 54.6251 81.4977 54.05C79.7626 51.7189 76.4749 52.2253 74.516 53.9086C72.5571 55.592 71.5251 58.0964 71.2923 60.5918C71.1644 61.9747 71.3071 63.3691 71.7124 64.6976C71.9272 65.3927 72.2102 66.0651 72.5571 66.7048C72.9092 67.3163 73.3984 67.8379 73.9863 68.2285C74.5297 68.6346 75.0411 67.8818 74.8219 67.3982C74.1187 65.8563 73.3242 64.3645 73.1325 62.6447C72.9275 60.9554 73.1996 59.2425 73.9178 57.6996C74.653 56.1896 75.9818 54.5062 77.7763 54.2964C78.1802 54.2343 78.5932 54.2736 78.9782 54.4105C79.3631 54.5475 79.708 54.7779 79.9818 55.081C80.484 55.8343 80.7024 56.7412 80.5982 57.6403C80.548 58.361 80.2055 59.3418 79.3151 59.278C78.9316 59.2552 78.8037 59.0226 78.8311 58.6485C78.8767 58.0509 79.2283 57.6266 78.8311 57.0518C78.7459 56.9176 78.6209 56.8133 78.4736 56.7536C78.3262 56.6939 78.1638 56.6817 78.0092 56.7187C76.6393 56.9833 76.7123 59.3008 77.3333 60.1904C78.0502 61.2168 79.4658 61.3719 80.5297 60.8883C81.7717 60.3364 82.3562 59.0636 82.4338 57.695C83.2723 58.3201 84.2367 58.756 85.2603 58.9724C86.2897 59.1655 87.3366 59.2495 88.3836 59.2232C89.4161 59.2632 90.4499 59.1883 91.4658 58.9997C93.2238 58.5937 94.5114 57.3437 95.3653 55.8063C95.5555 55.6315 95.7269 55.4374 95.8768 55.227C96.2219 54.8078 96.599 54.4158 97.0046 54.0546C97.8443 53.316 98.793 52.7113 99.8174 52.2618C100.927 51.7612 102.085 51.376 103.274 51.1122C104.484 50.8339 105.827 50.5601 107.059 50.8612C108.292 51.1623 109.343 52.28 110.018 53.2654C110.326 53.6868 110.491 54.1947 110.491 54.716C110.491 55.2374 110.326 55.7454 110.018 56.1668C109.688 56.5755 109.233 56.8646 108.722 56.9899C108.212 57.1151 107.674 57.0696 107.192 56.8602C106.781 56.6823 106.228 56.258 106.196 55.7562C106.155 55.081 106.9 55.1859 107.311 54.8985C107.494 54.7801 107.637 54.6077 107.718 54.4052C107.8 54.2026 107.817 53.9798 107.767 53.7672C107.767 53.7261 107.767 53.6851 107.767 53.644C107.729 53.5116 107.661 53.3897 107.568 53.2873C107.476 53.185 107.361 53.1049 107.233 53.0531C107.105 53.0013 106.968 52.9791 106.83 52.9882C106.692 52.9973 106.558 53.0375 106.438 53.1057C106.215 53.2289 105.858 53.1969 105.603 53.311C105.328 53.4341 105.079 53.6074 104.868 53.8219C104.375 54.3443 104.108 55.0389 104.123 55.7562C104.169 57.2023 105.315 58.3747 106.621 58.8537C107.251 59.0817 107.925 59.1633 108.592 59.0926C109.259 59.0218 109.901 58.8006 110.469 58.4454C111.037 58.0903 111.517 57.6106 111.873 57.0428C112.228 56.4749 112.45 55.8337 112.521 55.1677C112.577 54.4726 112.478 53.7736 112.23 53.1217C111.982 52.4698 111.591 51.8814 111.087 51.3996" fill="white"/>
</mask>
<g mask="url(#mask2_15_3497)">
<path d="M71.1827 47.6494H112.721V68.6161H71.1827V47.6494Z" fill="url(#paint2_linear_15_3497)"/>
</g>
<mask id="mask3_15_3497" style="mask-type:luminance" maskUnits="userSpaceOnUse" x="46" y="70" width="18" height="47">
<path d="M63.589 74.0769C63.3642 72.9824 62.727 72.016 61.8091 71.3775C60.8913 70.7391 59.7631 70.4773 58.6576 70.6464C57.5516 70.8356 56.5571 71.4329 55.8712 72.3201C55.1853 73.2073 54.8581 74.3195 54.9543 75.4364C54.9959 76.0117 55.2067 76.5618 55.56 77.0179C55.9134 77.474 56.3937 77.8157 56.9407 78.0002C57.2193 78.1041 57.5196 78.1363 57.814 78.0941C58.1084 78.0518 58.3874 77.9364 58.6256 77.7584C58.837 77.5923 58.9784 77.3528 59.0215 77.0875C59.0646 76.8222 59.0064 76.5505 58.8584 76.326C58.7139 76.1339 58.5126 75.9919 58.2831 75.92C58.0639 75.8379 57.7808 75.9199 57.5845 75.8196C57.2237 75.669 57.1689 75.1855 57.2055 74.8388C57.2582 74.409 57.4309 74.0027 57.7038 73.6663C57.9768 73.3299 58.3389 73.077 58.7489 72.9365C59.181 72.8118 59.6405 72.819 60.0685 72.9572C60.4965 73.0954 60.8734 73.3582 61.1507 73.712C61.8813 74.6472 61.79 75.8105 61.5617 76.9053C61.0523 79.1673 59.8883 81.2297 58.2146 82.8358C57.4058 83.6446 56.492 84.3412 55.4977 84.907C54.9619 85.2024 54.4084 85.4644 53.8402 85.6916C53.3836 85.8832 52.8128 86.0064 52.5068 86.4443C51.1735 86.9005 50.137 88.1505 49.484 89.4917C48.9069 90.6169 48.5153 91.8276 48.3242 93.0774C48.1894 94.395 48.3134 95.7261 48.6895 96.9961C48.9679 98.2879 49.4179 99.5368 50.0274 100.71C49.1383 100.901 48.3395 101.386 47.7596 102.086C47.1798 102.786 46.8527 103.66 46.8311 104.569C46.8192 105.229 47.0156 105.877 47.3926 106.42C47.7696 106.963 48.308 107.373 48.9315 107.593C50.0594 107.963 51.8493 107.594 51.6393 106.093C51.6081 105.984 51.5498 105.885 51.47 105.806C51.3901 105.726 51.2912 105.668 51.1827 105.636C50.5662 105.408 49.7123 105.906 49.2329 105.303C48.7534 104.701 49.1233 103.684 49.6895 103.237C51.2923 101.946 52.8859 103.52 53.4018 105.062C53.7453 106.094 53.8743 107.186 53.7809 108.27C53.6874 109.354 53.3735 110.408 52.8584 111.366C52.4031 112.261 51.7835 113.063 51.032 113.729C50.1918 114.354 49.2907 114.891 48.3424 115.335C47.9087 115.581 48.0685 116.412 48.6165 116.339C50.7626 116.065 52.8036 114.35 54.0502 112.689C54.7916 111.634 55.3161 110.442 55.5936 109.183C55.871 107.924 55.8959 106.622 55.6667 105.354C55.3653 103.761 54.5251 102.16 53.1781 101.284V101.252C52.5754 100.717 52.0662 100.085 51.6712 99.382C51.3399 98.6588 51.0784 97.9058 50.8904 97.133C50.546 96.0875 50.3673 94.9946 50.3607 93.894C50.435 92.8144 50.7221 91.7602 51.2055 90.7919C51.8173 89.4689 53.3242 87.2655 54.968 88.7801C55.2198 89.0221 55.3935 89.3339 55.4667 89.6753C55.54 90.0167 55.5094 90.3722 55.379 90.6961C55.0457 91.4579 54.4658 91.0382 53.8402 91.1523C53.7844 91.121 53.7186 91.113 53.657 91.1301C53.5954 91.1472 53.5431 91.188 53.5114 91.2435C53.2968 91.6495 53.1187 91.8639 53.2785 92.3566C53.3908 92.6536 53.5896 92.9102 53.8492 93.0931C54.1089 93.2761 54.4175 93.377 54.7351 93.383C55.8721 93.456 56.8356 92.6212 57.274 91.6313C57.6403 90.7522 57.672 89.7697 57.3633 88.8689C57.0546 87.9681 56.4268 87.2112 55.5982 86.7409C56.5305 86.3418 57.4169 85.8431 58.242 85.2537C59.9455 84.0274 61.34 82.4218 62.3151 80.564C63.3471 78.6069 64.0411 76.2986 63.6621 74.0861" fill="white"/>
</mask>
<g mask="url(#mask3_15_3497)">
<path d="M46.8083 70.3086H63.9681V116.411H46.8083V70.3086Z" fill="url(#paint3_linear_15_3497)"/>
</g>
<mask id="mask4_15_3497" style="mask-type:luminance" maskUnits="userSpaceOnUse" x="20" y="124" width="23" height="24">
<path d="M40.9497 124.796C39.1507 123.67 37.0684 124.837 35.6164 125.996C34.0528 127.249 32.8088 128.855 31.9863 130.681C31.6138 131.518 31.335 132.393 31.1552 133.291C29.4292 131.922 26.4931 131.854 25.2511 133.916C24.9693 134.403 24.8081 134.95 24.7811 135.512C24.7541 136.074 24.862 136.634 25.0959 137.146C25.5936 138.227 27.105 139.358 28.0411 138.108C28.4657 137.538 27.9543 136.899 27.3972 136.74C27.2051 136.616 27.0489 136.444 26.9443 136.241C26.8396 136.038 26.7901 135.811 26.8007 135.583C26.8114 135.354 26.8818 135.133 27.0049 134.941C27.128 134.748 27.2995 134.591 27.5022 134.486C28.9269 133.783 30.3333 134.965 30.8584 136.233C32.2283 139.513 29.9452 143.263 26.9817 144.714C26.0291 145.144 25.0323 145.468 24.0091 145.681C23.073 145.905 21.9223 145.955 21.1141 146.52C21.0625 146.553 21.0215 146.6 20.9957 146.655C20.9699 146.711 20.9606 146.772 20.9688 146.833C20.977 146.893 21.0023 146.95 21.0418 146.996C21.0813 147.043 21.1333 147.077 21.1917 147.095C22.2557 147.506 23.7169 147.177 24.8036 146.986C26.0706 146.762 27.3001 146.363 28.4566 145.8C29.5456 145.244 30.5038 144.463 31.2674 143.509C32.0311 142.555 32.5828 141.45 32.8858 140.266C33.3875 138.462 33.2255 136.537 32.4292 134.842C32.4611 134.65 32.4931 134.459 32.5296 134.272C32.7081 133.381 32.9869 132.513 33.3607 131.685C34.0976 129.922 35.2925 128.388 36.8219 127.242C37.8949 126.489 40.1278 125.28 40.6666 127.292C40.7404 127.545 40.7253 127.815 40.624 128.058C40.5227 128.301 40.3411 128.503 40.1096 128.628C39.4657 129.034 38.9452 128.747 38.2831 128.733C38.1084 128.74 37.9392 128.797 37.7956 128.896C37.6521 128.996 37.5403 129.135 37.4735 129.296C37.4066 129.458 37.3876 129.635 37.4186 129.807C37.4496 129.979 37.5294 130.138 37.6484 130.266C38.2466 130.9 39.3287 130.9 40.1187 130.69C40.9119 130.48 41.6065 129.999 42.0822 129.331C43.1141 127.821 42.4063 125.745 40.9315 124.819" fill="white"/>
</mask>
<g mask="url(#mask4_15_3497)">
<path d="M20.8858 123.67H43.1324V147.52H20.8858V123.67Z" fill="url(#paint4_linear_15_3497)"/>
</g>
<mask id="mask5_15_3497" style="mask-type:luminance" maskUnits="userSpaceOnUse" x="122" y="257" width="23" height="25">
<path d="M141.913 280.395C138.936 282.544 135.635 279.519 134.945 276.586C134.589 275.062 135.032 273.201 136.772 272.795C138.091 272.484 139.813 273.283 140.041 274.715C140.091 274.919 140.073 275.133 139.991 275.325C139.909 275.518 139.766 275.678 139.584 275.783L139.379 275.879C139.231 275.96 139.064 275.999 138.896 275.991C138.728 275.983 138.565 275.929 138.426 275.835C138.286 275.74 138.176 275.609 138.106 275.456C138.037 275.303 138.011 275.133 138.032 274.966C137.917 274.819 137.754 274.716 137.57 274.678C137.387 274.64 137.196 274.667 137.032 274.756C136.274 275.263 136.977 276.777 137.279 277.343C137.781 278.255 138.594 279.209 139.74 279.236C140.886 279.264 141.626 278.228 141.986 277.311C142.826 275.176 141.831 272.79 140.411 271.148C139.101 269.659 137.376 268.595 135.457 268.091C134.415 267.815 133.337 267.702 132.26 267.758C131.461 267.799 130.667 268.069 129.872 268.183C129.712 268.453 129.519 268.703 129.297 268.926C127.968 270.194 126.059 270.048 124.694 268.926C123.091 267.594 122.516 265.153 122.242 263.183C122.088 262.124 122.088 261.048 122.242 259.989C122.393 258.972 122.699 257.914 123.534 257.252C123.602 257.217 123.677 257.199 123.754 257.201C123.83 257.202 123.904 257.223 123.971 257.26C124.037 257.298 124.093 257.352 124.133 257.416C124.173 257.481 124.197 257.555 124.201 257.631C124.173 258.543 123.79 259.456 123.694 260.368C123.603 261.301 123.639 262.241 123.799 263.164C124.068 264.807 124.548 267.206 126.174 268.055C127.671 268.835 128.913 267.448 129.023 266.016C129.091 265.281 128.909 264.259 128.146 263.94C128.02 263.873 127.875 263.846 127.733 263.864C127.591 263.882 127.457 263.944 127.352 264.04C127.164 264.264 127.233 264.643 127.16 264.907C126.945 265.678 126.1 265.514 125.79 264.907C125.658 264.549 125.639 264.16 125.734 263.791C125.829 263.421 126.035 263.09 126.324 262.841C126.661 262.556 127.073 262.374 127.51 262.319C127.948 262.263 128.392 262.335 128.79 262.526C129.187 262.71 129.538 262.979 129.821 263.313C130.103 263.647 130.309 264.038 130.425 264.46C130.632 265.162 130.665 265.905 130.521 266.622C131.139 266.483 131.769 266.398 132.402 266.367C133.765 266.281 135.133 266.435 136.443 266.823C139.15 267.57 141.474 269.314 142.945 271.704C144.548 274.442 144.744 278.383 141.932 280.418" fill="white"/>
</mask>
<g mask="url(#mask5_15_3497)">
<path d="M122.064 257.047H144.726V282.544H122.064V257.047Z" fill="url(#paint5_linear_15_3497)"/>
</g>
<mask id="mask6_15_3497" style="mask-type:luminance" maskUnits="userSpaceOnUse" x="71" y="236" width="42" height="21">
<path d="M111.132 253.146C110.123 254.205 108.963 255.231 107.479 255.527C104.849 256.052 101.69 255.071 99.3334 253.908C98.3016 253.412 97.3429 252.776 96.4841 252.019C96.5662 252.989 96.3079 253.957 95.7535 254.756C94.6804 256.285 92.3425 256.882 90.8813 255.5C90.5772 255.199 90.3456 254.832 90.204 254.429C90.0624 254.025 90.0145 253.594 90.0639 253.169C90.1553 252.375 90.7626 251.312 91.7215 251.6C92.6804 251.887 92.0822 252.804 92.0548 253.424C92.0274 254.127 92.7534 254.337 93.3242 254.168C95.3425 253.543 94.411 250.587 93.7215 249.351C93.2716 248.401 92.5024 247.639 91.548 247.197C90.4566 246.778 89.2146 246.769 88.0639 246.741C86.8895 246.668 85.7111 246.796 84.5799 247.12C84.1039 247.276 83.6544 247.504 83.2466 247.795C82.9178 248.023 82.6484 248.333 82.3334 248.58C82.1885 249.269 81.9041 249.921 81.4977 250.496C79.7626 252.827 76.4749 252.32 74.516 250.637C72.5571 248.954 71.5251 246.449 71.2923 243.954C71.1647 242.571 71.3074 241.177 71.7124 239.848C71.9272 239.154 72.2102 238.484 72.5571 237.845C72.9086 237.232 73.3979 236.709 73.9863 236.317C74.5297 235.911 75.0411 236.664 74.8219 237.147C74.1187 238.689 73.3242 240.181 73.1325 241.906C72.9284 243.593 73.2004 245.304 73.9178 246.846C74.653 248.356 75.9818 250.039 77.7763 250.249C78.1799 250.313 78.593 250.275 78.9782 250.139C79.3633 250.003 79.7083 249.773 79.9818 249.469C80.484 248.714 80.7023 247.806 80.5982 246.905C80.548 246.185 80.2055 245.208 79.3151 245.268C78.9316 245.295 78.8037 245.528 78.8311 245.902C78.8767 246.495 79.2283 246.919 78.8311 247.494C78.7464 247.629 78.6215 247.733 78.4739 247.793C78.3264 247.853 78.1638 247.865 78.0092 247.827C76.6393 247.562 76.7123 245.245 77.3333 244.355C78.0502 243.333 79.4658 243.174 80.5297 243.657C81.7717 244.209 82.3562 245.482 82.4338 246.851C83.2713 246.224 84.2361 245.788 85.2603 245.573C86.2895 245.379 87.3364 245.293 88.3836 245.318C89.4161 245.278 90.4499 245.353 91.4658 245.541C93.2238 245.952 94.5114 247.197 95.3653 248.735C95.5533 248.912 95.7246 249.106 95.8768 249.314C96.2207 249.734 96.5979 250.126 97.0046 250.486C97.8443 251.225 98.793 251.83 99.8174 252.279C100.928 252.779 102.086 253.166 103.274 253.434C104.484 253.707 105.827 253.981 107.059 253.684C108.292 253.388 109.343 252.261 110.018 251.28C110.326 250.859 110.491 250.351 110.491 249.83C110.491 249.308 110.326 248.8 110.018 248.379C109.689 247.969 109.234 247.679 108.723 247.553C108.212 247.427 107.674 247.472 107.192 247.681C106.781 247.859 106.228 248.288 106.196 248.785C106.155 249.46 106.9 249.355 107.311 249.643C107.494 249.761 107.636 249.934 107.717 250.136C107.799 250.339 107.816 250.561 107.767 250.774C107.767 250.815 107.767 250.856 107.767 250.897C107.729 251.03 107.662 251.152 107.569 251.255C107.477 251.358 107.363 251.439 107.235 251.491C107.107 251.543 106.969 251.566 106.831 251.557C106.693 251.548 106.559 251.508 106.438 251.44C106.215 251.317 105.858 251.344 105.603 251.23C105.327 251.109 105.077 250.935 104.868 250.719C104.375 250.197 104.108 249.502 104.123 248.785C104.169 247.339 105.315 246.166 106.621 245.692C107.251 245.464 107.925 245.382 108.592 245.453C109.259 245.524 109.901 245.745 110.469 246.1C111.037 246.455 111.517 246.935 111.873 247.503C112.228 248.071 112.45 248.712 112.521 249.378C112.577 250.072 112.478 250.771 112.23 251.422C111.981 252.073 111.591 252.66 111.087 253.142" fill="white"/>
</mask>
<g mask="url(#mask6_15_3497)">
<path d="M71.1827 235.938H112.721V256.905H71.1827V235.938Z" fill="url(#paint6_linear_15_3497)"/>
</g>
<mask id="mask7_15_3497" style="mask-type:luminance" maskUnits="userSpaceOnUse" x="46" y="188" width="18" height="46">
<path d="M63.589 230.478C63.3642 231.572 62.727 232.539 61.8091 233.177C60.8913 233.816 59.7631 234.078 58.6576 233.909C57.5524 233.719 56.5586 233.123 55.8728 232.237C55.1871 231.35 54.8593 230.239 54.9543 229.123C54.9951 228.547 55.2054 227.996 55.5588 227.539C55.9122 227.082 56.393 226.739 56.9407 226.555C57.2195 226.452 57.5196 226.42 57.8138 226.462C58.1081 226.504 58.3871 226.619 58.6256 226.796C58.8374 226.963 58.9788 227.204 59.0219 227.47C59.065 227.736 59.0067 228.008 58.8584 228.234C58.7124 228.424 58.5117 228.566 58.2831 228.639C58.0639 228.717 57.7808 228.64 57.5845 228.735C57.2237 228.886 57.1689 229.369 57.2055 229.721C57.2559 230.151 57.4278 230.558 57.7011 230.894C57.9744 231.23 58.3378 231.481 58.7489 231.618C59.181 231.743 59.6405 231.736 60.0685 231.598C60.4965 231.46 60.8734 231.197 61.1507 230.843C61.8813 229.931 61.79 228.744 61.5617 227.65C61.0523 225.388 59.8883 223.325 58.2146 221.719C57.4058 220.91 56.492 220.214 55.4977 219.648C54.9628 219.352 54.4091 219.092 53.8402 218.868C53.3836 218.672 52.8128 218.549 52.5068 218.115C51.1735 217.659 50.137 216.404 49.484 215.063C48.9062 213.938 48.5145 212.727 48.3242 211.477C48.1894 210.16 48.3134 208.829 48.6895 207.559C48.9694 206.267 49.4193 205.019 50.0274 203.845C49.1375 203.656 48.3378 203.171 47.7577 202.471C47.1776 201.77 46.8511 200.895 46.8311 199.986C46.8192 199.325 47.0156 198.678 47.3926 198.135C47.7696 197.592 48.308 197.182 48.9315 196.961C50.0594 196.592 51.8493 196.961 51.6393 198.462C51.607 198.57 51.5483 198.668 51.4686 198.748C51.3889 198.828 51.2907 198.886 51.1827 198.919C50.5662 199.142 49.7123 198.645 49.2329 199.252C48.7534 199.858 49.1233 200.871 49.6895 201.314C51.2923 202.605 52.8859 201.031 53.4018 199.489C53.7454 198.455 53.8745 197.363 53.781 196.278C53.6876 195.193 53.3737 194.139 52.8584 193.18C52.4019 192.285 51.7825 191.484 51.032 190.817C50.1918 190.192 49.2907 189.654 48.3424 189.211C47.9087 188.969 48.0685 188.139 48.6165 188.207C50.7626 188.485 52.8036 190.196 54.0502 191.857C54.7913 192.912 55.3158 194.104 55.5933 195.363C55.8707 196.622 55.8956 197.923 55.6667 199.192C55.3653 200.784 54.5251 202.386 53.1781 203.266V203.298C52.5745 203.831 52.0651 204.462 51.6712 205.164C51.3406 205.887 51.0792 206.64 50.8904 207.413C50.5467 208.459 50.368 209.551 50.3607 210.652C50.435 211.731 50.7221 212.786 51.2055 213.754C51.8173 215.081 53.3242 217.285 54.968 215.77C55.2198 215.528 55.3935 215.216 55.4667 214.875C55.54 214.534 55.5094 214.178 55.379 213.854C55.0457 213.088 54.4658 213.508 53.8402 213.398C53.7836 213.428 53.7178 213.434 53.6565 213.417C53.5951 213.399 53.5431 213.358 53.5114 213.302C53.2968 212.901 53.1187 212.682 53.2785 212.194C53.3906 211.896 53.5892 211.639 53.8488 211.455C54.1084 211.272 54.4171 211.17 54.7351 211.163C55.8721 211.094 56.8356 211.929 57.274 212.915C57.6403 213.794 57.672 214.776 57.3633 215.677C57.0546 216.578 56.4268 217.335 55.5982 217.805C56.5296 218.206 57.4159 218.704 58.242 219.292C59.9456 220.52 61.3401 222.127 62.3151 223.986C63.3471 225.939 64.0411 228.252 63.6621 230.46" fill="white"/>
</mask>
<g mask="url(#mask7_15_3497)">
<path d="M46.8083 188.148H63.9681V234.251H46.8083V188.148Z" fill="url(#paint7_linear_15_3497)"/>
</g>
<mask id="mask8_15_3497" style="mask-type:luminance" maskUnits="userSpaceOnUse" x="20" y="157" width="23" height="24">
<path d="M40.9498 179.759C39.1507 180.885 37.0685 179.722 35.6164 178.563C34.0526 177.309 32.8086 175.701 31.9863 173.874C31.6138 173.037 31.3351 172.162 31.1552 171.264C29.4292 172.633 26.4931 172.701 25.2511 170.644C24.9696 170.157 24.8087 169.61 24.7817 169.048C24.7547 168.486 24.8624 167.926 25.0959 167.414C25.5936 166.328 27.105 165.197 28.0411 166.451C28.4657 167.017 27.9543 167.656 27.3972 167.82C27.2052 167.944 27.049 168.116 26.9443 168.319C26.8396 168.522 26.7901 168.749 26.8008 168.977C26.8114 169.205 26.8818 169.427 27.0049 169.619C27.128 169.811 27.2995 169.968 27.5022 170.074C28.9269 170.776 30.3333 169.617 30.8585 168.331C32.2283 165.046 29.9452 161.296 26.9817 159.846C26.0298 159.415 25.0328 159.093 24.0091 158.883C23.0731 158.655 21.9223 158.605 21.1141 158.039C21.0626 158.007 21.0215 157.96 20.9957 157.904C20.97 157.849 20.9606 157.787 20.9688 157.727C20.977 157.667 21.0023 157.61 21.0418 157.563C21.0813 157.517 21.1334 157.482 21.1918 157.464C22.2557 157.054 23.7169 157.382 24.8037 157.578C26.071 157.798 27.3008 158.196 28.4566 158.76C29.5463 159.316 30.5049 160.097 31.2686 161.052C32.0324 162.007 32.5837 163.114 32.8858 164.298C33.3871 166.103 33.2252 168.027 32.4292 169.722C32.4612 169.909 32.4931 170.101 32.5296 170.288C32.7074 171.179 32.9863 172.047 33.3607 172.875C34.0988 174.638 35.2934 176.173 36.8219 177.322C37.895 178.071 40.1279 179.28 40.6667 177.268C40.7404 177.015 40.7254 176.744 40.624 176.501C40.5227 176.258 40.3412 176.057 40.1096 175.931C39.4658 175.53 38.9452 175.813 38.2831 175.831C38.1075 175.825 37.9372 175.769 37.7928 175.669C37.6484 175.569 37.536 175.429 37.469 175.267C37.402 175.104 37.3833 174.926 37.4151 174.754C37.447 174.581 37.5279 174.421 37.6484 174.293C38.2466 173.659 39.3287 173.664 40.1187 173.869C40.9303 174.082 41.6384 174.579 42.1141 175.27C43.1461 176.78 42.4384 178.855 40.9635 179.777" fill="white"/>
</mask>
<g mask="url(#mask8_15_3497)">
<path d="M20.8858 157.036H43.1324V180.885H20.8858V157.036Z" fill="url(#paint8_linear_15_3497)"/>
</g>
<mask id="mask9_15_3497" style="mask-type:luminance" maskUnits="userSpaceOnUse" x="107" y="25" width="6" height="9">
<path d="M107.543 26.9929C107.789 26.5877 108.154 26.2687 108.589 26.0804C109.079 25.877 109.626 25.8573 110.13 26.025C110.633 26.1926 111.059 26.5364 111.329 26.9929C111.502 27.3129 111.647 27.6471 111.763 27.9919C111.831 28.1653 111.89 28.3478 111.954 28.5257L112.352 29.6342C112.475 29.9894 112.57 30.354 112.635 30.7245C112.696 31.048 112.729 31.3762 112.735 31.7053C112.724 32.0273 112.686 32.3478 112.621 32.6633C112.549 32.9338 112.407 33.1805 112.209 33.3784C112.011 33.5762 111.764 33.7183 111.493 33.7901C111.211 33.8676 110.913 33.8676 110.63 33.7901C110.361 33.716 110.115 33.5729 109.918 33.375C109.237 32.807 108.71 32.0777 108.383 31.2537C108.233 30.907 108.087 30.5648 107.927 30.2181C107.67 29.7272 107.467 29.2103 107.32 28.6762C107.173 28.1078 107.252 27.5049 107.539 26.9929" fill="white"/>
</mask>
<g mask="url(#mask9_15_3497)">
<path d="M107.219 25.6743H112.735V33.8676H107.219V25.6743Z" fill="url(#paint9_linear_15_3497)"/>
</g>
<mask id="mask10_15_3497" style="mask-type:luminance" maskUnits="userSpaceOnUse" x="100" y="31" width="7" height="6">
<path d="M100.438 33.074C100.619 32.6432 100.95 32.2925 101.37 32.087C101.79 31.8814 102.27 31.8351 102.721 31.9564C103.409 32.2011 104.066 32.524 104.68 32.9189C105.037 33.1221 105.38 33.3476 105.708 33.5941C105.94 33.7729 106.16 33.9681 106.365 34.178C106.589 34.4074 106.741 34.6975 106.801 35.0122C106.861 35.327 106.827 35.6524 106.703 35.9481C106.597 36.2051 106.423 36.4288 106.201 36.5958C105.927 36.825 105.581 36.9481 105.224 36.9425C104.818 36.9019 104.415 36.8333 104.018 36.7373C103.74 36.6491 103.469 36.5424 103.205 36.4179C102.817 36.2582 102.429 36.094 102.05 35.9161C101.763 35.8013 101.488 35.6593 101.228 35.4919C100.79 35.2351 100.464 34.8232 100.315 34.3377C100.209 33.9172 100.243 33.4738 100.411 33.074" fill="white"/>
</mask>
<g mask="url(#mask10_15_3497)">
<path d="M100.242 31.6597H106.963V36.9743H100.242V31.6597Z" fill="url(#paint10_linear_15_3497)"/>
</g>
<mask id="mask11_15_3497" style="mask-type:luminance" maskUnits="userSpaceOnUse" x="53" y="49" width="6" height="8">
<path d="M53.831 49.7433C54.249 49.3384 54.806 49.1083 55.3881 49.1001C55.8707 49.1014 56.3394 49.2617 56.7215 49.5563C57.0942 49.8498 57.3695 50.2489 57.5114 50.7013C57.7443 51.3218 58.0045 51.9422 58.21 52.5763C58.3085 52.8948 58.3863 53.2194 58.4429 53.548C58.4968 53.8493 58.5274 54.1543 58.5342 54.4604C58.5323 54.8374 58.4349 55.2077 58.2511 55.537C58.1515 55.7416 58.0121 55.9244 57.8411 56.0748C57.67 56.2251 57.4707 56.3398 57.2548 56.4124C57.039 56.485 56.8108 56.514 56.5836 56.4976C56.3564 56.4813 56.1347 56.4199 55.9315 56.3171C55.6235 56.1956 55.3505 55.9997 55.137 55.7468C54.9323 55.5175 54.7489 55.2702 54.589 55.0078C54.3561 54.5895 54.1502 54.1568 53.9726 53.7122C53.7352 53.1055 53.516 52.4942 53.2648 51.8874C53.1555 51.5131 53.1505 51.116 53.2503 50.739C53.35 50.362 53.5508 50.0194 53.831 49.7479" fill="white"/>
</mask>
<g mask="url(#mask11_15_3497)">
<path d="M53.0004 49.0952H58.5392V56.8003H53.0004V49.0952Z" fill="url(#paint11_linear_15_3497)"/>
</g>
<mask id="mask12_15_3497" style="mask-type:luminance" maskUnits="userSpaceOnUse" x="47" y="55" width="6" height="5">
<path d="M47.2968 56.5406C47.5528 56.0961 47.9721 55.7688 48.4657 55.6282C48.9747 55.4998 49.5136 55.5699 49.9726 55.8244C50.0868 55.8883 50.2009 55.943 50.3196 55.9978C50.4644 56.0542 50.6062 56.1182 50.7443 56.1894L51.0867 56.3536L50.6301 56.162C50.8813 56.2669 51.0868 56.3718 51.3425 56.495L51.4658 56.5543L51.5708 56.5999L51.6484 56.6364L51.7306 56.6729L51.9087 56.8052C52.0241 56.8822 52.1312 56.9708 52.2283 57.0698C52.3332 57.1921 52.4294 57.3217 52.516 57.4576C52.6368 57.6579 52.7006 57.8875 52.7006 58.1214C52.7006 58.3553 52.6368 58.5847 52.516 58.7851C52.3807 59.02 52.2 59.2256 51.9844 59.3901C51.7688 59.5546 51.5227 59.6746 51.2602 59.7431C51.1669 59.7662 51.0724 59.7844 50.9771 59.7978C50.7196 59.8488 50.4586 59.8809 50.1963 59.8937C49.9312 59.8765 49.6674 59.843 49.4064 59.7933C49.2957 59.7778 49.1869 59.7503 49.0822 59.7112C48.7121 59.5715 48.3547 59.4006 48.0137 59.2003C47.5749 58.9396 47.2493 58.5248 47.1004 58.0369C46.9666 57.5288 47.0371 56.9885 47.2968 56.5315" fill="white"/>
</mask>
<g mask="url(#mask12_15_3497)">
<path d="M46.9726 55.5234H52.7717V59.9029H46.9726V55.5234Z" fill="url(#paint12_linear_15_3497)"/>
</g>
<mask id="mask13_15_3497" style="mask-type:luminance" maskUnits="userSpaceOnUse" x="31" y="106" width="6" height="7">
<path d="M32.0137 106.43C32.3325 106.183 32.7243 106.048 33.1279 106.047C33.4491 106.049 33.7641 106.135 34.0411 106.298C34.2157 106.368 34.3719 106.477 34.4977 106.617L34.694 106.772C34.8509 106.942 34.9901 107.127 35.1096 107.324L35.6849 108.164L36.2603 109.003C36.4426 109.291 36.5956 109.597 36.7169 109.915C36.8455 110.111 36.9181 110.338 36.9269 110.572C36.9818 110.806 36.9723 111.051 36.8996 111.279C36.7868 111.643 36.5633 111.962 36.2603 112.192C35.92 112.45 35.4984 112.578 35.0719 112.552C34.6454 112.526 34.2425 112.348 33.9361 112.05L33.5708 111.708C33.3472 111.492 33.1481 111.252 32.9772 110.992L32.3836 110.162C32.1827 109.888 31.9863 109.61 31.7899 109.336C31.6104 109.078 31.4761 108.791 31.3927 108.488C31.2739 108.119 31.2716 107.723 31.3859 107.353C31.5003 106.984 31.7259 106.658 32.032 106.421" fill="white"/>
</mask>
<g mask="url(#mask13_15_3497)">
<path d="M31.1415 106.047H36.9634V112.748H31.1415V106.047Z" fill="url(#paint13_linear_15_3497)"/>
</g>
<mask id="mask14_15_3497" style="mask-type:luminance" maskUnits="userSpaceOnUse" x="25" y="112" width="8" height="5">
<path d="M26.7534 113.136C27.1253 112.92 27.5397 112.788 27.968 112.748C28.2694 112.698 28.5662 112.661 28.8812 112.62C29.2256 112.546 29.5752 112.499 29.9269 112.479H30.2329C30.6126 112.491 30.985 112.586 31.3241 112.757L30.9132 112.584L31.1095 112.625C31.3787 112.698 31.624 112.839 31.8211 113.036C32.0182 113.233 32.1602 113.478 32.2329 113.747C32.3066 114.022 32.3071 114.31 32.2341 114.585C32.1612 114.86 32.0175 115.11 31.8173 115.312L31.6757 115.458L31.9452 115.111C31.7396 115.422 31.4684 115.683 31.1507 115.878C30.9742 115.989 30.7876 116.084 30.5936 116.16C30.2749 116.287 29.9446 116.382 29.6073 116.443C28.6699 116.723 27.6634 116.662 26.7671 116.27C26.491 116.111 26.2615 115.882 26.1013 115.607C25.9411 115.332 25.8558 115.019 25.8538 114.701C25.8603 114.383 25.9474 114.071 26.1072 113.796C26.2669 113.521 26.4939 113.29 26.7671 113.127" fill="white"/>
</mask>
<g mask="url(#mask14_15_3497)">
<path d="M25.8539 112.479H32.3745V116.749H25.8539V112.479Z" fill="url(#paint14_linear_15_3497)"/>
</g>
<mask id="mask15_15_3497" style="mask-type:luminance" maskUnits="userSpaceOnUse" x="108" y="270" width="6" height="8">
<path d="M113.141 271.554C113.335 271.982 113.416 272.453 113.379 272.922C113.37 273.384 113.308 273.843 113.196 274.291C113.054 274.889 112.879 275.478 112.671 276.056C112.608 276.334 112.472 276.591 112.278 276.8C112.127 277.034 111.918 277.226 111.671 277.356C111.162 277.649 110.559 277.729 109.991 277.58C109.444 277.425 108.978 277.066 108.689 276.576C108.405 276.067 108.326 275.468 108.47 274.902C108.649 274.297 108.864 273.702 109.114 273.123C109.27 272.7 109.474 272.296 109.721 271.919C109.886 271.677 110.078 271.462 110.256 271.23C110.372 271.062 110.529 270.927 110.712 270.837L110.854 270.778L111.087 270.623C111.272 270.516 111.481 270.454 111.695 270.442C111.909 270.43 112.123 270.469 112.32 270.554C112.508 270.636 112.676 270.758 112.813 270.91C112.951 271.063 113.053 271.244 113.114 271.44L113 271.17C113.055 271.289 113.105 271.408 113.151 271.526" fill="white"/>
</mask>
<g mask="url(#mask15_15_3497)">
<path d="M108.32 270.413H113.397V277.776H108.32V270.413Z" fill="url(#paint15_linear_15_3497)"/>
</g>
<mask id="mask16_15_3497" style="mask-type:luminance" maskUnits="userSpaceOnUse" x="101" y="266" width="7" height="5">
<path d="M107.041 268.014C107.035 268.321 106.942 268.62 106.772 268.876C106.523 269.276 106.184 269.612 105.781 269.857C105.461 270.083 105.102 270.247 104.722 270.34C104.337 270.424 103.948 270.485 103.557 270.523C103.285 270.54 103.011 270.519 102.744 270.459C102.342 270.375 101.97 270.181 101.671 269.898C101.495 269.723 101.355 269.514 101.259 269.285C101.164 269.056 101.115 268.81 101.114 268.561C101.11 268.311 101.158 268.064 101.253 267.833C101.349 267.602 101.492 267.394 101.671 267.22C101.952 266.965 102.288 266.778 102.653 266.673C102.898 266.616 103.147 266.579 103.397 266.563L103.854 266.527C104.14 266.474 104.43 266.442 104.722 266.431C104.843 266.438 104.965 266.438 105.087 266.431C105.305 266.415 105.525 266.438 105.735 266.499C105.939 266.526 106.136 266.596 106.311 266.705L106.457 266.768C106.651 266.876 106.813 267.035 106.923 267.228C107.033 267.421 107.088 267.641 107.082 267.863C107.082 267.918 107.082 267.973 107.082 268.032" fill="white"/>
</mask>
<g mask="url(#mask16_15_3497)">
<path d="M101.101 266.38H107.114V270.545H101.101V266.38Z" fill="url(#paint16_linear_15_3497)"/>
</g>
<mask id="mask17_15_3497" style="mask-type:luminance" maskUnits="userSpaceOnUse" x="53" y="248" width="6" height="8">
<path d="M58.1826 251.983C58.0909 252.447 57.9373 252.897 57.726 253.32C57.6616 253.448 57.59 253.573 57.5114 253.694L57.3744 253.899C57.1523 254.236 56.8632 254.523 56.5251 254.743L56.0228 254.953L55.4657 255.026C55.002 255.02 54.5535 254.86 54.1917 254.57C53.9045 254.351 53.6807 254.06 53.5433 253.726C53.3595 253.293 53.3226 252.813 53.4383 252.357C53.5797 251.952 53.7586 251.561 53.9726 251.189L53.7579 251.7C53.8401 251.504 53.9269 251.303 54.0182 251.107C54.1369 250.792 54.2237 250.464 54.3287 250.145C54.4129 249.839 54.5276 249.542 54.6712 249.26C54.775 249.071 54.9041 248.898 55.0548 248.744C55.2849 248.524 55.568 248.367 55.8766 248.288C56.1461 248.231 56.4245 248.231 56.694 248.288C56.9719 248.348 57.2325 248.471 57.4562 248.646C57.68 248.822 57.8612 249.045 57.9862 249.301C58.1863 249.698 58.2985 250.134 58.315 250.578C58.3509 251.051 58.3108 251.527 58.1963 251.988" fill="white"/>
</mask>
<g mask="url(#mask17_15_3497)">
<path d="M53.3151 248.224H58.3561V255.026H53.3151V248.224Z" fill="url(#paint17_linear_15_3497)"/>
</g>
<mask id="mask18_15_3497" style="mask-type:luminance" maskUnits="userSpaceOnUse" x="48" y="245" width="7" height="5">
<path d="M52.1781 249.009C51.7117 249.137 51.2254 249.178 50.7443 249.127C50.4166 249.1 50.0915 249.048 49.7717 248.972C49.4076 248.883 49.0761 248.694 48.8152 248.425C48.5543 248.156 48.3746 247.819 48.2968 247.453L48.4064 247.718C48.228 247.377 48.1824 246.982 48.2785 246.609C48.3259 246.468 48.3936 246.334 48.4794 246.212L48.5616 246.103C48.5595 246.092 48.5595 246.081 48.5616 246.071C48.7691 245.76 49.0627 245.516 49.4064 245.368C49.6676 245.246 49.9535 245.185 50.242 245.19C50.4064 245.19 50.5753 245.19 50.7443 245.19C51.2238 245.198 51.7025 245.233 52.1781 245.295L51.6712 245.227C51.9269 245.259 52.1827 245.277 52.4384 245.3C52.7945 245.332 53.1324 245.414 53.484 245.464L53.1096 245.414C53.4374 245.42 53.7558 245.525 54.0228 245.715C54.2415 245.879 54.4016 246.11 54.4794 246.372C54.8539 247.74 53.2602 248.653 52.1689 248.963" fill="white"/>
</mask>
<g mask="url(#mask18_15_3497)">
<path d="M48.1598 245.208H54.8676V249.177H48.1598V245.208Z" fill="url(#paint18_linear_15_3497)"/>
</g>
<mask id="mask19_15_3497" style="mask-type:luminance" maskUnits="userSpaceOnUse" x="31" y="193" width="6" height="7">
<path d="M36.3653 195.123C36.419 195.393 36.4081 195.671 36.3333 195.935C36.3014 196.04 36.2557 196.145 36.2146 196.25C36.0823 196.618 35.9204 196.975 35.7306 197.317C35.6103 197.522 35.4777 197.718 35.3333 197.906C35.1126 198.273 34.8112 198.585 34.452 198.818C34.1378 198.995 33.7851 199.092 33.4247 199.101H33.347H33.2466C32.883 199.117 32.5254 199.004 32.2374 198.782C32.0633 198.668 31.9217 198.511 31.8265 198.326C31.7652 198.225 31.719 198.116 31.6895 198.002C31.5665 197.747 31.501 197.468 31.4977 197.185C31.4954 196.754 31.6141 196.33 31.8401 195.963C32.0475 195.623 32.2763 195.297 32.5251 194.986C32.6729 194.792 32.8347 194.609 33.0091 194.439L33.2922 194.183L33.6575 193.896C33.8251 193.795 34.0116 193.73 34.2055 193.704C34.2857 193.674 34.3681 193.649 34.452 193.631C34.599 193.58 34.7531 193.553 34.9087 193.549C35.1635 193.552 35.4134 193.619 35.6347 193.745C35.8313 193.865 35.9966 194.03 36.1173 194.226C36.2379 194.421 36.3104 194.643 36.3288 194.872C36.3524 194.96 36.3661 195.05 36.3698 195.141" fill="white"/>
</mask>
<g mask="url(#mask19_15_3497)">
<path d="M31.4977 193.531H36.4155V199.088H31.4977V193.531Z" fill="url(#paint19_linear_15_3497)"/>
</g>
<mask id="mask20_15_3497" style="mask-type:luminance" maskUnits="userSpaceOnUse" x="25" y="187" width="8" height="5">
<path d="M32.6575 189.859C32.659 190.058 32.6191 190.255 32.5405 190.438C32.462 190.621 32.3463 190.786 32.2009 190.922C31.8186 191.366 31.2851 191.654 30.7031 191.729C30.2389 191.824 29.7692 191.889 29.2968 191.925C28.9726 191.925 28.6438 191.925 28.3242 191.889C28.0235 191.877 27.725 191.832 27.4338 191.756C27.1559 191.679 26.8975 191.544 26.6758 191.36C26.6047 191.303 26.5376 191.242 26.4748 191.177C26.3823 191.097 26.3009 191.005 26.2329 190.903C25.9922 190.608 25.8614 190.239 25.863 189.859C25.8748 189.553 25.956 189.253 26.1004 188.983C26.1765 188.843 26.2789 188.719 26.4018 188.618C26.4262 188.578 26.4537 188.54 26.484 188.504C26.7396 188.253 27.0534 188.07 27.3972 187.97C27.6939 187.882 28.001 187.833 28.3105 187.824C28.6301 187.824 28.9589 187.788 29.2831 187.788C29.7559 187.82 30.2259 187.885 30.6895 187.984C31.2695 188.065 31.8009 188.351 32.1872 188.791C32.3332 188.928 32.4492 189.093 32.5278 189.277C32.6064 189.461 32.6459 189.659 32.6438 189.859" fill="white"/>
</mask>
<g mask="url(#mask20_15_3497)">
<path d="M25.8406 187.788H32.6625V191.93H25.8406V187.788Z" fill="url(#paint20_linear_15_3497)"/>
</g>
<mask id="mask21_15_3497" style="mask-type:luminance" maskUnits="userSpaceOnUse" x="122" y="284" width="3" height="3">
<path d="M123.575 284.592C124.945 284.592 124.945 286.754 123.575 286.754C122.205 286.754 122.178 284.592 123.575 284.592Z" fill="white"/>
</mask>
<g mask="url(#mask21_15_3497)">
<path d="M122.183 284.592H124.968V286.754H122.183V284.592Z" fill="url(#paint21_linear_15_3497)"/>
</g>
<mask id="mask22_15_3497" style="mask-type:luminance" maskUnits="userSpaceOnUse" x="116" y="283" width="3" height="3">
<path d="M116.913 283.816C116.961 283.644 117.052 283.487 117.178 283.36L117.388 283.2C117.545 283.106 117.725 283.057 117.909 283.059C118.048 283.053 118.186 283.083 118.311 283.146C118.436 283.188 118.549 283.262 118.639 283.36C118.738 283.451 118.812 283.566 118.854 283.693C118.918 283.815 118.95 283.952 118.945 284.09C118.945 284.181 118.918 284.272 118.909 284.364C118.86 284.537 118.767 284.694 118.639 284.82L118.434 284.984C118.274 285.076 118.093 285.125 117.909 285.125C117.771 285.13 117.634 285.099 117.511 285.034C117.384 284.992 117.269 284.918 117.178 284.82C117.079 284.729 117.005 284.614 116.964 284.487C116.9 284.364 116.87 284.228 116.877 284.09C116.877 283.999 116.877 283.907 116.913 283.816Z" fill="white"/>
</mask>
<g mask="url(#mask22_15_3497)">
<path d="M116.873 283.054H118.95V285.13H116.873V283.054Z" fill="url(#paint22_linear_15_3497)"/>
</g>
<mask id="mask23_15_3497" style="mask-type:luminance" maskUnits="userSpaceOnUse" x="118" y="288" width="3" height="3">
<path d="M118.511 289.455C118.527 289.407 118.545 289.359 118.566 289.313C118.591 289.226 118.638 289.148 118.703 289.085C118.775 288.971 118.876 288.878 118.995 288.816L119.247 288.711L119.521 288.675H119.589H119.712C119.828 288.671 119.942 288.696 120.046 288.748C120.153 288.782 120.249 288.845 120.324 288.93L120.461 289.103C120.541 289.242 120.581 289.4 120.575 289.56C120.577 289.599 120.577 289.639 120.575 289.678V289.738C120.575 289.788 120.575 289.833 120.552 289.888C120.552 289.979 120.529 290.069 120.484 290.148L120.429 290.28L120.265 290.49L120.055 290.655C119.973 290.705 119.883 290.742 119.79 290.764C119.614 290.81 119.429 290.81 119.253 290.764C119.077 290.717 118.916 290.626 118.785 290.499C118.658 290.37 118.566 290.209 118.519 290.033C118.473 289.857 118.473 289.672 118.521 289.496" fill="white"/>
</mask>
<g mask="url(#mask23_15_3497)">
<path d="M118.42 288.656H120.584V290.823H118.42V288.656Z" fill="url(#paint23_linear_15_3497)"/>
</g>
<mask id="mask24_15_3497" style="mask-type:luminance" maskUnits="userSpaceOnUse" x="36" y="224" width="4" height="4">
<path d="M36.831 225.442C36.8766 225.298 36.9602 225.168 37.073 225.068C37.1739 224.955 37.3032 224.872 37.4474 224.826C37.5875 224.751 37.7455 224.716 37.904 224.726L38.2145 224.767C38.4103 224.819 38.5885 224.923 38.7305 225.068C38.7944 225.145 38.8538 225.223 38.9132 225.305C39.02 225.483 39.0753 225.686 39.073 225.893V226.249C39.0753 226.456 39.02 226.66 38.9132 226.838C38.8147 227.014 38.6693 227.159 38.4931 227.257C38.4481 227.283 38.4007 227.305 38.3515 227.321C38.2111 227.395 38.0533 227.43 37.8949 227.422L37.5844 227.381C37.4895 227.344 37.3966 227.303 37.3059 227.257C37.1297 227.159 36.9842 227.014 36.8858 226.838C36.7789 226.66 36.7236 226.456 36.7259 226.249V225.893C36.7168 225.735 36.7515 225.577 36.8264 225.437" fill="white"/>
</mask>
<g mask="url(#mask24_15_3497)">
<path d="M36.726 224.716H39.073V227.426H36.726V224.716Z" fill="url(#paint24_linear_15_3497)"/>
</g>
<mask id="mask25_15_3497" style="mask-type:luminance" maskUnits="userSpaceOnUse" x="30" y="221" width="3" height="3">
<path d="M30.242 221.815C30.2876 221.668 30.3729 221.537 30.4886 221.436C30.632 221.29 30.8116 221.185 31.0091 221.13C31.214 221.076 31.4298 221.076 31.6347 221.13H31.6941L31.968 221.244C32.1019 221.315 32.2152 221.418 32.2968 221.546C32.3677 221.616 32.4183 221.704 32.4429 221.801C32.5189 221.941 32.5538 222.099 32.5434 222.257L32.5023 222.563C32.4658 222.659 32.4247 222.75 32.3881 222.841C32.319 222.974 32.2148 223.086 32.0867 223.165C31.977 223.269 31.8414 223.341 31.6941 223.375H31.6347C31.4298 223.43 31.214 223.43 31.0091 223.375C30.8125 223.319 30.6333 223.214 30.4886 223.069L30.3013 222.832C30.1965 222.65 30.1414 222.444 30.1415 222.234C30.1328 222.076 30.1676 221.918 30.242 221.778" fill="white"/>
</mask>
<g mask="url(#mask25_15_3497)">
<path d="M30.137 221.076H32.5526V223.466H30.137V221.076Z" fill="url(#paint25_linear_15_3497)"/>
</g>
<mask id="mask26_15_3497" style="mask-type:luminance" maskUnits="userSpaceOnUse" x="34" y="217" width="3" height="3">
<path d="M34.8675 218.129C34.9119 217.957 35 217.8 35.1232 217.673L35.3287 217.518C35.4806 217.427 35.6543 217.38 35.831 217.381C35.9644 217.374 36.0969 217.404 36.2146 217.467C36.338 217.508 36.4493 217.578 36.5387 217.673C36.6339 217.761 36.7047 217.873 36.7443 217.997C36.8072 218.114 36.8372 218.247 36.831 218.38C36.831 218.466 36.831 218.558 36.7945 218.644C36.7528 218.817 36.6643 218.975 36.5387 219.101L36.3333 219.26C36.1801 219.347 36.0071 219.393 35.831 219.393C35.6981 219.4 35.5655 219.372 35.4474 219.31C35.3229 219.27 35.2112 219.197 35.1232 219.101C35.0282 219.014 34.9575 218.904 34.9178 218.781C34.8548 218.664 34.8248 218.531 34.831 218.398C34.831 218.307 34.8584 218.22 34.8675 218.133" fill="white"/>
</mask>
<g mask="url(#mask26_15_3497)">
<path d="M34.8265 217.39H36.8357V219.397H34.8265V217.39Z" fill="url(#paint26_linear_15_3497)"/>
</g>
<mask id="mask27_15_3497" style="mask-type:luminance" maskUnits="userSpaceOnUse" x="31" y="226" width="3" height="3">
<path d="M32.9132 226.235C34.2237 226.235 34.2237 228.27 32.9132 228.27C31.6027 228.27 31.6027 226.235 32.9132 226.235Z" fill="white"/>
</mask>
<g mask="url(#mask27_15_3497)">
<path d="M31.6073 226.235H34.2283V228.265H31.6073V226.235Z" fill="url(#paint27_linear_15_3497)"/>
</g>
<mask id="mask28_15_3497" style="mask-type:luminance" maskUnits="userSpaceOnUse" x="5" y="162" width="3" height="4">
<path d="M5.14611 163.422C5.1725 163.325 5.22447 163.237 5.29672 163.167C5.37913 163.039 5.49213 162.934 5.62547 162.861L5.90406 162.747C6.10838 162.688 6.32526 162.688 6.52957 162.747L6.69858 162.793C6.82451 162.824 6.94366 162.878 7.05018 162.952L7.1232 163.007C7.21909 163.08 7.31505 163.153 7.4155 163.221C7.5417 163.291 7.64839 163.392 7.72597 163.513C7.82681 163.619 7.89635 163.75 7.92686 163.892L7.968 164.189C7.9734 164.339 7.94041 164.488 7.87212 164.622C7.84616 164.716 7.79569 164.801 7.72597 164.868C7.64953 164.99 7.54247 165.089 7.4155 165.156L7.14606 165.27C6.95138 165.32 6.7471 165.32 6.55243 165.27L6.20996 165.169L6.12323 165.142H6.09123C6.0355 165.128 5.98188 165.106 5.93148 165.078C5.87451 165.07 5.82083 165.046 5.77619 165.01L5.62547 164.896C5.49162 164.825 5.37834 164.722 5.29672 164.595C5.1925 164.482 5.12006 164.343 5.08669 164.193L5.04555 163.883C5.03885 163.725 5.07357 163.568 5.14611 163.427" fill="white"/>
</mask>
<g mask="url(#mask28_15_3497)">
<path d="M5.04113 162.688H7.97717V165.32H5.04113V162.688Z" fill="url(#paint28_linear_15_3497)"/>
</g>
<mask id="mask29_15_3497" style="mask-type:luminance" maskUnits="userSpaceOnUse" x="3" y="158" width="3" height="3">
<path d="M4.35609 158.267C5.72595 158.267 5.72595 160.375 4.35609 160.375C2.98622 160.375 2.98622 158.267 4.35609 158.267Z" fill="white"/>
</mask>
<g mask="url(#mask29_15_3497)">
<path d="M2.99548 158.267H5.71692V160.375H2.99548V158.267Z" fill="url(#paint29_linear_15_3497)"/>
</g>
<mask id="mask30_15_3497" style="mask-type:luminance" maskUnits="userSpaceOnUse" x="33" y="98" width="4" height="3">
<path d="M33.8631 98.7979C33.8815 98.7154 33.9139 98.6368 33.9589 98.5653L34.1324 98.3417C34.1985 98.2769 34.2721 98.2203 34.3516 98.1729C34.4377 98.111 34.5356 98.0676 34.6393 98.0452C34.8393 97.9882 35.0512 97.9882 35.2512 98.0452H35.3197L35.4567 98.0863L35.7078 98.1912C35.8254 98.2542 35.9257 98.3451 36.0001 98.4558C36.0639 98.5203 36.1096 98.6006 36.1325 98.6884C36.1975 98.812 36.229 98.9504 36.2238 99.0899C36.2238 99.1811 36.1964 99.2723 36.1872 99.3681L36.0822 99.6145C36.0188 99.7332 35.9261 99.8337 35.8128 99.9065C35.7123 99.9985 35.5896 100.063 35.4567 100.094L35.3197 100.13H35.2512C35.0512 100.187 34.8393 100.187 34.6393 100.13C34.5347 100.111 34.4361 100.067 34.3516 100.002C34.2691 99.9575 34.195 99.8988 34.1324 99.8289C34.0628 99.7678 34.0041 99.6953 33.9589 99.6145V99.5872C33.9128 99.5157 33.8788 99.4371 33.8585 99.3545C33.8322 99.2705 33.8214 99.1823 33.8265 99.0944C33.8215 98.987 33.8323 98.8794 33.8585 98.7751" fill="white"/>
</mask>
<g mask="url(#mask30_15_3497)">
<path d="M33.8128 97.9678H36.2283V100.212H33.8128V97.9678Z" fill="url(#paint30_linear_15_3497)"/>
</g>
<mask id="mask31_15_3497" style="mask-type:luminance" maskUnits="userSpaceOnUse" x="27" y="98" width="3" height="3">
<path d="M27.4703 99.4591C27.4695 99.3757 27.4916 99.2936 27.5342 99.2219C27.5561 99.1434 27.5969 99.0713 27.6529 99.0121C27.696 98.944 27.7537 98.8863 27.8219 98.8433C27.912 98.7613 28.0223 98.7046 28.1415 98.6791L28.3652 98.6061C28.5491 98.5558 28.743 98.5558 28.9269 98.6061C29.0997 98.6551 29.257 98.7478 29.3835 98.8752C29.5124 99.0013 29.6067 99.1584 29.6575 99.3314C29.6961 99.4686 29.6961 99.6139 29.6575 99.7511C29.6516 99.8904 29.6091 100.026 29.5342 100.143C29.4406 100.299 29.3105 100.429 29.1552 100.522C28.9926 100.616 28.8087 100.666 28.621 100.668C28.4333 100.666 28.2493 100.616 28.0867 100.522L27.895 100.385L27.7032 100.239L27.557 100.048L27.4657 99.8241C27.4316 99.7017 27.4316 99.5724 27.4657 99.45" fill="white"/>
</mask>
<g mask="url(#mask31_15_3497)">
<path d="M27.4246 98.5557H29.694V100.677H27.4246V98.5557Z" fill="url(#paint31_linear_15_3497)"/>
</g>
<mask id="mask32_15_3497" style="mask-type:luminance" maskUnits="userSpaceOnUse" x="27" y="90" width="3" height="3">
<path d="M27.3745 91.567C27.4235 91.3944 27.5163 91.2372 27.6438 91.1108L27.8539 90.9466C28.0137 90.8548 28.1947 90.8061 28.379 90.8052C28.5188 90.798 28.6579 90.8295 28.7808 90.8964C28.9102 90.9374 29.0267 91.0112 29.1187 91.1108C29.2174 91.2018 29.2913 91.3164 29.3333 91.4438C29.3974 91.5677 29.4289 91.7059 29.4247 91.8453L29.3835 92.1236C29.3369 92.2962 29.2456 92.4536 29.1187 92.5798L28.9087 92.744C28.7475 92.8364 28.5649 92.8851 28.379 92.8854C28.2395 92.8896 28.1012 92.8582 27.9772 92.7942C27.8496 92.7522 27.7349 92.6784 27.6438 92.5798C27.5442 92.4878 27.4702 92.3714 27.4293 92.2422C27.3623 92.1194 27.3306 91.9804 27.3379 91.8407C27.3379 91.7495 27.3379 91.6583 27.3745 91.567Z" fill="white"/>
</mask>
<g mask="url(#mask32_15_3497)">
<path d="M27.3333 90.7959H29.4292V92.8898H27.3333V90.7959Z" fill="url(#paint32_linear_15_3497)"/>
</g>
<mask id="mask33_15_3497" style="mask-type:luminance" maskUnits="userSpaceOnUse" x="34" y="81" width="3" height="4">
<path d="M34.4246 82.7533C34.4726 82.5812 34.5638 82.4242 34.6895 82.2971L34.8995 82.1375C35.0585 82.0437 35.24 81.9947 35.4246 81.996C35.5625 81.9875 35.7001 82.0176 35.8219 82.0827C35.9494 82.1247 36.0641 82.1985 36.1552 82.2971C36.2533 82.3886 36.327 82.5031 36.3698 82.6302C36.4329 82.7526 36.4628 82.8894 36.4566 83.027C36.4566 83.1183 36.4566 83.2095 36.42 83.3007C36.3732 83.4733 36.2819 83.6306 36.1552 83.7569L35.9452 83.9212C35.7869 84.0128 35.6075 84.0616 35.4246 84.0626C35.285 84.0678 35.1464 84.0363 35.0228 83.9713C34.8952 83.9293 34.7805 83.8556 34.6895 83.7569C34.5911 83.6665 34.5186 83.5516 34.4794 83.4239C34.4128 83.3026 34.3812 83.1652 34.3881 83.027C34.3881 82.9358 34.3881 82.8446 34.4246 82.7533Z" fill="white"/>
</mask>
<g mask="url(#mask33_15_3497)">
<path d="M34.3881 81.9868H36.4657V84.0625H34.3881V81.9868Z" fill="url(#paint33_linear_15_3497)"/>
</g>
<mask id="mask34_15_3497" style="mask-type:luminance" maskUnits="userSpaceOnUse" x="34" y="87" width="2" height="3">
<path d="M34.4247 88.465C34.4247 88.4011 34.4749 88.3373 34.5023 88.278C34.5699 88.1603 34.6676 88.0627 34.7854 87.9951L34.9178 87.9175C34.9965 87.8705 35.0864 87.8457 35.1781 87.8457C35.2698 87.8457 35.3597 87.8705 35.4383 87.9175L35.5754 87.9951C35.6636 88.0433 35.7388 88.1122 35.7945 88.1958C35.8421 88.245 35.878 88.3042 35.8995 88.3692C35.946 88.4641 35.968 88.5692 35.9635 88.6748L35.9361 88.8801C35.9087 88.944 35.8859 89.0079 35.8585 89.0672C35.8091 89.1558 35.7405 89.2322 35.6576 89.2907C35.6079 89.3366 35.5486 89.3708 35.4841 89.391C35.389 89.4375 35.2838 89.4594 35.1781 89.4549L34.9726 89.4276L34.7854 89.35C34.6958 89.302 34.6191 89.2331 34.5617 89.1493C34.5157 89.0997 34.4814 89.0404 34.4612 88.9759C34.4139 88.8827 34.3904 88.7793 34.3927 88.6748L34.4247 88.465Z" fill="white"/>
</mask>
<g mask="url(#mask34_15_3497)">
<path d="M34.3927 87.8218H35.9727V89.4595H34.3927V87.8218Z" fill="url(#paint34_linear_15_3497)"/>
</g>
<mask id="mask35_15_3497" style="mask-type:luminance" maskUnits="userSpaceOnUse" x="75" y="38" width="3" height="3">
<path d="M75.4749 39.0457C75.5166 38.873 75.605 38.7152 75.7306 38.5895L75.9315 38.4344C76.0831 38.3478 76.2546 38.3022 76.4292 38.3021C76.5626 38.2959 76.6951 38.3258 76.8128 38.3888C76.9354 38.426 77.0458 38.4952 77.1324 38.5895C77.2265 38.6771 77.2971 38.787 77.3379 38.9088C77.3973 39.0276 77.4256 39.1594 77.4201 39.292C77.4201 39.3787 77.3973 39.4654 77.3836 39.5566C77.343 39.7287 77.2561 39.8864 77.1324 40.0128L76.9315 40.1679C76.7795 40.2581 76.606 40.3054 76.4292 40.3048C76.2973 40.3115 76.1661 40.2816 76.0502 40.2181C75.9277 40.1785 75.8175 40.1077 75.7306 40.0128C75.6356 39.9259 75.5648 39.8159 75.5251 39.6935C75.4616 39.5777 75.4316 39.4467 75.4384 39.3149C75.4384 39.2282 75.4384 39.1369 75.4749 39.0502" fill="white"/>
</mask>
<g mask="url(#mask35_15_3497)">
<path d="M75.4384 38.3159H77.4293V40.3049H75.4384V38.3159Z" fill="url(#paint35_linear_15_3497)"/>
</g>
<mask id="mask36_15_3497" style="mask-type:luminance" maskUnits="userSpaceOnUse" x="78" y="30" width="3" height="3">
<path d="M78.3836 30.9757C78.4593 30.8439 78.5678 30.7338 78.6986 30.6563C78.8374 30.5759 78.9949 30.5335 79.1552 30.5332C79.3156 30.5335 79.4731 30.5759 79.6119 30.6563C79.7435 30.7343 79.8535 30.8442 79.9315 30.9757C79.9956 31.0754 80.0318 31.1903 80.0365 31.3087C80.0388 31.3513 80.0388 31.3939 80.0365 31.4365C80.0413 31.5568 80.0145 31.6763 79.9589 31.7832C79.9225 31.8936 79.858 31.9926 79.7717 32.0706L79.7124 32.1299C79.6444 32.2045 79.5577 32.2596 79.4612 32.2895C79.3689 32.3394 79.2646 32.3631 79.1598 32.358L78.9498 32.3306C78.8191 32.2939 78.6997 32.2249 78.6028 32.1299L78.548 32.0706L78.4064 31.8927C78.326 31.754 78.2834 31.5967 78.2831 31.4365C78.2862 31.2754 78.3318 31.118 78.4155 30.9803" fill="white"/>
</mask>
<g mask="url(#mask36_15_3497)">
<path d="M78.2512 30.5332H80.0548V32.399H78.2512V30.5332Z" fill="url(#paint36_linear_15_3497)"/>
</g>
<mask id="mask37_15_3497" style="mask-type:luminance" maskUnits="userSpaceOnUse" x="85" y="36" width="3" height="3">
<path d="M85.6073 37.28L85.6895 37.0839C85.741 36.99 85.8147 36.9101 85.9041 36.8512C85.954 36.7999 86.0173 36.7635 86.0868 36.7463C86.1834 36.6944 86.2922 36.6692 86.4019 36.6733H86.6302H86.7398H86.8311C86.8787 36.6718 86.926 36.6828 86.9681 36.7052C87.0106 36.7191 87.0484 36.7444 87.0777 36.7782C87.1109 36.8091 87.1374 36.8465 87.1555 36.8881C87.1736 36.9297 87.1828 36.9746 87.1827 37.02C87.1805 37.058 87.1805 37.0961 87.1827 37.134V37.2481C87.1827 37.3256 87.1827 37.3986 87.1827 37.4762C87.1827 37.5537 87.1826 37.6222 87.1507 37.6952L87.0685 37.8913C87.0198 37.9845 86.9474 38.0632 86.8585 38.1194C86.8071 38.1698 86.7445 38.2073 86.6758 38.2289C86.6117 38.265 86.5393 38.2839 86.4658 38.2837C86.3938 38.3014 86.3186 38.3014 86.2466 38.2837C86.1744 38.284 86.1035 38.2651 86.0411 38.2289C85.9391 38.1954 85.8478 38.1356 85.7762 38.0556L85.6439 37.8913L85.5616 37.6952L85.5343 37.4762L85.6073 37.28Z" fill="white"/>
</mask>
<g mask="url(#mask37_15_3497)">
<path d="M85.5799 36.6689H87.2283V38.3249H85.5799V36.6689Z" fill="url(#paint37_linear_15_3497)"/>
</g>
<mask id="mask38_15_3497" style="mask-type:luminance" maskUnits="userSpaceOnUse" x="87" y="30" width="4" height="3">
<path d="M88.0182 30.9206C88.0502 30.8521 88.0776 30.7791 88.1096 30.7107C88.1629 30.6089 88.2415 30.5225 88.3379 30.4598C88.4233 30.3822 88.5269 30.3273 88.6392 30.3001H88.6986H88.726C88.7694 30.2887 88.815 30.2887 88.8584 30.3001C88.9796 30.2684 89.107 30.2684 89.2282 30.3001L89.347 30.3275L89.5616 30.4188C89.6648 30.4719 89.7528 30.5504 89.8173 30.6468C89.8709 30.7037 89.91 30.7725 89.9315 30.8475C89.987 30.9544 90.0138 31.0739 90.0091 31.1943C90.0091 31.2718 90.0091 31.3539 89.9771 31.4315C89.9452 31.509 89.9177 31.5775 89.8858 31.6459C89.8335 31.7511 89.7529 31.8396 89.6529 31.9014C89.5664 31.98 89.461 32.035 89.347 32.061L89.2282 32.0884L88.9817 32.1203C88.8949 32.1246 88.8081 32.1122 88.726 32.0838H88.694H88.6346L88.4246 31.9972C88.3227 31.9439 88.2362 31.8653 88.1734 31.7691C88.1194 31.7143 88.0802 31.6468 88.0593 31.5729C88.0037 31.4677 87.9769 31.3496 87.9817 31.2307C87.9817 31.1532 87.9817 31.0711 88.0136 30.9935" fill="white"/>
</mask>
<g mask="url(#mask38_15_3497)">
<path d="M87.9863 30.2227H90.0319V32.0885H87.9863V30.2227Z" fill="url(#paint38_linear_15_3497)"/>
</g>
</g>
<defs>
<linearGradient id="paint0_linear_15_3497" x1="144.644" y1="302.082" x2="154.807" y2="2.07034" gradientUnits="userSpaceOnUse">
<stop stop-color="#DED5BE"/>
<stop offset="1" stop-color="#E3CB97"/>
</linearGradient>
<linearGradient id="paint1_linear_15_3497" x1="110.918" y1="756.688" x2="141.199" y2="-217.665" gradientUnits="userSpaceOnUse">
<stop stop-color="#DED5BE"/>
<stop offset="1" stop-color="#E3CB97"/>
</linearGradient>
<linearGradient id="paint2_linear_15_3497" x1="69.6896" y1="376.985" x2="96.4251" y2="-6.63196" gradientUnits="userSpaceOnUse">
<stop stop-color="#DED5BE"/>
<stop offset="1" stop-color="#E3CB97"/>
</linearGradient>
<linearGradient id="paint3_linear_15_3497" x1="47.6895" y1="709.445" x2="59.6716" y2="-250.884" gradientUnits="userSpaceOnUse">
<stop stop-color="#DED5BE"/>
<stop offset="1" stop-color="#E3CB97"/>
</linearGradient>
<linearGradient id="paint4_linear_15_3497" x1="11.4383" y1="780.041" x2="39.5182" y2="-101.29" gradientUnits="userSpaceOnUse">
<stop stop-color="#DED5BE"/>
<stop offset="1" stop-color="#E3CB97"/>
</linearGradient>
<linearGradient id="paint5_linear_15_3497" x1="129.452" y1="396.446" x2="140.472" y2="41.9284" gradientUnits="userSpaceOnUse">
<stop stop-color="#DED5BE"/>
<stop offset="1" stop-color="#E3CB97"/>
</linearGradient>
<linearGradient id="paint6_linear_15_3497" x1="83.0822" y1="373.49" x2="102.84" y2="89.9357" gradientUnits="userSpaceOnUse">
<stop stop-color="#DED5BE"/>
<stop offset="1" stop-color="#E3CB97"/>
</linearGradient>
<linearGradient id="paint7_linear_15_3497" x1="51.0092" y1="561.957" x2="59.1491" y2="-90.4997" gradientUnits="userSpaceOnUse">
<stop stop-color="#DED5BE"/>
<stop offset="1" stop-color="#E3CB97"/>
</linearGradient>
<linearGradient id="paint8_linear_15_3497" x1="24.7534" y1="396.227" x2="35.4548" y2="60.322" gradientUnits="userSpaceOnUse">
<stop stop-color="#DED5BE"/>
<stop offset="1" stop-color="#E3CB97"/>
</linearGradient>
<linearGradient id="paint9_linear_15_3497" x1="100.53" y1="433.247" x2="115.228" y2="-195.854" gradientUnits="userSpaceOnUse">
<stop stop-color="#DED5BE"/>
<stop offset="1" stop-color="#E3CB97"/>
</linearGradient>
<linearGradient id="paint10_linear_15_3497" x1="88.4612" y1="379.822" x2="110.94" y2="-134.027" gradientUnits="userSpaceOnUse">
<stop stop-color="#DED5BE"/>
<stop offset="1" stop-color="#E3CB97"/>
</linearGradient>
<linearGradient id="paint11_linear_15_3497" x1="47.9639" y1="371.232" x2="62.5028" y2="-222.596" gradientUnits="userSpaceOnUse">
<stop stop-color="#DED5BE"/>
<stop offset="1" stop-color="#E3CB97"/>
</linearGradient>
<linearGradient id="paint12_linear_15_3497" x1="39.5936" y1="289.61" x2="59.0776" y2="-150.632" gradientUnits="userSpaceOnUse">
<stop stop-color="#DED5BE"/>
<stop offset="1" stop-color="#E3CB97"/>
</linearGradient>
<linearGradient id="paint13_linear_15_3497" x1="26.2009" y1="376.364" x2="45.2519" y2="-272.44" gradientUnits="userSpaceOnUse">
<stop stop-color="#DED5BE"/>
<stop offset="1" stop-color="#E3CB97"/>
</linearGradient>
<linearGradient id="paint14_linear_15_3497" x1="22.6256" y1="238.028" x2="40.3185" y2="-99.0143" gradientUnits="userSpaceOnUse">
<stop stop-color="#DED5BE"/>
<stop offset="1" stop-color="#E3CB97"/>
</linearGradient>
<linearGradient id="paint15_linear_15_3497" x1="107.758" y1="406.637" x2="118.683" y2="-60.9209" gradientUnits="userSpaceOnUse">
<stop stop-color="#DED5BE"/>
<stop offset="1" stop-color="#E3CB97"/>
</linearGradient>
<linearGradient id="paint16_linear_15_3497" x1="100.913" y1="333.783" x2="117.722" y2="-10.59" gradientUnits="userSpaceOnUse">
<stop stop-color="#DED5BE"/>
<stop offset="1" stop-color="#E3CB97"/>
</linearGradient>
<linearGradient id="paint17_linear_15_3497" x1="53.1507" y1="360.129" x2="64.6543" y2="-104.853" gradientUnits="userSpaceOnUse">
<stop stop-color="#DED5BE"/>
<stop offset="1" stop-color="#E3CB97"/>
</linearGradient>
<linearGradient id="paint18_linear_15_3497" x1="49.2191" y1="289.259" x2="68.0242" y2="-56.5886" gradientUnits="userSpaceOnUse">
<stop stop-color="#DED5BE"/>
<stop offset="1" stop-color="#E3CB97"/>
</linearGradient>
<linearGradient id="paint19_linear_15_3497" x1="30.7763" y1="302.689" x2="42.854" y2="-102.169" gradientUnits="userSpaceOnUse">
<stop stop-color="#DED5BE"/>
<stop offset="1" stop-color="#E3CB97"/>
</linearGradient>
<linearGradient id="paint20_linear_15_3497" x1="25.2881" y1="260.906" x2="45.0773" y2="-94.4234" gradientUnits="userSpaceOnUse">
<stop stop-color="#DED5BE"/>
<stop offset="1" stop-color="#E3CB97"/>
</linearGradient>
<linearGradient id="paint21_linear_15_3497" x1="120.096" y1="391.833" x2="133.792" y2="-26.7056" gradientUnits="userSpaceOnUse">
<stop stop-color="#DED5BE"/>
<stop offset="1" stop-color="#E3CB97"/>
</linearGradient>
<linearGradient id="paint22_linear_15_3497" x1="114.124" y1="395.694" x2="128.508" y2="-28.9453" gradientUnits="userSpaceOnUse">
<stop stop-color="#DED5BE"/>
<stop offset="1" stop-color="#E3CB97"/>
</linearGradient>
<linearGradient id="paint23_linear_15_3497" x1="115.895" y1="396.017" x2="130.375" y2="-31.5377" gradientUnits="userSpaceOnUse">
<stop stop-color="#DED5BE"/>
<stop offset="1" stop-color="#E3CB97"/>
</linearGradient>
<linearGradient id="paint24_linear_15_3497" x1="31.4567" y1="444.843" x2="44.1455" y2="13.1832" gradientUnits="userSpaceOnUse">
<stop stop-color="#DED5BE"/>
<stop offset="1" stop-color="#E3CB97"/>
</linearGradient>
<linearGradient id="paint25_linear_15_3497" x1="23.7123" y1="443.273" x2="38.2146" y2="22.6128" gradientUnits="userSpaceOnUse">
<stop stop-color="#DED5BE"/>
<stop offset="1" stop-color="#E3CB97"/>
</linearGradient>
<linearGradient id="paint26_linear_15_3497" x1="28.2466" y1="441.895" x2="42.6303" y2="17.2725" gradientUnits="userSpaceOnUse">
<stop stop-color="#DED5BE"/>
<stop offset="1" stop-color="#E3CB97"/>
</linearGradient>
<linearGradient id="paint27_linear_15_3497" x1="25.8859" y1="441.655" x2="39.5818" y2="23.123" gradientUnits="userSpaceOnUse">
<stop stop-color="#DED5BE"/>
<stop offset="1" stop-color="#E3CB97"/>
</linearGradient>
<linearGradient id="paint28_linear_15_3497" x1="-3.50673" y1="427.098" x2="10.955" y2="46.5347" gradientUnits="userSpaceOnUse">
<stop stop-color="#DED5BE"/>
<stop offset="1" stop-color="#E3CB97"/>
</linearGradient>
<linearGradient id="paint29_linear_15_3497" x1="-5.18711" y1="450.5" x2="8.50875" y2="31.951" gradientUnits="userSpaceOnUse">
<stop stop-color="#DED5BE"/>
<stop offset="1" stop-color="#E3CB97"/>
</linearGradient>
<linearGradient id="paint30_linear_15_3497" x1="23.1372" y1="420.575" x2="38.2781" y2="10.1949" gradientUnits="userSpaceOnUse">
<stop stop-color="#DED5BE"/>
<stop offset="1" stop-color="#E3CB97"/>
</linearGradient>
<linearGradient id="paint31_linear_15_3497" x1="16.7717" y1="425.582" x2="31.6526" y2="13.2694" gradientUnits="userSpaceOnUse">
<stop stop-color="#DED5BE"/>
<stop offset="1" stop-color="#E3CB97"/>
</linearGradient>
<linearGradient id="paint32_linear_15_3497" x1="16.8357" y1="432.12" x2="31.2198" y2="7.5215" gradientUnits="userSpaceOnUse">
<stop stop-color="#DED5BE"/>
<stop offset="1" stop-color="#E3CB97"/>
</linearGradient>
<linearGradient id="paint33_linear_15_3497" x1="23.7673" y1="426.494" x2="38.1514" y2="1.87401" gradientUnits="userSpaceOnUse">
<stop stop-color="#DED5BE"/>
<stop offset="1" stop-color="#E3CB97"/>
</linearGradient>
<linearGradient id="paint34_linear_15_3497" x1="23.7897" y1="432.968" x2="38.0913" y2="-0.15594" gradientUnits="userSpaceOnUse">
<stop stop-color="#DED5BE"/>
<stop offset="1" stop-color="#E3CB97"/>
</linearGradient>
<linearGradient id="paint35_linear_15_3497" x1="64.3791" y1="394.553" x2="78.7586" y2="-30.0729" gradientUnits="userSpaceOnUse">
<stop stop-color="#DED5BE"/>
<stop offset="1" stop-color="#E3CB97"/>
</linearGradient>
<linearGradient id="paint36_linear_15_3497" x1="67.2785" y1="393.938" x2="81.3116" y2="-35.1962" gradientUnits="userSpaceOnUse">
<stop stop-color="#DED5BE"/>
<stop offset="1" stop-color="#E3CB97"/>
</linearGradient>
<linearGradient id="paint37_linear_15_3497" x1="74.5569" y1="386.655" x2="88.8905" y2="-36.5964" gradientUnits="userSpaceOnUse">
<stop stop-color="#DED5BE"/>
<stop offset="1" stop-color="#E3CB97"/>
</linearGradient>
<linearGradient id="paint38_linear_15_3497" x1="76.1233" y1="376.902" x2="91.3642" y2="-32.838" gradientUnits="userSpaceOnUse">
<stop stop-color="#DED5BE"/>
<stop offset="1" stop-color="#E3CB97"/>
</linearGradient>
<clipPath id="clip0_15_3497">
<rect width="150" height="302" fill="white" transform="matrix(-1 0 0 1 150 0)"/>
</clipPath>
</defs>
</svg>