<?xml version="1.0" encoding="UTF-8"?>
<svg xmlns="http://www.w3.org/2000/svg" version="1.1" viewBox="0 0 500 500">
  <!-- Generator: Adobe Illustrator 29.3.0, SVG Export Plug-In . SVG Version: 2.1.0 Build 146)  -->
  <defs>
    <style>
      .st0, .st1, .st2, .st3, .st4, .st5, .st6 {
        stroke-linecap: round;
        stroke-linejoin: round;
      }

      .st0, .st1, .st2, .st3, .st5 {
        stroke: #263238;
      }

      .st0, .st4 {
        fill: none;
      }

      .st7, .st8, .st1, .st9 {
        fill: #fff;
      }

      .st7, .st10 {
        opacity: .5;
      }

      .st8 {
        opacity: .7;
      }

      .st2, .st6 {
        fill: #263238;
      }

      .st3 {
        fill: #c6ff00;
      }

      .st11, .st5 {
        fill: #dc3545;
      }

      .st4, .st6 {
        stroke: #fff;
      }
    </style>
  </defs>
  <g id="Background_Simple">
    <g>
      <path class="st11" d="M113.7,380.5s37.7,36.5,96.9,37,74.5-51,95.1-60.3,44.1,12.7,88.4,7.8c44.4-4.9,72.8-72.6,41.5-112-31.3-39.4-76.5-56.1-72.4-79.7,4.1-23.6,30.5-49,2.7-70.5-27.8-21.5-65.5-37.7-141.4-13.2-75.9,24.5-78.3,70.4-136,76.7-57.7,6.4-69.1,52.5-33.3,98.4,35.7,45.9,24.3,85,58.4,115.7Z"/>
      <path class="st8" d="M113.7,380.5s37.7,36.5,96.9,37,74.5-51,95.1-60.3,44.1,12.7,88.4,7.8c44.4-4.9,72.8-72.6,41.5-112-31.3-39.4-76.5-56.1-72.4-79.7,4.1-23.6,30.5-49,2.7-70.5-27.8-21.5-65.5-37.7-141.4-13.2-75.9,24.5-78.3,70.4-136,76.7-57.7,6.4-69.1,52.5-33.3,98.4,35.7,45.9,24.3,85,58.4,115.7Z"/>
      <g class="st10">
        <path class="st9" d="M43.1,245.7l195.9-86.5-203.7,49.2c-1.4,11.3,1.2,24.1,7.8,37.3Z"/>
        <path class="st9" d="M100.8,365.6l144.9-198.1-162.5,154.5c4.8,15.8,8.7,30.3,17.6,43.6Z"/>
        <path class="st9" d="M158.5,407.4l91.9-237.3-131.4,214.9c7,5.5,20.6,15.1,39.4,22.4Z"/>
        <path class="st9" d="M88.6,166.4c-18.5,2-32.3,8.2-41.2,17.1l190.1-29.5-107.9-2.7c-10.9,7.5-23.4,13.1-40.9,15.1Z"/>
        <path class="st9" d="M210.6,417.5c6.7,0,12.9-.6,18.6-1.7l26.5-244.5-71.8,243.4c8.3,1.6,17.3,2.7,26.8,2.7Z"/>
        <path class="st9" d="M74.8,298.1l167-134.4-186.2,101.4c8.8,11.4,14.8,22.4,19.2,33Z"/>
        <path class="st9" d="M394.2,365c9.8-1.1,18.9-5.3,26.7-11.5l-150.1-186.6,108.2,198.8c4.8,0,9.8-.1,15.2-.7Z"/>
        <path class="st9" d="M448.9,290.6l-174.4-127.6,162.9,171.2c7.7-12.9,12-28.4,11.6-43.7Z"/>
        <path class="st9" d="M435.7,253.1c-21-26.4-48.2-42.6-62.6-57.5l-96-37.2,161.6,98.8c-.9-1.4-1.9-2.7-2.9-4Z"/>
        <path class="st9" d="M363.3,173.3c.6-3.5,1.7-7.1,3.1-10.7l-88.1-9.5,84.8,25c-.2-1.6-.1-3.2.2-4.8Z"/>
        <path class="st9" d="M291.7,369.2l-30.7-198-5.9,234.1c16.5-10.4,27.1-25.4,36.6-36.2Z"/>
        <path class="st9" d="M145.4,138.7l92,10-77.3-22.8c-5.2,4.4-10,8.7-14.7,12.8Z"/>
        <path class="st9" d="M351.1,362l-84.9-192.3,44.8,185.8c11.3-2.4,23.7,2.6,40.1,6.5Z"/>
        <path class="st9" d="M230.1,88l19.5,44.1-11.2-46.5c-2.7.7-5.4,1.5-8.2,2.4Z"/>
        <path class="st9" d="M366.2,103l-89.6,39.5,100.9-24.3c-1.6-5.2-5-10.3-11.3-15.2Z"/>
        <path class="st9" d="M377.9,132.2l-99.7,15.5,93.5,2.3c2.6-6,5.1-11.9,6.2-17.8Z"/>
        <path class="st9" d="M338.2,86.2l-64.4,51.8,80-43.6c-4.9-3-10.1-5.8-15.7-8.2Z"/>
        <polygon class="st9" points="278.2 147.7 265.7 147.4 276.7 142.5 264.5 145.5 273.9 138 262.9 143.9 270 134.2 260.9 142.9 265.3 131.7 258.8 142.3 260.1 130.4 256.5 142.4 254.7 130.5 254.4 143 249.5 132 252.4 144.2 244.9 134.8 250.9 145.8 241.2 138.7 249.8 147.8 238.6 143.4 249.3 149.9 237.4 148.7 249.3 152.2 237.5 154 250 154.3 239 159.2 251.1 156.3 241.8 163.8 252.8 157.8 254.5 155.5 256.2 155 255.8 156.2 257.4 155.3 257.2 156.5 254.7 158.9 250.4 170.1 256.9 159.4 255.6 171.4 259.2 159.4 261 171.2 261.3 158.7 266.2 169.7 263.2 157.6 270.8 166.9 264.8 155.9 274.5 163 265.9 154 277 158.3 266.4 151.8 278.3 153.1 266.3 149.6 278.2 147.7"/>
        <path class="st9" d="M310.7,78.6l-40.7,55.6,55.3-52.6c-4.6-1.3-9.4-2.3-14.6-3Z"/>
        <polygon class="st9" points="252.8 157.8 245.7 167.5 254.7 158.9 255.8 156.2 252.8 157.8"/>
        <path class="st9" d="M247.3,83.2l7.3,47.3,1.2-49.2c-2.8.6-5.6,1.2-8.6,1.9Z"/>
        <path class="st9" d="M192.6,103.2l48.6,35.5-38.6-40.5c-3.5,1.6-6.9,3.3-10,5Z"/>
        <path class="st9" d="M212.2,94.1l32.8,40.7-23.9-44c-3.1,1-6,2.1-8.8,3.3Z"/>
        <path class="st9" d="M170.9,117.2l67.8,26.2-56.1-34.3c-4.2,2.6-8,5.3-11.6,8.1Z"/>
        <path class="st9" d="M286.3,77.5l-21,54.2,33.1-54.2c-3.9-.2-7.9-.2-12.1,0Z"/>
        <path class="st9" d="M265.5,79.6l-5.5,50.8,15.4-52.1c-3.2.3-6.5.8-9.9,1.3Z"/>
      </g>
    </g>
  </g>
  <g id="Shadow">
    <g>
      <ellipse class="st11" cx="253.7" cy="388.1" rx="199.7" ry="55.3"/>
      <ellipse class="st7" cx="253.7" cy="388.1" rx="199.7" ry="55.3"/>
    </g>
  </g>
  <g id="Plants">
    <g>
      <g>
        <path class="st11" d="M408.2,198.9s29.8,34.4,29.9,77.1c.2,42.6-29.4,77.4-29.4,77.4,0,0-29.8-34.4-29.9-77.1-.2-42.6,29.4-77.4,29.4-77.4Z"/>
        <path class="st11" d="M473.7,296.5s.2,28-14.9,45.8c-15.1,17.8-39.6,18.7-39.6,18.7,0,0-.2-28,14.9-45.8,15.1-17.8,39.6-18.7,39.6-18.7Z"/>
        <path class="st11" d="M344.3,293.9s-1.2,28,13.1,46.5c14.4,18.5,38.9,20.6,38.9,20.6,0,0,1.2-28-13.1-46.5-14.4-18.5-38.9-20.6-38.9-20.6Z"/>
      </g>
      <g class="st10">
        <path class="st9" d="M408.2,198.9s29.8,34.4,29.9,77.1c.2,42.6-29.4,77.4-29.4,77.4,0,0-29.8-34.4-29.9-77.1-.2-42.6,29.4-77.4,29.4-77.4Z"/>
        <path class="st9" d="M473.7,296.5s.2,28-14.9,45.8c-15.1,17.8-39.6,18.7-39.6,18.7,0,0-.2-28,14.9-45.8,15.1-17.8,39.6-18.7,39.6-18.7Z"/>
        <path class="st9" d="M344.3,293.9s-1.2,28,13.1,46.5c14.4,18.5,38.9,20.6,38.9,20.6,0,0,1.2-28-13.1-46.5-14.4-18.5-38.9-20.6-38.9-20.6Z"/>
      </g>
      <g>
        <path class="st9" d="M390,313.9h0c.3-.4.8-.5,1.1-.2l15.6,14c.5.5,1.3,0,1.3-.7v-32.3c-.1-.3-.2-.5-.4-.7l-23.5-23.7c-.3-.3-.3-.9,0-1.2h0c.3-.4.8-.4,1.1,0l21.4,21.6c.5.5,1.3,0,1.3-.7v-35.5c-.1-.3-.2-.5-.4-.7l-15.5-15.3c-.3-.3-.4-.9,0-1.2h0c.3-.4.8-.4,1.1,0l13.5,13.3c.5.5,1.3,0,1.3-.7l-.2-50.1c0-.5.3-.9.8-.9h0c.4,0,.8.4.8.9l.3,74.3c0,.9,1,1.2,1.4.5l17.4-29.1c.2-.4.7-.5,1.1-.2h0c.4.3.4.8.2,1.2l-20,33.3h-.1c0,0,.1,30.4.1,30.4,0,.8.8,1.2,1.3.7l21.3-21.8c.3-.3.8-.3,1.1,0h0c.3.4.3.9,0,1.2l-23.6,24.1h0s.1,38,.1,38c0,.5-.3.9-.8.9h0c-.4,0-.8-.4-.8-.9v-20.9c0-.3-.2-.5-.4-.7l-17.6-15.7c-.3-.3-.4-.9-.1-1.2Z"/>
        <path class="st9" d="M345.2,295.7h0c.3-.3.8-.3,1.1,0l23.6,30.1c.5.6,1.4.2,1.3-.7l-1.9-17.5c0-.5.2-.9.7-1h0c.4,0,.8.3.9.8l2.5,22.8h0s9.2,11.7,9.2,11.7c.4.6,1.3.3,1.3-.5l1.7-16.8c0-.5.4-.8.9-.8h0c.4,0,.7.5.7,1l-2,19.9c0,.2,0,.5.2.7l12.3,15.7c.3.4.3.9,0,1.2h0c-.3.3-.8.3-1.1,0l-6.7-8.5c-.2-.2-.4-.3-.6-.3l-12.3.8c-.4,0-.8-.3-.8-.8h0c0-.5.3-.9.7-.9l9.8-.7c.6,0,1-.9.5-1.5l-9.9-12.5c-.1-.2-.4-.3-.6-.3h-17.6c-.4,0-.8-.4-.8-.9h0c0-.5.3-.9.8-.9h14.8c.7,0,1-.9.6-1.5l-10.9-13.9c-.1-.2-.4-.3-.6-.3l-11.3.2c-.4,0-.8-.4-.8-.9h0c0-.5.3-.9.8-.9h8.6c.7-.1,1-1,.6-1.6l-15.8-20.2c-.3-.4-.3-.9,0-1.2Z"/>
        <path class="st9" d="M425.3,335.9h0c.4,0,.8.3.9.8l1.3,11.1c0,.7.9,1,1.3.5l10.2-12.1c.2-.2.2-.4.2-.7l-1.3-20c0-.5.3-.9.7-.9h0c.4,0,.8.3.8.8l1.1,16.8c0,.8.9,1.1,1.3.5l11.3-13.4c.2-.2.2-.4.2-.7l-1-12.8c0-.5.3-.9.7-1h0c.4,0,.8.3.8.8l.7,9.8c0,.8.9,1.1,1.3.5l16.5-19.5c.3-.4.8-.4,1.1,0h0c.3.3.3.9,0,1.2l-24.6,29.1c-.5.6,0,1.6.7,1.5l15.2-3.5c.4,0,.8.2.9.7h0c0,.5-.2.9-.6,1l-19.8,4.6h0s-9.6,11.3-9.6,11.3c-.5.5-.1,1.5.5,1.5l14.8.6c.4,0,.8.4.7.9h0c0,.5-.4.9-.8.8l-17.6-.8c-.2,0-.4,0-.6.3l-12.8,15.2c-.3.4-.8.4-1.1,0h0c-.3-.3-.3-.9,0-1.2l6.9-8.2c.2-.2.2-.5.2-.7l-1.7-13.9c0-.5.2-.9.7-1Z"/>
      </g>
    </g>
  </g>
  <g id="Device">
    <g>
      <g>
        <rect class="st1" x="240.3" y="157.2" width="33.7" height="8.7"/>
        <rect class="st2" x="246.9" y="157.2" width="5.3" height="8.7"/>
        <rect class="st1" x="235.7" y="165.5" width="42.8" height="8.7"/>
        <rect class="st2" x="243.6" y="165.5" width="6" height="8.7"/>
      </g>
      <g>
        <path class="st5" d="M257.1,132.4h0c-9.3,0-16.8,7.5-16.8,16.8v8.4h33.7v-8.4c0-9.3-7.5-16.8-16.8-16.8Z"/>
        <path class="st9" d="M266.2,140.8c0-1.9-1.5-3.4-3.4-3.4s-3.4,1.5-3.4,3.4,0,0,0,0c-.7-.2-1.4-.3-2.1-.3-3.8,0-6.8,3.1-6.8,6.8s3.1,6.8,6.8,6.8,6.8-3.1,6.8-6.8-.3-2.2-.8-3.2c1.6-.2,2.9-1.7,2.9-3.4Z"/>
        <path class="st0" d="M247.2,139.7c-.2.2-.4.4-.5.6-2.5,3-3,5.9-3.2,6.8-.1.9,0,6.3,0,6.3"/>
        <path class="st0" d="M252.8,135.5s-1.2.6-2.8,1.6"/>
        <line class="st3" x1="256.8" y1="116.7" x2="256.8" y2="126.1"/>
        <line class="st3" x1="270.3" y1="132.1" x2="275.7" y2="127.3"/>
        <line class="st3" x1="276.3" y1="147.9" x2="284.8" y2="147.9"/>
        <line class="st3" x1="243.8" y1="132.1" x2="238.4" y2="127.3"/>
        <line class="st3" x1="237.7" y1="147.9" x2="229.3" y2="147.9"/>
      </g>
    </g>
    <g>
      <g>
        <path class="st2" d="M147.6,173.7h218.8c4.4,0,8,3.6,8,8v152.9h-234.7v-152.9c0-4.4,3.6-8,8-8Z"/>
        <polygon class="st1" points="409.5 405.6 104.4 405.6 139.6 334.5 374.3 334.5 409.5 405.6"/>
        <rect class="st5" x="153.8" y="186.4" width="206.3" height="135.4"/>
        <rect class="st1" x="158.4" y="189.8" width="197.4" height="7"/>
        <rect class="st2" x="339.2" y="189.8" width="16.6" height="7"/>
        <g>
          <polygon class="st6" points="247.2 357 247.6 348.4 235.2 348.4 234.4 357 247.2 357"/>
          <polygon class="st6" points="272.8 357 272.4 348.4 260 348.4 260 357 272.8 357"/>
          <polygon class="st6" points="339.6 366.3 352.8 366.3 349.7 357 336.9 357 339.6 366.3"/>
          <polygon class="st6" points="234.4 357 235.2 348.4 222.8 348.4 221.5 357 234.4 357"/>
          <polygon class="st6" points="208.7 357 210.4 348.4 198 348.4 195.9 357 208.7 357"/>
          <polygon class="st6" points="324.1 357 322 348.4 309.6 348.4 311.3 357 324.1 357"/>
          <polygon class="st6" points="336.9 357 334.4 348.4 322 348.4 324.1 357 336.9 357"/>
          <polygon class="st6" points="195.9 357 198 348.4 185.6 348.4 183.1 357 195.9 357"/>
          <polygon class="st6" points="285.6 357 284.8 348.4 272.4 348.4 272.8 357 285.6 357"/>
          <polygon class="st6" points="349.7 357 346.8 348.4 334.4 348.4 336.9 357 349.7 357"/>
          <polygon class="st6" points="311.3 357 309.6 348.4 297.2 348.4 298.4 357 311.3 357"/>
          <polygon class="st6" points="298.4 357 297.2 348.4 284.8 348.4 285.6 357 298.4 357"/>
          <polygon class="st6" points="260 357 260 348.4 247.6 348.4 247.2 357 260 357"/>
          <polygon class="st6" points="170.3 357 157.5 357 153.9 366.3 167.2 366.3 170.3 357"/>
          <polygon class="st6" points="173.2 348.4 160.8 348.4 157.5 357 170.3 357 173.2 348.4"/>
          <polygon class="st6" points="183.1 357 185.6 348.4 173.2 348.4 170.3 357 183.1 357"/>
          <polygon class="st6" points="150.1 376.2 146 386.9 160.3 386.9 163.9 376.2 150.1 376.2"/>
          <polygon class="st6" points="167.2 366.3 153.9 366.3 150.1 376.2 163.9 376.2 167.2 366.3"/>
          <polygon class="st6" points="163.9 376.2 160.3 386.9 174.5 386.9 177.6 376.2 163.9 376.2"/>
          <polygon class="st6" points="221.5 357 222.8 348.4 210.4 348.4 208.7 357 221.5 357"/>
          <polygon class="st6" points="220.2 366.3 221.5 357 208.7 357 207 366.3 220.2 366.3"/>
          <polygon class="st6" points="207 366.3 208.7 357 195.9 357 193.7 366.3 207 366.3"/>
          <polygon class="st6" points="233.5 366.3 234.4 357 221.5 357 220.2 366.3 233.5 366.3"/>
          <polygon class="st6" points="183.1 357 170.3 357 167.2 366.3 180.4 366.3 183.1 357"/>
          <polygon class="st6" points="342.4 376.2 356.2 376.2 352.8 366.3 339.6 366.3 342.4 376.2"/>
          <polygon class="st6" points="193.7 366.3 195.9 357 183.1 357 180.4 366.3 193.7 366.3"/>
          <polygon class="st6" points="167.2 366.3 163.9 376.2 177.6 376.2 180.4 366.3 167.2 366.3"/>
          <polygon class="st6" points="313 366.3 311.3 357 298.4 357 299.8 366.3 313 366.3"/>
          <polygon class="st6" points="299.8 366.3 298.4 357 285.6 357 286.5 366.3 299.8 366.3"/>
          <polygon class="st6" points="339.6 366.3 336.9 357 324.1 357 326.3 366.3 339.6 366.3"/>
          <polygon class="st6" points="260 366.3 260 357 247.2 357 246.7 366.3 260 366.3"/>
          <polygon class="st6" points="286.5 366.3 285.6 357 272.8 357 273.3 366.3 286.5 366.3"/>
          <polygon class="st6" points="273.3 366.3 272.8 357 260 357 260 366.3 273.3 366.3"/>
          <polygon class="st6" points="246.7 366.3 247.2 357 234.4 357 233.5 366.3 246.7 366.3"/>
          <polygon class="st6" points="286.5 366.3 287.5 376.2 301.2 376.2 299.8 366.3 286.5 366.3"/>
          <polygon class="st6" points="299.8 366.3 301.2 376.2 315 376.2 313 366.3 299.8 366.3"/>
          <polygon class="st6" points="180.4 366.3 177.6 376.2 191.3 376.2 193.7 366.3 180.4 366.3"/>
          <polygon class="st6" points="313 366.3 315 376.2 328.7 376.2 326.3 366.3 313 366.3"/>
          <polygon class="st6" points="260 366.3 260 376.2 273.7 376.2 273.3 366.3 260 366.3"/>
          <polygon class="st6" points="326.3 366.3 328.7 376.2 342.4 376.2 339.6 366.3 326.3 366.3"/>
          <polygon class="st6" points="273.3 366.3 273.7 376.2 287.5 376.2 286.5 366.3 273.3 366.3"/>
          <polygon class="st6" points="207 366.3 205.1 376.2 218.8 376.2 220.2 366.3 207 366.3"/>
          <polygon class="st6" points="193.7 366.3 191.3 376.2 205.1 376.2 207 366.3 193.7 366.3"/>
          <polygon class="st6" points="246.7 366.3 246.3 376.2 260 376.2 260 366.3 246.7 366.3"/>
          <polygon class="st6" points="233.5 366.3 232.5 376.2 246.3 376.2 246.7 366.3 233.5 366.3"/>
          <polygon class="st6" points="220.2 366.3 218.8 376.2 232.5 376.2 233.5 366.3 220.2 366.3"/>
          <polygon class="st6" points="326.3 366.3 324.1 357 311.3 357 313 366.3 326.3 366.3"/>
          <polygon class="st6" points="173.2 348.4 176.1 339.5 164.1 339.5 160.8 348.4 173.2 348.4"/>
          <polygon class="st6" points="160.8 348.4 149.3 348.4 145.6 357 157.5 357 160.8 348.4"/>
          <polygon class="st6" points="164.1 339.5 153.1 339.5 149.3 348.4 160.8 348.4 164.1 339.5"/>
          <polygon class="st6" points="157.5 357 145.6 357 141.7 366.3 153.9 366.3 157.5 357"/>
          <polygon class="st6" points="153.9 366.3 141.7 366.3 137.4 376.2 150.1 376.2 153.9 366.3"/>
          <polygon class="st6" points="150.1 376.2 137.4 376.2 132.9 386.9 146 386.9 150.1 376.2"/>
          <polygon class="st6" points="362.5 357 366.1 366.3 377.8 366.3 373.9 357 362.5 357"/>
          <polygon class="st6" points="369.9 376.2 382 376.2 377.8 366.3 366.1 366.3 369.9 376.2"/>
          <polygon class="st6" points="374 386.9 386.6 386.9 382 376.2 369.9 376.2 374 386.9"/>
          <polygon class="st6" points="272.4 348.4 272 339.5 260 339.5 260 348.4 272.4 348.4"/>
          <polygon class="st6" points="362.5 357 373.9 357 370.2 348.4 359.2 348.4 362.5 357"/>
          <polygon class="st6" points="356.2 376.2 369.9 376.2 366.1 366.3 352.8 366.3 356.2 376.2"/>
          <polygon class="st6" points="185.6 348.4 188.1 339.5 176.1 339.5 173.2 348.4 185.6 348.4"/>
          <polygon class="st6" points="346.8 348.4 349.7 357 362.5 357 359.2 348.4 346.8 348.4"/>
          <polygon class="st6" points="370.2 348.4 366.4 339.5 355.8 339.5 359.2 348.4 370.2 348.4"/>
          <polygon class="st6" points="359.2 348.4 355.8 339.5 343.8 339.5 346.8 348.4 359.2 348.4"/>
          <polygon class="st6" points="315 376.2 317 386.9 331.3 386.9 328.7 376.2 315 376.2"/>
          <polygon class="st6" points="359.7 386.9 374 386.9 369.9 376.2 356.2 376.2 359.7 386.9"/>
          <polygon class="st6" points="346.8 348.4 343.8 339.5 331.8 339.5 334.4 348.4 346.8 348.4"/>
          <polygon class="st6" points="342.4 376.2 345.5 386.9 359.7 386.9 356.2 376.2 342.4 376.2"/>
          <polygon class="st6" points="328.7 376.2 331.3 386.9 345.5 386.9 342.4 376.2 328.7 376.2"/>
          <polygon class="st6" points="352.8 366.3 366.1 366.3 362.5 357 349.7 357 352.8 366.3"/>
          <polygon class="st6" points="235.2 348.4 236 339.5 224 339.5 222.8 348.4 235.2 348.4"/>
          <polygon class="st6" points="334.4 348.4 331.8 339.5 319.9 339.5 322 348.4 334.4 348.4"/>
          <polygon class="st6" points="222.8 348.4 224 339.5 212.1 339.5 210.4 348.4 222.8 348.4"/>
          <polygon class="st6" points="260 348.4 260 339.5 248 339.5 247.6 348.4 260 348.4"/>
          <polygon class="st6" points="210.4 348.4 212.1 339.5 200.1 339.5 198 348.4 210.4 348.4"/>
          <polygon class="st6" points="198 348.4 200.1 339.5 188.1 339.5 185.6 348.4 198 348.4"/>
          <polygon class="st6" points="247.6 348.4 248 339.5 236 339.5 235.2 348.4 247.6 348.4"/>
          <polygon class="st6" points="322 348.4 319.9 339.5 307.9 339.5 309.6 348.4 322 348.4"/>
          <polygon class="st6" points="309.6 348.4 307.9 339.5 295.9 339.5 297.2 348.4 309.6 348.4"/>
          <polygon class="st6" points="284.8 348.4 283.9 339.5 272 339.5 272.4 348.4 284.8 348.4"/>
          <polygon class="st6" points="315 376.2 301.2 376.2 287.5 376.2 273.7 376.2 260 376.2 246.3 376.2 232.5 376.2 218.8 376.2 205.1 376.2 191.3 376.2 177.6 376.2 174.5 386.9 188.8 386.9 203 386.9 217.3 386.9 231.5 386.9 245.8 386.9 260 386.9 274.3 386.9 288.5 386.9 302.8 386.9 317 386.9 315 376.2"/>
          <polygon class="st6" points="297.2 348.4 295.9 339.5 283.9 339.5 284.8 348.4 297.2 348.4"/>
        </g>
        <rect class="st2" x="104.4" y="405.6" width="305.3" height="4.3"/>
      </g>
      <g>
        <path class="st2" d="M261.8,210.5l47.1,81.6c2.1,3.7-.5,8.3-4.8,8.3h-94.2c-4.3,0-6.9-4.6-4.8-8.3l47.1-81.6c2.1-3.7,7.5-3.7,9.6,0Z"/>
        <path class="st4" d="M261,217.7l39.4,70.1c1.8,3.2-.4,7.1-4,7.1h-78.8c-3.6,0-5.8-4-4-7.1l39.4-70.1c1.8-3.2,6.2-3.2,8,0Z"/>
        <path class="st9" d="M249.6,238.2c-.4-3,.8-5.1,3.4-6.4,2.7-1.3,5.3-1.3,8,0,2.7,1.3,3.8,3.4,3.4,6.4l-3.6,28.9c-.1,1.2-.6,2.1-1.3,2.8-.8.7-1.6,1-2.4,1s-1.7-.3-2.4-1c-.8-.7-1.2-1.6-1.3-2.8l-3.7-28.9ZM252.5,288.5c-1.3-1.3-1.9-2.9-1.9-4.7s.6-3.4,1.9-4.7c1.2-1.3,2.8-2,4.7-2s3.3.6,4.6,1.9c1.3,1.2,1.9,2.8,1.9,4.8s-.6,3.4-1.9,4.7c-1.3,1.3-2.8,2-4.7,2s-3.4-.6-4.7-1.9Z"/>
      </g>
    </g>
  </g>
</svg>