<?xml version="1.0" encoding="UTF-8"?>
<svg id="Layer_1" xmlns="http://www.w3.org/2000/svg" version="1.1" viewBox="0 0 50 50">
  <!-- Generator: Adobe Illustrator 29.2.1, SVG Export Plug-In . SVG Version: 2.1.0 Build 116)  -->
  <defs>
    <style>
      .st0 {
        fill: #00000e;
      }
    </style>
  </defs>
  <path class="st0" d="M49.1.4c.3.2.6.5.6.9v39.6c0,.2-.5.6-.7.6h-17.4v7.7c0,.3-.6.6-.9.5H1.3c-.4,0-.7-.3-.9-.6V9.1c0-.2.5-.6.7-.6h17.4V.9c0-.1.4-.4.5-.5,0,0,30.1,0,30.1,0ZM48,2h-26.1c2.7,2.3,5.9,4.1,8.7,6.3,2.8,2.2.9.6.9.9v30.5h16.4V2h.1ZM28.1,8.5l-8-5.7v5.7h8ZM29.9,10.2H2v37.8h27.9V10.2Z"/>
  <path class="st0" d="M5.5,31.3c0-.2-.2-.5-.2-.7V14.1c.2-.4.4-.6.8-.6h20.1l.4.5v17l-.4.4H5.8s-.3,0-.3-.2h0ZM25,15.2H6.9v9.6c1.4-1,2.7-2.4,4.1-3.5s.8-.7,1.4-.2l4.4,4.4,3.8-3.7c.6-.2.8,0,1.2.4,1.1.9,2.1,2.3,3.3,3.2v-10.2h0ZM25,29.9v-2.1l-4.2-4.1-2.8,2.8c-.2.3,1,.9.9,1.2l-1.1,1.1-6-6-4.9,4.2v2.8h18.1Z"/>
  <path class="st0" d="M5,37.3h7.1c.3.2.5.5.5.8-.2,2.1.2,4.5,0,6.6s-.2.8-.7.8c-2.1-.2-4.5.2-6.6,0s-.8-.2-.8-.7c-.2-2.1.2-4.6,0-6.7,0-.3.2-.6.6-.7h-.1ZM11,38.9h-4.9v4.9h4.9v-4.9Z"/>
  <rect class="st0" x="14.3" y="40.6" width="13.2" height="1.6"/>
  <polygon class="st0" points="27.5 45.5 14.3 45.5 14.3 43.9 27.4 43.9 27.5 44 27.5 45.5"/>
  <rect class="st0" x="17.6" y="37.3" width="9.9" height="1.6"/>
  <rect class="st0" x="14.3" y="37.3" width="1.6" height="1.6"/>
  <path class="st0" d="M45.3,30.5c-.2.1-.5.2-.7.2-3.1-.2-6.5.3-9.5,0s-.9-.2-1-.8v-4.9c0-1.1.4-.9,1.1-.9,3-.3,6.3.2,9.2,0,.5,0,1,.2,1.1.7-.2,1.6.2,3.6,0,5.2s0,.4-.2.5ZM43.9,25.9h-8.2v3.3h8.2v-3.3Z"/>
  <path class="st0" d="M34.3,10.8c0-.1-.2-.3-.2-.5v-5.1c0-1,.3-.7.8-.7,3.1-.3,6.7.2,9.9,0,.5,0,.7.3.7.8v5c0,1.1-.4.7-.9.7-3.1-.2-6.6.3-9.6,0s-.5,0-.7-.2ZM43.9,6.1h-8.2v3.3h8.2s0-3.3,0-3.3Z"/>
  <rect class="st0" x="34" y="19.2" width="11.5" height="1.6"/>
  <rect class="st0" x="34" y="35.7" width="11.5" height="1.6"/>
  <rect class="st0" x="34" y="15.9" width="11.5" height="1.6"/>
  <rect class="st0" x="37.3" y="32.4" width="8.2" height="1.6"/>
  <rect class="st0" x="37.3" y="12.7" width="8.2" height="1.6"/>
  <rect class="st0" x="34" y="32.4" width="1.6" height="1.6"/>
  <rect class="st0" x="34" y="12.7" width="1.6" height="1.6"/>
  <path class="st0" d="M16.2,16.8c3.6-.6,4,4.6.8,4.9-3.2.3-3.6-4.4-.8-4.9ZM16.2,18.7c-.9,1,.9,2,1.4.9s-.8-1.6-1.4-.9Z"/>
  <rect class="st0" x="21.7" y="18.5" width="1.6" height="1.6"/>
  <rect class="st0" x="9.4" y="16.8" width="1.6" height="1.6"/>
</svg>