<?xml version="1.0" encoding="UTF-8"?>
<svg id="Layer_1" xmlns="http://www.w3.org/2000/svg" version="1.1" viewBox="0 0 50 50">
  <!-- Generator: Adobe Illustrator 29.2.1, SVG Export Plug-In . SVG Version: 2.1.0 Build 116)  -->
  <defs>
    <style>
      .st0 {
        fill: #00000e;
      }
    </style>
  </defs>
  <path class="st0" d="M14,49.7h-1.6c-1.6-1.3-3-2.9-4.3-4.5-3.1-3.7-5.9-7.9-7.3-12.6l-.5-2.5v-2c.4-5,3.9-9.4,8.8-10.8,8.7-2.5,17,4.4,15.9,13.5-1.1,9.1-5.7,12.3-9.7,16.8,0,.2.9.7.5,1.5s-.8.5-1.4.5-.2,0-.2,0h-.2ZM11.7,18.8c-4.8.4-8.7,4.1-9.3,8.9-.6,4.8,4.8,13.6,8.7,17.9s1.4,1.6,1.5,1.5c3.8-4.1,8-9,9.7-14.4s-2.6-14.6-10.6-14h0Z"/>
  <path class="st0" d="M40.7.3c4.5-.4,8.7,3.1,9,7.7.3,4.6-4.8,10.7-7.2,14.3-.2.9.4,2.8-1.1,2.8s-.9-1.9-1.1-2.8c-2.4-3.6-5.7-7.7-6.9-11.9S35.8.7,40.7.3ZM41.4,20.2c1.7-2.2,3.3-4.6,4.6-7.1s2.3-4.5,1.1-7.1c-1.9-4.4-8.1-5-10.7-1-2.1,3-.8,5.6.7,8.4s2.9,4.5,4.3,6.8Z"/>
  <path class="st0" d="M33,30.1c.3.3.4.8.3,1.2s-1.4,1.3-1.8,1.8-1.1,2.1-1.6,2.2c-.8.2-1.5-.4-1.3-1.2s1.2-2.2,1.7-2.8,2-1.9,2.8-1.2c0,0,0,0-.1,0Z"/>
  <path class="st0" d="M40.3,27.2c.8-.2,1.4.7,1.1,1.5-.6,1.4-3.6,2.5-5,2.3s-1.2-1.7,0-2,2-.1,2.9-1,.5-.8,1-.9h0Z"/>
  <path class="st0" d="M26.7,43.1c-.5.5-1.4.3-1.7-.3s.4-1.4.7-2.1.8-2.2,1.2-2.8,1.6-.7,1.8,0-.5,2.2-.8,2.8-.9,2-1.3,2.3h0Z"/>
  <path class="st0" d="M22.9,44.7c1.1-.2,1.7,1.1.8,1.9s-3.6,2.2-4.5,2.2-1.4-1.2-.7-1.8,1.9-.8,2.5-1.1,1.5-1.1,1.9-1.2Z"/>
  <path class="st0" d="M11.7,23c6.9-.8,9.8,8.1,4,11.5-5.8,3.4-10.6-1.7-9-7.1.7-2.2,2.7-4.1,5-4.3h0ZM12.2,25c-5.4.5-4.7,8.8,1,8.2s4.4-8.7-1-8.2Z"/>
  <path class="st0" d="M42.9,10c-1.9,1.9-4.8-1-2.9-2.9s4.9,1,2.9,2.9Z"/>
</svg>