<?xml version="1.0" encoding="UTF-8"?>
<svg id="Layer_1" xmlns="http://www.w3.org/2000/svg" version="1.1" viewBox="0 0 560 540.6">
  <!-- Generator: Adobe Illustrator 29.1.0, SVG Export Plug-In . SVG Version: 2.1.0 Build 142)  -->
  <defs>
    <style>
      .st0 {
        fill: #fff;
      }
    </style>
  </defs>
  <path class="st0" d="M441.1,526.8H135.7c-6.7-1.5-13.5-2.5-20.2-4.3-37.2-10-68.3-41.2-78.3-78.3s-2.8-13.4-4.3-20.2v-44.9c6-19.7,27.7-30,45.4-17s9.8,37.6,11.5,56.4c2.5,27.7,25.8,49.7,53.3,51.5h291.5c26.4-1.9,49.1-23.3,52.1-49.7,2.2-19.3-6.1-44.8,11.8-58.1,18.2-13.6,43.2-1.6,45.4,20.5,6.4,64-19,121.4-83.4,140.1l-19.4,4.1Z"/>
  <path class="st0" d="M316.3,315.2c1.7.4,2-.7,3-1.5,21.8-16.7,42-46.3,63.9-63.9,25.5-20.6,59.3,8.7,42.8,36.8-38.3,36.5-75.2,82.2-115.1,116.5s-23.8,14.1-38.4,5.4c-36.2-38.4-81.7-75-115.9-114.7-3.3-3.8-7.2-8.5-8.7-13.3-8.5-28.1,23.1-48.9,45.6-30.7,21.8,17.6,42,47.2,63.9,63.9,1,.8,1.3,1.9,3,1.5V37.3c0-.8,3.7-8.2,4.6-9.4,11.2-16,35.6-16,46.8,0,.8,1.2,4.6,8.6,4.6,9.4v278Z"/>
</svg>