<?xml version="1.0" encoding="UTF-8"?>
<svg id="Layer_1" xmlns="http://www.w3.org/2000/svg" version="1.1" viewBox="0 0 50 50">
  <!-- Generator: Adobe Illustrator 29.2.1, SVG Export Plug-In . SVG Version: 2.1.0 Build 116)  -->
  <defs>
    <style>
      .st0 {
        fill: #00000e;
      }
    </style>
  </defs>
  <path class="st0" d="M2,49.8c-.4-.3-.7-.6-.7-1.1V1.4c0-.6.4-1.1,1-1.1h36.4c.4,0,.8.3.8.7v4.3c-.2,1.1-1.9.8-1.9,0v-3H3.3v45.6h23c.2-2.3.5-4.6.7-7l10.6-18.4c.2-2.9,0-5.9,0-8.8.2-.7.9-1.1,1.6-.6s.4.3.4.4v5.5l3.9-6.7c2-2.5,5.9-1.9,7,1.1l.3.9v1l-.8,1.9-10.4,18v13.8c0,.5-.4.6-.7.8,0,0-36.9,0-36.9,0ZM48.1,16.7c.9-1.2,1.2-2.8-.2-3.7s-2.9.3-3.5,1.7c1.1.6,2.2,1.4,3.3,1.9s.3.2.5.1h0ZM43.5,16.3l-14.1,24.4,3.5,2.1h.2l14.1-24.4-3.6-2.2h-.1ZM37.7,47.8v-9.2l-3.6,6.1c-1.2,1.1-2.7,2-4,3h7.6ZM28.3,46.7l3.2-2.3-2.8-1.6s-.4,3.9-.4,3.9Z"/>
  <path class="st0" d="M10.5,10.5h19.8c1.3.1,1.2,1.8,0,1.9H10.4c-.8-.6-.8-1.5.1-1.9Z"/>
  <path class="st0" d="M10.5,16h19.8c1.3.1,1.2,1.8,0,1.9H10.4c-.8-.6-.8-1.5.1-1.9Z"/>
  <path class="st0" d="M10.5,26.8h19.8c1.3.1,1.2,1.8,0,1.9H10.4c-.8-.6-.8-1.5.1-1.9Z"/>
  <path class="st0" d="M10.5,37.6h8.9c1.2.2,1.1,1.8,0,1.9h-8.7c-1-.3-1.1-1.5,0-1.9h-.2Z"/>
  <path class="st0" d="M22.9,21.4h7.5c1.2.2,1.1,1.8,0,1.9-2.2-.2-5.2.3-7.3,0s-1.1-1.7,0-1.9c0,0-.2,0-.2,0Z"/>
  <path class="st0" d="M10.5,21.4h6.8c1.1.3,1.1,1.6,0,1.9h-6.8c-1-.3-1.1-1.5,0-1.9Z"/>
  <path class="st0" d="M19.9,32.2c1.9.2,4.5-.3,6.3,0s1.1,1.7,0,1.9c-1.9-.2-4.4.3-6.3,0s-1.1-1.7,0-1.9Z"/>
  <path class="st0" d="M10.5,32.2h5.4c1,.2,1.1,1.7,0,1.9s-4.5,0-5.3,0-1.1-1.6,0-1.9h0Z"/>
  <path class="st0" d="M38.5,8.5c1.4-.3,1.7,1.8.4,1.9s-1.5-1.7-.4-1.9Z"/>
</svg>