<?xml version="1.0" encoding="UTF-8"?>
<svg id="Layer_1" xmlns="http://www.w3.org/2000/svg" version="1.1" viewBox="0 0 527.7 566.6">
  <!-- Generator: Adobe Illustrator 29.3.1, SVG Export Plug-In . SVG Version: 2.1.0 Build 151)  -->
  <defs>
    <style>
      .st0 {
        fill: #00000e;
      }
    </style>
  </defs>
  <path class="st0" d="M279.2,38.6c45.1.8,83.8,42.7,86.1,86.6,20.5-2.7,40.6-1.8,54.7,16.1,2,2.6,7.9,13.6,4.9,15.5l2,.7v82.4l-2,1.2c0-.8.2-1.9.7-2,9.5-.9,29.1-1,38.6,0l1.2,2c2-3.6,7.5.9,9.8,3.1s4.4,4.8,5.5,9.2,1.4,40-.4,45.5c-1.5,4.6-9.3,15.3-13.8,11,0,.8-.2,1.9-.7,2-9.9.9-29.7,1-39.6,0l-1.2-2c.8,0,1.9.3,2,.9.3,3.3.6,24.7,0,26.6l-2,1.5c0-.8.2-2,.7-2,9.3-.8,29.6-1.1,38.6,0l1.2,2c3.4-4.3,12.5,4.9,14.2,8.6,2.8,6.1,2.5,44.2,0,50.9s-10.2,13.8-14.2,9.3c0,.8-.2,2-.7,2-9.1.7-30,1.2-38.6,0l-1.2-2c.8,0,1.9.3,2,.9.3,3.3.6,24.7,0,26.6l-2,1.5c0-.8.2-1.9.7-2,9.8-1.2,30.4-.8,40.5,0l1.2,2c3.1-4.7,11.2,5.8,12.7,9.6s2,44.1-.2,49-9.2,13.5-12.5,9.2c0,.8-.2,2-.7,2-10.3.8-30.5,1.1-40.5,0l-1.2-2c.8,0,1.9.3,2,.9.5,4.9.8,23.3,0,27.6l-2,1.4.9-2h81.7l1.2,2-2-1V232.9l2-1.2-2.1-1.1c-3.8-11.3-12.1-17.3-24.3-16.7-12,1.2-23.6.8-34.6-1.2-12.3-14.1-.3-18.2,12.6-18.9,25.9-1.5,58.9.1,63.5,32.4v312.4c-.8,6-3.1,11.1-10,11.1-163.6.1-327.3.1-490.9,0-8.1,0-10.9-7.6-10.6-14.6V227.1c.1-11.7,9.7-22.2,19.3-27.9s12.8-7,15.7-2.9l.9-2h61.3l1.2,2c-.8,0-2-.2-2-.7-.2-4.1-.9-33.1,0-34.6l2-1.2c-.9-.2-1.8-.6-1.9-1.4-.2-5.5,8.6-19.5,12.5-23.2,12.9-12.2,34-12.3,50-10,2.2-43.7,40.7-85.2,85.1-86.7h23ZM264,53.8c-61.6,3.1-96.6,71.8-63.7,124,31.1,49.4,104.5,49.2,135.8,0,35.1-55.3-6.9-127.2-72.1-124ZM126.5,159.8v374.8h59.9v-46.4c0-6.6,15-6.6,15,0v46.4h58.9v-131.7h-58.9v55.4c0,2-4.4,5.3-6.6,5.5-5.6.6-8-3.5-8.4-8.4-1.5-16.6,1.2-35.6,0-52.5-6.2,1-13.5-3.4-14.7-9.7s-.8-21.5,0-25.5,4.8-7.8,8.7-9.2l175-.2c4.3,1.2,8.6,5,9.5,9.5s.8,20.4.2,24.7c-1.1,6.8-8.4,11.1-14.9,10.5v131.7h59.9V161.8c0-1-2.7-8.1-3.5-9.4-9.4-14.6-27.7-9.1-42.3-10-6.1,65.2-73.4,106.4-134.5,80-31.9-13.8-54.2-45.2-57.3-80-15.4-.1-42.8-4.1-45.9,17.4ZM110.5,212.2H46.2c-7.3,0-18.5,12.4-18.5,19.5v302.9h82.8v-29.9h-41.4c-3.7,0-10.5-7.9-11.3-11.7s-1-40.7.2-45.2,7.6-10.9,11-10.9h41.4v-28.9h-39.4c-5.2,0-12.3-7.4-13.2-12.7s-1.1-39.9.2-45.2,8.7-10.9,13-10.9h39.4v-28.9h-40.4c-4.6,0-11.5-8.1-12.2-12.7s-1.2-39.9.2-45.2,9-10.9,13-10.9h39.4v-28.9ZM110.5,257.1h-37.9v36.9h37.9v-36.9ZM463.9,257.1h-38.9v36.9h38.9v-36.9ZM110.5,354.9h-37.9v36.9h37.9v-36.9ZM463.9,354.9h-38.9v36.9h38.9v-36.9ZM350.1,372.9h-163.7v15h163.7v-15ZM335.1,402.9h-58.9v131.7h58.9v-131.7ZM110.5,451.8h-37.9v36.4c0,.1,1.4,1.5,1.5,1.5h36.4v-37.9ZM463.9,451.8h-38.9v37.9h37.4c.1,0,1.5-1.4,1.5-1.5v-36.4Z"/>
  <path class="st0" d="M167.2,260.4c22.9,1.5,50.2-2.8,72.6-.2s12.8,6.6,13.5,14.4c.9,9.4,1,30.7,0,40-.8,7.2-6.2,12.6-13.5,13.5-21.7,2.7-48.6-2-70.9,0-7.1-.9-12.4-7.8-13.4-14.6-1-7.5-.9-37,1.4-43.3,1.8-4.8,5.3-8.2,10.2-9.8ZM238.3,275.1h-66.9v37.9h66.9v-37.9Z"/>
  <path class="st0" d="M294.9,260.4c22.8,1.6,50.5-2.9,72.6-.3,8.4,1,13.4,9.6,13.4,17.5s-1,3.8-1,5.9c0,9.4,1.2,23.1,0,31.9s-7.1,11.9-14.3,12.6c-21.8,2.1-46.8-1.6-68.9,0-7.1-1.5-12.6-6-13.5-13.5s-1.1-33.5,0-41.8c.9-6.1,5.7-10.9,11.6-12.3ZM365,275.1h-66.9v37.9h66.9v-37.9Z"/>
  <path class="st0" d="M235,454c4.7-1.4,9.9.4,11.1,5.5s.7,15.6,0,18.5c-1.8,7.9-13.8,7.9-15.5,0s-1.6-22.2,4.5-24Z"/>
  <path class="st0" d="M291.2,111.4h31.4c3.6,0,10.2,6.2,11,9.9s1,23.8-.5,27.6-7.6,8.4-10.6,8.4h-31.4v31.4c0,3-5.4,9.4-8.4,10.6s-23.3,1.5-27.6.5-9.9-7.4-9.9-11v-31.4h-31.4c-3.6,0-10.2-6.2-11-9.9s-1-23.8.5-27.6,7.6-8.4,10.6-8.4h31.4v-31.4c0-3,5.4-9.4,8.4-10.6s23.3-1.5,27.6-.5,9.9,7.4,9.9,11v31.4ZM275.2,83.5h-14v34.4c0,3.6-5.9,9.5-9.5,9.5h-34.4v14h34.4c3.6,0,9.5,5.9,9.5,9.5v34.4h14v-34.4c0-3.6,5.9-9.5,9.5-9.5h34.4v-14h-34.4c-3.6,0-9.5-5.9-9.5-9.5v-34.4Z"/>
  <path class="st0" d="M294.9,454c4.7-1.4,9.9.4,11.1,5.5s.7,15.6,0,18.5c-1.8,7.9-13.8,7.9-15.5,0s-1.6-22.2,4.5-24Z"/>
</svg>