<?xml version="1.0" encoding="UTF-8"?>
<svg id="Capa_1" xmlns="http://www.w3.org/2000/svg" version="1.1" viewBox="0 0 84 84">
  <!-- Generator: Adobe Illustrator 29.1.0, SVG Export Plug-In . SVG Version: 2.1.0 Build 142)  -->
  <defs>
    <style>
      .st0 {
        fill: #fff;
      }
    </style>
  </defs>
  <path class="st0" d="M41.4,83.4c-.7-.6-1.5-1.1-2.1-1.7-6.9-8-13.3-16.5-18.6-25.7-3.1-5.4-5.8-10.9-7.4-16.9-2.5-9-1.3-17.5,3.9-25.2C22.1,6.6,29.1,2.2,37.9.9c8.6-1.2,16.4,1,23.1,6.5,5.9,4.8,9.5,11.1,10.7,18.7.9,5.9-.2,11.5-2.2,17-2.7,7.4-6.6,14.1-11,20.6-4.3,6.3-8.9,12.3-13.8,18-.6.7-1.4,1.2-2.1,1.7-.4,0-.8,0-1.2,0ZM42,45.7c8.3,0,15.1-6.8,15.1-15.1s-6.7-15.1-15-15.1-15.1,6.8-15.1,15.1,6.7,15.1,15,15.1Z"/>
</svg>