<svg xmlns="http://www.w3.org/2000/svg" viewBox="0 0 566.7 179.7"><path d="M0 0h566.7v179.7H0z" style="fill:#fff"/><path d="M475.1 137.3H474v-6.4h1.8c1.6 0 3 .4 3 1.8s-1.4 1.8-3 1.8h-.7zm.6-3.3c1.1 0 1.8-.3 1.8-1.3s-.7-1.3-1.8-1.3h-.7v2.7h.7ZM484.2 135.2h-2.5l-.8 2.1h-.5l2.5-6.4h.8l2.5 6.4H485zm-2.3-.7h2l-1-2.6zM490.1 136.9h3v.4H489v-6.4h1.1zM497 136.9h3v.4h-4.1v-6.4h1.1zM506.3 135.2h-2.5l-.8 2.1h-.5l2.5-6.4h.8l2.5 6.4h-1.2zm-2.3-.7h2l-1-2.6zM513 130.9c2.2 0 3.8 1.2 3.8 3.2s-1.6 3.2-3.8 3.2h-1.9v-6.4zm-.7.5v5.5h.8c1.3 0 2.5-.6 2.5-2.7s-1.3-2.8-2.5-2.8zM520 130.9h1.1v6.4H520zM531.2 134.1c0 2-1.5 3.3-3.5 3.3s-3.5-1.3-3.5-3.3 1.5-3.3 3.5-3.3 3.5 1.3 3.5 3.3m-5.8 0c0 2 1.1 2.9 2.2 2.9s2.2-.9 2.2-2.9-1.1-2.9-2.2-2.9-2.2.9-2.2 2.9M474.7 141.2c.7 0 1.2.2 1.2.7s-.3.6-.7.7c.4 0 .9.3.9.8s-.7.8-1.4.8h-.8v-3zm-.4.2v1.2h.2c.5 0 .9 0 .9-.6s-.4-.6-.9-.6zm.3 2.7c.6 0 1 0 1-.6s-.4-.7-1-.7h-.3v1.3zM479.2 143.2H478l-.4 1h-.2l1.2-3h.3l1.2 3h-.4l-.4-1Zm-1.1-.3h1l-.5-1.3zM482 144.1h1.5v.2h-1.9v-3.1h.4zM485 141.2h1.9v.2h-1.5v1.2h1.3v.2h-1.3v1.3h1.5v.2H485zM492.4 141.2l-1 3.1h-.3l-.8-2.5-.8 2.5h-.3l-1-3.1h.5l.8 2.6.7-2.6h.3l.8 2.5.8-2.5zM495.2 143.2H494l-.4 1h-.2l1.2-3h.3l1.2 3h-.4l-.4-1Zm-1.1-.3h1l-.5-1.3zM498.3 141.2c1 0 1.8.6 1.8 1.5s-.8 1.5-1.8 1.5h-.8v-3zm-.4.2v2.7h.5c.6 0 1.3-.3 1.3-1.3s-.7-1.3-1.3-1.3h-.5ZM501.7 141.2h.4v3h-.4zM508.3 141.5v.6c-.2-.6-.7-.7-1.1-.7s-1.2.4-1.2 1.4.6 1.4 1.2 1.4.9 0 1.1-.7v.6c-.3.2-.8.3-1.2.3-.9 0-1.6-.6-1.6-1.6s.7-1.6 1.6-1.6.9.1 1.2.3M510 141.2h1.9v.2h-1.5v1.2h1.3v.2h-1.3v1.3h1.5v.2H510zM515.9 141.2v3.1h-.2l-2-2.8v2.8h-.3v-3.1h.5l1.8 2.4v-2.4zM518.8 144.3h-.4v-2.9h-1v-.2h2.5v.2h-1.1zM521.8 144.3h-.4v-3h.7c.7 0 1.3.1 1.3.8s-.4.7-.8.8l1.2 1.5h-.5l-1.2-1.5h-.3v1.5Zm.3-1.7c.5 0 .9-.1.9-.6s-.3-.6-.9-.6h-.3v1.2zM526.9 143.2h-1.2l-.4 1h-.2l1.2-3h.3l1.2 3h-.4l-.4-1Zm-1.1-.3h1l-.5-1.3zM529.6 144.1h1.6v.2h-2v-3.1h.4z"/><path d="M526 74.7c-.3-.7-2.7-1.4-5-3.8-.5-.5-1.1-.6-1.8-.7 0 0 1.1-1.7.1-3.6 0-.3-.1-.6-.3-.8-.2-.6-.5-1.4-.6-2.1-.1-1-.5-1.3-.5-2.5 0-1.1.4-1.5-.2-2.3-.7-1.1-1.9-2.8-.6-4.2-.8 3.1 1.4 5.2 3.1 3.3l-.5 1.2c1.7 1.1 1.3 1.5 2.4 2.6 4-.1.7-3.9.2-5.1-.2-.7-.1-1.2-.4-1.8-.2-.5-.6-.6-1-1.2-.8-1.3 0-2 .3-3.4-1.1.6-1.4 1.3-1.9 2.3 0-1 0-1.2.3-2-2.7-.3-6.2 1.6-7.5 3.6-1.1 1.6-1.6 4.2-2.1 6.5 0 .3-.1.5-.2.7-.2.7-.4 1.7-.7 2.5-.5.2-1.1 0-2.2-.7-2.6-1.7-2.6-6.6-2.3-9.5.3-2.5.4-3-.9-4.9-1.6-2.4-4.3-3.9-6.2-5.9-.5-.6-.9-.9-1.4-1.6l-3.3-4.3c-.1-.2-.2-.3-.3-.5l-.4-.5c.2 2.5 1.3 4 2 5.9-1.4-.6-3.4-3.5-4.4-4.8l-1.4-1.8c0 1.5.2 2.4.7 3.7.5 1.2 1.1 1.9 1.5 2.9-.9-.4-.9-.7-1.6-1.4-.5-.5-1-.8-1.5-1.3 0 3 2.1 4.6 3.7 6.5l-4.5-2.3c.6 2.8 2.8 4 5.1 5.2l-4.1-1c.3 2.4 3.2 3.8 5.9 4.4l-4.5-.2c.7 2.1 2.8 2.3 5.3 2.7l-3 .7c.9 2 2.5 1.3 4.5 1.2-.4 0-.7.4-1.1.6-.7.4-.8.3-1.1.9.6.6.8.7 2 .8 0 .8 0 1 .4 1.4l1.3 1.4c1 .7.4.5 1.8 1 .5.2 1.6.9 2.3 1.2.9.4 2.1.6 2.8 1l-2.6-.4c-.3 0-1.5-.3-2.6-.6-.1 0-.2 0-.3-.1-1.3-.4-2.8-.3-4.2.2-1.2.5-1.7 1.2-2.6 1.6-1.2-.2-2.1-1.5-3.8-1.6-2.9-.2-4.4 5-6.8 3-1.1-.9-1.1-2.7-.2-3.8 0 0-.4 0-.8.5-.2.2-.4.4-.5.6-.3.5-.6 1.3-.8 2.5v.5c0 .3 0 .8.2 1.1.6 2 3 3.4 5.2 2.5 1.3-.5 1.7-1.6 2.6-2.6 1.1-1.2 1.8-1.4 3.7-1.6h.9c-.2.9-.6 1.1-.7 2.3V72c-.1 1.3-.4 3.2-1.2 4.1l-.1.1c-.2.2-1 .7-2.6 1.2-.6.7-1.5 3.6-2.2 4.8-.3.6-1.1 1.7-1.2 2.2-.2.6-.2 1.1 0 1.6h.1c0 .1.2.3.2.3.2.2.4.6.4 1.1v.2c0 .1 0 .3.1.5s3.2 0 3.2 0l-2-2.2c-.2-3.4 1.8-5.4 3.6-6.6 1.9.5 5.1-2.5 6-3.8v-.1l.3-.4c1.2 1.1 1.3 1.8 2 3.4s.2.9.2 1.7v.1c0 .2 0 .4.1.6l3.9 2.5c.4.3.6.6 1 1 .8.8 1.2 1.2 1.5 1.4.2.2.5.4.7.6 0 .3-.1.6 0 1.3v.5h3.1c-.8-.6-.7-1.7-1.1-2.5-.3-.4-.4-.3-.9-.9-1.5-1.7-1.6-1.5-3.1-2.5-4-2.7-1.7-4.8-1.3-7.2.2-1.4.1-2.2-.2-2.9.7.6 1.6.9 1.7.9 2.1.8 6.5 1.5 8.8 1 0 0 .9-.1 1 .8-.2 1.1-.2 2.3-.4 3.2-.8 3.3-2.6 5.9-2.3 7.4v.3c0 .3.2.8.1 1.2 0 0 0 .2-.1.3-.2.4 0 .5-.3.8h3.4c-.6-1.8-1.4-1.5-1.2-3.4.2-2.3 1-3 1.7-4.7l1.3-2.4c.6-.9.8-1.7 1.1-2.7.1-.3.2-.4.3-.5s.2-.4.2-.8h.1c.9.2 1.4.5 2.4.8.8.2 1.8.3 2.6.6 1.6.6.7.5 2.6.6-1.5.8-.8 1.1-1.8 1.9-1.5 1.2-1.8.6-2.7 1.2.2-.8.1-1-.2-1.6-.6-.2-.8 0-1.5.2l-1 .4c-.3.1-.2.1-.3.2 2.2 2.6 3.3 2.8 5.4 1.9 1.8-.8.9-1.2 2-2.3.6-.6 1.9-1.3 1.3-2.8m-3.9-19.7c0 1.3-.6.5-.9.4-.9-.4-.7.2-1.5-.4 1.2.1 1.4-.4 2.4 0m-23.2 17c-.7-1-1.8-1.2-2-2.8.3.3.3.4.5.7 1.1 1.4 3.1 2.1 3 5.4-.7-1.1.1-1-1.6-3.3" style="fill-rule:evenodd"/><path d="M478.9 96c3.1 0 5.6.7 7.3 2.1q2.7 2.1 2.7 5.7c0 3.6-.9 4.6-2.7 6.1s-4.2 2.3-7.3 2.3h-5.2v7.9l3.9 1.7v.3h-11v-.3l3-1.7V97.9l-3-1.7v-.3h12.2Zm-1.1 15.4c2.1 0 3.8-.6 5-1.9s1.8-3.1 1.8-5.5-.7-4-2-5.2c-1.3-1.3-3-1.9-5-1.9h-4v14.5h4.1ZM511.4 110.3c1.4 1.1 2 2.6 2 4.4s-.9 4.2-2.7 5.5-4.3 2-7.5 2H490v-.3l3-1.7V98l-3-1.7V96h12.7c2.8 0 5 .5 6.7 1.7 1.7 1.1 2.5 2.6 2.5 4.5s-.5 3.1-1.6 4.1c-1 1.1-2.4 1.7-4.2 2 2.1.2 3.9.9 5.2 2m-14.2-13.4v11.3h4.7c3.8 0 6-2.1 6-5.8s-.6-3.1-1.7-4c-1.1-1-2.6-1.5-4.6-1.5zm4.5 24.4c4.9 0 7.5-2.2 7.5-6.3s-2.7-6-7.2-6h-4.8v12.4h4.5ZM536.5 104l-2.6-6.8c-1.3-.5-2.8-.8-4.3-.8-2.5 0-4.6 1.1-6.5 3.3s-2.8 5.2-2.8 8.9.9 7.2 2.9 9.6q2.85 3.6 6.9 3.6c4.05 0 2.5-.2 3.6-.6l5.1-6.9h.3l-.7 7c-3.1.9-6.1 1.4-8.8 1.4s-7.1-1.2-9.7-3.7q-3.9-3.75-3.9-9.9c0-6.15 1.3-7.5 4-9.9 2.7-2.5 5.8-3.7 9.4-3.7s6.3.6 9.6 1.9l-2 6.6h-.3Z"/><path d="M554.8 166.3H450.9V13.4h103.9zm-102.4-1.6h100.8V15H452.4v149.8ZM192 136.6c1.5 0 2.6.4 3.5 1.3s1.3 2 1.3 3.3-.4 2.5-1.3 3.3-2.1 1.2-3.5 1.2h-4v-9.2h4Zm8.9 9.2v-9.2h7.3v1.1h-6.1v2.7h3.7v1.1h-3.7v3.3h6.5v1.1h-7.7Zm15 0h-.7l-4.5-9.2h1.3l3.6 7.3 3.6-7.3h1.3l-4.5 9.2Zm7.8 0v-9.2h7.3v1.1h-6.1v2.7h3.7v1.1h-3.7v3.3h6.5v1.1h-7.7Zm11.4 0v-9.2h1.2v8.1h6v1.1zm14.3.2c-1.4 0-2.5-.5-3.4-1.4s-1.4-2-1.4-3.4.5-2.5 1.4-3.4 2.1-1.4 3.4-1.4 2.5.5 3.5 1.4c.9.9 1.4 2.1 1.4 3.4s-.4 2.5-1.4 3.4c-.9.9-2.1 1.4-3.5 1.4m0-1c1 0 1.9-.4 2.6-1.1s1-1.6 1-2.7-.3-2-1-2.7-1.5-1.1-2.6-1.1-1.9.4-2.6 1.1-1 1.6-1 2.7.3 2 1 2.7 1.6 1.1 2.6 1.1m8.8.8v-9.2h5.3c.9 0 1.6.2 2.1.7.5.4.8 1 .8 1.8s-.2 1.4-.7 1.9-1.2.7-2 .7h-4.3v4h-1.2Zm1.2-5.1h4.1c.6 0 1-.1 1.3-.4s.4-.6.4-1.1-.1-.9-.4-1.1c-.3-.3-.7-.4-1.3-.4h-4.1zm10.9 5.1v-9.2h7.3v1.1h-6.1v2.7h3.7v1.1h-3.7v3.3h6.5v1.1h-7.7Zm11.4 0v-9.2h5.3c.9 0 1.6.2 2.1.7s.8 1.1.8 1.9-.2 1.2-.6 1.7-.9.8-1.6.9l2.3 4h-1.3l-2.3-4h-3.6v4zm1.1-5.1h4.1c.6 0 1-.1 1.3-.4s.4-.6.4-1.1-.1-.9-.4-1.1c-.3-.3-.7-.4-1.3-.4h-4.1zm10.3 3.7.7-1c.6.5 1.3.9 2 1.2s1.4.4 2.1.4 1.6-.2 2.1-.5c.5-.4.8-.8.8-1.4s-.2-.8-.6-1.1-.9-.5-1.6-.5h-.7c-1.5-.1-2.6-.3-3.1-.5-.4-.2-.8-.5-1-.8s-.3-.7-.3-1.1c0-.7.3-1.3 1-1.8s1.5-.7 2.6-.7 1.5.1 2.3.4 1.5.6 2.1 1.1l-.7.9c-.6-.5-1.2-.8-1.8-1s-1.3-.3-1.9-.3-1.3.1-1.7.4-.7.6-.7 1 0 .3.1.4c0 .1.2.3.3.4.4.3 1.2.5 2.5.5.6 0 1 0 1.4.1.9.1 1.7.4 2.2.9s.8 1.1.8 1.8-.4 1.6-1.1 2.1c-.8.6-1.7.8-3 .8s-1.8-.1-2.6-.4-1.5-.7-2.3-1.2m-93.5-73.4-8.1-21.7c-.3-.8-.6-1.3-.8-1.7-.2-.3-.6-.6-1.1-.7l-1.7-.5v-.8h9.3v.8l-1.6.5c-.2 0-.4.1-.5.3-.1.1-.2.3-.2.5s0 .6.2 1c.1.4.3.9.5 1.6l5.9 16.2 6.4-16.2c.2-.7.5-1.2.6-1.6s.2-.7.2-1 0-.4-.2-.5c-.1-.1-.3-.2-.5-.2l-1.7-.5v-.8h7.9v.8l-1.8.6c-.4.1-.7.3-1 .6-.2.3-.5.8-.9 1.7l-9.1 21.6zm21.8-5.7V69q0 .45.6.6l2.1.6v.8h-9v-.8l2.2-.7c.3 0 .5-.3.5-.6V47.7c0-.3-.2-.5-.4-.6l-2.3-.7v-.8h9v.8l-2.2.7c-.3 0-.4.3-.5.6v17.7M234 50.8v18.599999999999998h8.9l2.3-4.8h.8c0-.1-.4 6.3-.4 6.3h-17.9v-.8l2.2-.7c.3 0 .5-.3.5-.6V47.6c0-.3-.2-.5-.4-.6l-2.3-.7v-.8h9v.8l-2.2.7c-.3 0-.4.3-.5.6v3m27.4-5.2 8.1 22c.3.8.6 1.4.8 1.7s.6.5 1.1.7l1.7.5v.8h-9.3v-.8l1.7-.5c.2 0 .4-.2.5-.3s.1-.3.1-.5 0-.6-.2-.9c-.1-.4-.3-.9-.5-1.6l-1.7-4.8h-8.8l-1.9 4.8c-.2.7-.5 1.2-.6 1.6s-.2.7-.2.9 0 .4.2.5c.1.1.3.2.5.3l1.7.5v.8h-7.9v-.8l1.8-.6c.5-.1.8-.4 1-.7s.5-.8.7-1.4l9.3-22 1.9-.3ZM255.6 60h7.5l-3.6-9.9-4 9.9Zm31.7-12.6c-1.3-.4-2.4-.6-3.5-.6-1.6 0-2.9.4-3.8 1.2-1 .8-1.4 1.8-1.4 3.2s.2 1.5.5 2.1.8 1.1 1.4 1.5 1.2.8 1.9 1.2 1.5.7 2.2 1c.8.4 1.7.7 2.4 1.1.8.4 1.5.9 2.1 1.4s1.1 1.2 1.5 1.9c.4.8.6 1.6.6 2.7 0 2.4-.9 4.2-2.8 5.5s-4.3 1.9-7.3 1.9-4.1-.3-6.4-1h-.1c0-.1.9-6.3.9-6.3h.8c0-.1 1.3 5 1.3 5 1.3.5 2.6.8 4 .8s3.2-.4 4.2-1.2 1.5-1.9 1.5-3.4-.2-1.4-.5-2-.8-1.1-1.3-1.5-1.2-.8-1.9-1.1-1.4-.7-2.2-1c-.9-.4-1.7-.7-2.5-1.2-.8-.4-1.5-.9-2.2-1.5-.6-.6-1.2-1.2-1.6-2.1-.4-.8-.6-1.8-.6-2.8 0-2.2.9-3.9 2.8-5 1.8-1.2 4.1-1.8 6.8-1.8s3.9.2 6 .7h.1c0 .1-1.1 5.8-1.1 5.8h-.7c0 .1-1.2-4.4-1.2-4.4Zm-97.4 39h11v.9c.1 0-2.6.8-2.6.8-.4 0-.6.3-.6.7v23.599999999999998c0 1.4 0 2.7-.2 3.9-.1 1.2-.3 2.2-.6 3.1s-.7 1.7-1.2 2.5c-.5.7-1.2 1.4-2 1.9-.8.6-1.7 1.1-2.8 1.5s-2.4.8-4 1.2l-.3-1.1c1.5-.6 2.7-1.4 3.6-2.1.9-.8 1.5-1.7 2-2.7.4-1 .7-2.1.9-3.4.1-1.2.2-2.6.2-4.2V89c0-.4-.2-.6-.5-.7l-2.7-.9v-.9Zm29.1-.5 9.8 26.8c.4 1 .7 1.7 1 2.1s.7.6 1.3.8l2.1.6v.9h-11.3v-.9l2-.6q.45-.15.6-.3c.1-.1.2-.3.2-.6s0-.7-.2-1.2-.4-1.1-.7-1.9l-2.1-5.9H211l-2.3 5.9c-.3.8-.6 1.5-.7 2-.2.5-.3.9-.3 1.1s0 .4.2.6q.15.15.6.3l2.1.6v1H201v-.9c-.1 0 2.1-.7 2.1-.7.6-.2 1-.4 1.2-.8.3-.4.6-.9.9-1.7l11.3-26.7 2.3-.3Zm-7.1 17.9h9.1l-4.3-12.1zm29.8 13.5-9.9-26.4c-.3-1-.7-1.6-1-2s-.8-.7-1.4-.8l-2-.6v-.9h11.3v.9l-2 .6c-.3 0-.5.2-.6.3s-.2.3-.2.6 0 .7.2 1.2.4 1.1.7 1.9l7.2 19.7 7.8-19.7c.3-.8.5-1.4.7-1.9q.3-.75.3-1.2c0-.45 0-.5-.2-.6-.1-.1-.4-.2-.6-.3l-2.1-.6v-1h9.5v.9l-2.2.7c-.5.1-.9.4-1.2.7s-.6 1-1.1 2.1l-11.1 26.3-2.2.2Zm26.4-.2h-5.5v-.9l2.6-.8c.4-.1.6-.3.6-.7V88.9c0-.4-.2-.6-.5-.7l-2.8-.9v-.9h5.5c1.8 0 2.9 0 4.3-.1 1.4 0 2.8-.1 4.2-.1 5.2 0 9 1.2 11.7 3.5 2.6 2.3 3.9 5.8 3.9 10.4s-1.4 9.6-4.3 12.6-6.9 4.5-12.2 4.5h-7.5m2.1-2.1c.9.1 1.7.2 2.6.2h2.5c3.9 0 6.9-1.1 8.9-3.4s3.1-5.8 3.1-10.4-1-7.9-2.9-10.1-5-3.3-9.2-3.3H273c-.8 0-1.7 0-2.7.2v26.8Zm28.7-28.6h15.9v.2c.1 0-1.2 6.8-1.2 6.8l-.9.2-1.4-5.1h-10.2v12.1h7.1c.4 0 .6-.2.8-.6l.8-3h1.2v9h-1.2l-.8-2.9c-.1-.4-.4-.6-.7-.6h-7.2v12.8h10.6l2.7-5.6 1-.2-.5 7.6v.2h-21.6v-.9l2.6-.8c.4-.1.6-.3.6-.7V89.2c0-.4-.2-.6-.5-.7l-2.7-.9v-.9h5.5m28.7 5.8v22.299999999999997c0 .4.2.6.6.7l2.5.8v.9h-10.7v-.9l2.6-.8c.4-.1.6-.3.6-.7V89c0-.4-.2-.6-.5-.7l-2.7-.9v-.9h10.7v.9c.1 0-2.4.8-2.4.8-.4 0-.5.3-.6.7v3.7m.4 9 8.9-9.8c.7-.8 1.3-1.4 1.7-2 .4-.5.6-1 .6-1.3s-.2-.5-.6-.6l-1.8-.5v-1h9.8v.9l-2.2.7c-.7.2-1.3.6-1.8 1l-1.6 1.6-8.9 9.6 10.1 13.2c.4.6.8 1 1.3 1.3.4.3.9.6 1.6.8l2 .6v.9h-7.800000000000001c-.5-1.1-1.9-3-4.1-5.9l-7.3-9.6Zm37.6-15.7 9.9 26.8c.4 1 .7 1.7 1 2.1s.7.6 1.3.8l2.1.6v.9h-11.3v-.9l2-.6q.45-.15.6-.3c.1-.1.2-.3.2-.6s0-.7-.2-1.2-.4-1.1-.6-1.9l-2.1-5.9h-10.7l-2.3 5.9c-.3.8-.6 1.5-.7 2-.2.5-.3.9-.3 1.1s0 .4.2.6c.1.1.4.2.6.3l2.1.6v1h-9.6v-.9c-.1 0 2.1-.7 2.1-.7.6-.2 1-.4 1.2-.8.3-.4.6-.9.9-1.7l11.3-26.7 2.3-.3Zm-7.1 17.9h9.1l-4.3-12.1zm30.9 6.6v4.3c0 .5.2.7.6.9l2.5.7v.9h-10.7v-.9l2.6-.8c.4-.1.6-.3.6-.7V89c0-.4-.2-.6-.5-.7l-2.7-.9v-.9H394c3.4 0 6 .6 7.7 1.9s2.6 3.1 2.6 5.5-.6 3.9-1.8 5.3-2.9 2.4-5.3 3.1c.9 1.4 1.8 2.8 2.6 4.1s1.5 2.5 2.2 3.6 1.3 2.1 1.9 2.9 1.1 1.5 1.6 2c.2.2.5.5.8.6.2.2.5.3.8.4l.9.3c.3 0 .6.2 1 .3v1c-1 .1-1.9.2-2.6.2h-1.6c-.5 0-.9 0-1.2-.2-.4 0-.7-.2-1-.3s-.6-.3-.9-.5c-.6-.5-1.2-1.1-1.8-2s-1.2-1.8-1.9-2.9c-.6-1.1-1.3-2.2-2-3.5-.7-1.2-1.4-2.4-2.2-3.6-.2-.3-.4-.6-.6-.8s-.3-.4-.5-.5-.4-.2-.7-.2h-2.5v7.6Zm0-9.3h2.5c2.6 0 4.4-.5 5.6-1.6q1.8-1.65 1.8-5.1c0-3.45-.6-3.8-1.7-4.9-1.1-1-2.9-1.5-5.3-1.5H391c-.5 0-1 0-1.5.1v12.8ZM90.6 138.8q-2.4 0-4.2-.9c-.3-.1-.7-.3-1-.5 2.7-1.6 4.5-4.5 4.5-7.8 0-5-4.1-9-9.1-9s-9.1 4-9.1 8.9c0 2.1.5 4.2 1.6 6 1 1.8 2.4 3.3 4.2 4.6s3.9 2.3 6.2 3 4.8 1.1 7.3 1.1 6.6-.5 9.5-1.6c2.9-1 5.5-2.6 7.7-4.7s4-4.8 5.2-8 1.9-7.1 1.9-11.4V64.6c0-2.9.1-5.3.4-7.1s.8-3.2 1.6-4.2 2-1.6 3.5-2 3.5-.5 6-.5v-3.4h-60v3.4c3.3 0 5.7.3 7.3.9s2.5 1.6 2.7 2.9-.2 3-1.1 5.1L58.9 98 42.2 59.7q-1.5-3.15-1.2-5.1c.1-1.3 1-2.3 2.6-2.9s4.1-.9 7.6-.9v-3.4H12v3.4c2.4 0 4.3.2 5.8.5 1.5.4 2.8 1 3.8 1.8s1.9 1.9 2.6 3.2 1.5 2.9 2.3 4.8l26 58.9H55l25.8-58.9q1.35-3.15 2.7-5.1c.9-1.4 1.9-2.4 2.9-3.2 1.1-.8 2.3-1.3 3.8-1.6 1.8-.4 2.9-.4 4.7 0 1.5.4 2.7 1 3.4 2 .8 1 1.3 2.4 1.6 4.2s.4 4.2.4 7.1v59.7c0 3.5-.4 6.3-1.1 8.4q-1.2 3.3-3.3 4.8c-1.4 1-3.2 1.5-5.3 1.5M158 31.7v128.6h-2.1V31.7zm34 106h-2.8v7.1h2.8q1.65 0 2.7-.9c.7-.6 1-1.5 1-2.6s-.3-1.9-1-2.6-1.6-1-2.7-1"/></svg>