<?xml version="1.0" encoding="UTF-8"?>
<svg id="Layer_1" xmlns="http://www.w3.org/2000/svg" version="1.1" viewBox="0 0 50 50">
  <!-- Generator: Adobe Illustrator 29.2.1, SVG Export Plug-In . SVG Version: 2.1.0 Build 116)  -->
  <defs>
    <style>
      .st0 {
        fill: #00000e;
      }
    </style>
  </defs>
  <path class="st0" d="M.8,41.7c0-.3.2-.8.2-1.1.7-2.8,3.2-4.9,6.1-5.1-2.6-2.4-2.3-6.7.8-8.6s1.6-.8,2.1-.8h21.8v1.4H10.1c-1.4,0-2.9,1.8-3.2,3.1-.5,2.1,1.2,4.9,3.5,4.9h6.9v1.4H7c-2.6,0-4.8,3.1-4.8,5.5s2.4,5.3,4.9,5.3h40.6v-1.4h-5.1c-.3-.4,0-1,0-1.4h3.8v-1.4H14.8v-1.4h31.4v-2.4H7.2s-.7.3-.8.3c-1.6.9-1.8,3.3-.2,4.4s1,.5,1.1.5h33.7v1.4H7.2c-1.8,0-3.5-2.3-3.5-4s1.7-4,3.5-4h40.6v-1.4h-29v-1.4h24.4v-1.4H10.5s-.5-.2-.6-.2c-1.9-.8-2.2-3.4-.5-4.6s.8-.4.9-.4h2.2v1.4h-1.9c-.4,0-.9.8-.9,1.2s.5,1.2,1,1.2h31.1v-2.4H13.9v-1.4h29.4v-1.4h-9.9v-1.4h11.3v4.3h-1.5v2.4h1.5v2.8h4.5v4.3h-1.5v5.2h1.5v4.3H6.9c-2.4-.4-4.5-1.9-5.5-4.2s-.4-1.4-.5-2.1v-1.4s-.1,0-.1,0Z"/>
  <path class="st0" d="M25.2.8l10.2,3.5v.2c0,.2-.3,1.1-.5,1.2l-10-3.3-14.5,4.8v.2c-.1,0,14.5,4.8,14.5,4.8l14.6-4.8v-.2c-.4-.2-3.1-.9-3.2-1,.2-.3.2-1.4.7-1.3l7.2,2.4v.2c-.7.3-1.5.4-2.2.7v7.2c.7.3,1.4.8,1.7,1.6s.2.7.2.7v3.7h0c0,.1-5,.1-5,.1v-4.2c0-.6,1.2-1.9,1.9-1.8v-6.7l-4.2,1.3v12.1c-1.7,1-3.8,1.5-5.7,1.8-3.6.5-7.9.5-11.5-.1s-3.5-.8-5-1.7v-12.1l-8.1-2.8L24.8.8h.4ZM34.7,10.4l-9.8,3.2-9.7-3.2v10.7c1.5.6,3,1,4.5,1.2,3.1.5,6.6.5,9.8,0,3.2-.5,3.5-.6,5.1-1.3v-.8h-3.1v-1.4h3c.3-.4,0-1,0-1.4h-1.8v-1.4h1.8v-5.6s.2,0,.2,0ZM39.9,19.9h2.4v-2.3c0-.2-.4-.8-.7-.9-.4-.2-.9-.1-1.2.1s-.4.5-.4.6v2.5h0Z"/>
  <rect class="st0" x="24.3" y="42.1" width="1.4" height="1.4"/>
  <rect class="st0" x="24.3" y="42.1" width="1.4" height="1.4"/>
  <rect class="st0" x="24.3" y="18.9" width="1.4" height="1.4"/>
</svg>