<?xml version="1.0" encoding="UTF-8"?>
<svg id="Layer_1" xmlns="http://www.w3.org/2000/svg" version="1.1" viewBox="0 0 2052.2 502.1">
  <!-- Generator: Adobe Illustrator 29.2.1, SVG Export Plug-In . SVG Version: 2.1.0 Build 116)  -->
  <defs>
    <style>
      .st0 {
        fill: #fff;
      }

      .st1 {
        fill: #00000e;
      }
    </style>
  </defs>
  <g>
    <path d="M217.8,467.6c-33-1.1-68.5-5.2-100.9-12.3-28.5-6.2-90.5-23.2-93.3-58.5v-184c.8-24.4,41.2-46.2,61.9-50s17.1,11.4,7.9,16.4-17.2,5.9-25,9.8c-21.5,10.5-40.3,26.6-12.5,45,27.8,18.4,26.2,12.1,39.8,16.6v-24.2c0-3.1,4.5-7.1,7.6-7.7,16.6-3.1,9.4,26.2,11,34.9s.3,1.7,1.4,1.9c82.3,17.5,168.2,17.1,250.5-.2,3.9-9-6.4-45.4,12.1-41.8s7.4,4.8,7.4,7.9v29.3c21.2-5.9,78.1-25.8,42.3-52.9-12-9.1-23.6-11.1-36.1-17.3-5.6-2.8-8.7-7.8-4.9-13.7,4.4-6.8,12-2.9,17.8-.9,18.3,6.3,50.1,22.8,53,44.1v189.9c-1.5,5.2-3,9.3-6.1,13.8-22.9,33.1-104.8,46.6-142.8,50.6l-45.4,3.4c-15.2-.4-30.6.5-45.8,0h.1ZM440,246.3c-4.8,2.1-8.9,5.6-13.6,8.1-48.3,25.5-140.2,32.9-194.6,31.7s-131.1-7.5-176.9-31.7c-4.6-2.5-8.7-6-13.6-8.1v149.6c0,13,33.8,29.4,45.2,31.7l61.3-60c9.1-7.2,21-6.4,30,.5,13.4,12.5,26.1,26.3,40.4,37.7,4.8.8,8.4-4.1,11.4-7.2,15.4-15.8,31-34.8,47.1-49.6,9.5-8.7,22.6-11,33.1-2.5l90.3,79.3c8.3-2.7,18-7.1,25.4-12s14.5-11.7,14.5-17.7v-149.8ZM379.8,432.8c.3-.4-3.6-4.1-4.2-4.7-22.6-20.6-47.6-43.5-71.2-62.7s-7.6-8.9-14-3.8c-18.9,15-35.6,40.6-54.2,56-7.1,5.8-15.2,8.4-24.2,5.5-11.3-3.7-32.9-31.4-44.1-39.9s-3.4-2.5-5.5-2.9l-55.6,53.8c11.6,3.3,23.5,5.8,35.5,7.8,47.3,7.9,98.6,9.5,146.5,6.2,30.7-2.1,61.5-7.2,91.2-15.3h-.2Z"/>
    <path d="M300.7,88c5.9-1,28.3-.9,34.2.2,7,1.3,12.5,7.1,14,14-1.5,24.3,3.4,54.8.3,78.4-1,7.4-6.9,14-14.3,15.4-5.9,1.1-28.3,1.2-34.2.2-9.5-1.6-14.4-9.9-15.1-18.8-1.8-23.1,1.3-48.6.1-72,.5-8.2,6.7-15.9,14.9-17.3h.1ZM304.3,178.5h25.9l1.3-1.3v-70.4l-1.3-1.3h-25.9v72.9h0Z"/>
    <path d="M251.3,132.7c7.6.9,15,7.3,16.3,15,1,6.2.9,25.5.2,32s-7.7,15.6-16.5,16.5-24.7.8-31.3,0c-9.9-1.3-15.1-9.6-15.8-19-1.5-18.8-1.5-51.6,0-70.4s5.6-17.2,15.1-18.8c6.8-1.1,33.4-1.1,40.4,0,7.4,1.1,11,9.9,5.6,15.4s-3.6,2.3-3.9,2.3h-38.6v27.1c9,.8,19.7-1.1,28.4,0h0ZM250,151.4h-27.1v27.1h25.9l1.3-1.3v-25.9h0Z"/>
    <path d="M138.5,105.6c-7.9-1.4-9-15.8,1-17.6s25.4-.9,31.1,0c9,1.2,15,8.4,15.8,17.3s.8,22.7,0,29.7-2.5,6.2-2.4,7.5,2,4.1,2.4,6.9c.8,7.1.6,21.6,0,28.9-.8,10.4-6.8,17.3-17.4,18.2-6.7.6-21.4.7-28,0s-9.7-4.7-8.9-10.5,3.9-7.3,6.4-7.3h28.8l1.3-1.3v-25.9h-29.3c-.7,0-4.8-2.9-5.5-3.8-2.4-3-2.4-7.4-.4-10.6s5.1-4.3,5.9-4.3h29.3v-25.9l-1.3-1.3c-8.6-1.1-20.7,1.4-28.8,0h0Z"/>
    <path d="M390.6,33.7c36.6-5,42,50.1,7.3,53.9-35.9,3.9-41.7-49.3-7.3-53.9ZM394,51.5c-11.8,1.1-10.6,18.4.6,18.4s11.2-19.5-.6-18.4Z"/>
    <path d="M209.1,305c37.4-5.3,42.8,50.8,7.3,53.9-35.8,3.2-40.4-49.2-7.3-53.9ZM220,325.4c-8.5-8.4-21.5,4.5-13,13,8.5,8.4,21.5-4.5,13-13Z"/>
  </g>
  <g>
    <path d="M601.9,140.6l15.3-46.4,19.5-46.8h32.9v4.6l-61.7,141.6h-12.8l-62.3-141.6v-4.6h32.9l19.5,46.6,16.1,46.6h.6Z"/>
    <path d="M752.2,167.8v24.6h-72.1v-24.6h20.5v-96.3h-18.8v-24h68.7v24h-18.8v96.3h20.5,0Z"/>
    <path d="M898.4,187.8v4.3h-33.1l-29.8-47.8h-25.9v47.8h-31.1V47.3c20.7,0,41.2-.2,61.9,0,33.1,0,51.1,24,51.1,49.7s-9.3,34.6-25.9,42.7l32.7,48.2h0ZM840.2,118.9c13,0,21.5-10.1,21.3-22.6,0-12.2-8.1-21.9-21.3-21.9h-31.1v44.5h31.1Z"/>
    <path d="M906.2,74.4v-26.9h107.3v26.9h-38.5v118h-30v-118h-38.8Z"/>
    <path d="M1032.7,144.2V47.5h31.1v96.1c0,15.5,12.6,23.4,26.9,23.4s26.7-7.9,26.7-23.4V47.5h30.6v96.7c0,32.5-26.7,50.1-57.4,50.1s-58-17.6-58-50.1h.1Z"/>
    <path d="M1204,168.4l-11.2,24h-32.3v-4.1l66.7-142h14.3l66.3,142v4.1h-32.1l-11.4-24h-60.3ZM1214.1,142.3h40.2l-20.1-47.8-20.1,47.8Z"/>
    <path d="M1354.5,164.7h60.5v27.7h-91.5V47.5h31.1v117.2h0Z"/>
    <path d="M1460.7,74.4v-26.9h107.3v26.9h-38.5v118h-30v-118h-38.8Z"/>
    <path d="M1651,194.9c-38.7,0-73.7-26.1-73.7-75s35.8-74.7,74.3-74.7,73.7,26.1,73.7,74.7-30.4,75-74.3,75ZM1651.4,166.5c22.6,0,43.1-14.9,43.1-46.6s-20.3-46.2-42.9-46.2-43.1,15.5-43.1,46.2,19.7,46.6,42.9,46.6Z"/>
    <path d="M1749.5,144.2V47.5h31.1v96.1c0,15.5,12.6,23.4,26.9,23.4s26.7-7.9,26.7-23.4V47.5h30.6v96.7c0,32.5-26.7,50.1-57.4,50.1s-58-17.6-58-50.1h.1Z"/>
    <path d="M2017.2,187.8v4.3h-33.1l-29.8-47.8h-25.9v47.8h-31.1V47.3c20.7,0,41.2-.2,61.9,0,33.1,0,51.1,24,51.1,49.7s-9.3,34.6-25.9,42.7l32.7,48.2h.1ZM1959.1,118.9c13,0,21.5-10.1,21.3-22.6,0-12.2-8.1-21.9-21.3-21.9h-31.1v44.5h31.1Z"/>
  </g>
  <rect class="st1" x="528.4" y="241.2" width="1484.5" height="207.5"/>
  <g>
    <path class="st0" d="M773.1,276.5c27.1,0,55.8,14.6,62,47.8h-27.8c-5.9-15.2-18-21.9-34.2-21.9-23.8,0-39.7,17.3-39.7,42.8s15.5,42.2,39.5,42.2,30.3-7.9,34.9-24.2h27.6c-5.8,35.5-34.3,50.3-62.4,50.3s-68.7-23.8-68.7-68.3,33.4-69.3,68.7-68.7h.1Z"/>
    <path class="st0" d="M886.7,386.4h56v25.7h-84.8v-134.3h28.8v108.6Z"/>
    <path class="st0" d="M1021.2,389.3v22.8h-66.8v-22.8h19v-89.2h-17.5v-22.3h63.7v22.3h-17.5v89.2h19.1Z"/>
    <path class="st0" d="M1104.3,276.5c27.1,0,55.8,14.6,62,47.8h-27.8c-5.9-15.2-18-21.9-34.2-21.9-23.8,0-39.7,17.3-39.7,42.8s15.5,42.2,39.5,42.2,30.3-7.9,34.9-24.2h27.6c-5.8,35.5-34.3,50.3-62.4,50.3s-68.7-23.8-68.7-68.3,33.4-69.3,68.7-68.7h0Z"/>
    <path class="st0" d="M1217.6,333.3c8.3,0,17.8.2,23.2-2.5,7.1-3.8,9.8-14,13.4-29.2,4.6-16.7,16.3-29.7,45.9-23.6v19.6c-10.7-1-16.5,2.3-19.4,12.5-4,15.3-8.6,27.4-16.9,35.7l41.1,62.2v4.2h-32.4l-33.8-55.3c-5.2,1.3-15.2,1.3-21.1,1.3v53.9h-28.6v-134.3h28.6v55.4h0Z"/>
    <path class="st0" d="M1450.9,412.2v-56.8h-51.4v56.8h-28.6v-134.3h28.6v51.2h51.4v-51.2h28.8v134.3h-28.8Z"/>
    <path class="st0" d="M1593.1,303h-53.3v27.2h49.9v25.1h-49.9v30.7h54.9v26.1h-83.8v-134.3h82.3v25.1h0Z"/>
    <path class="st0" d="M1731.8,407.9v4h-30.7l-27.6-44.3h-24v44.3h-28.8v-134.3c19.2,0,38.2-.2,57.4,0,30.7,0,47.4,22.3,47.4,46s-8.6,32-24,39.5l30.3,44.7h0ZM1677.9,344c12.1,0,20-9.4,19.8-20.9,0-11.3-7.5-20.3-19.8-20.3h-28.8v41.3h28.8Z"/>
    <path class="st0" d="M1835.4,303h-53.3v27.2h49.9v25.1h-49.9v30.7h54.9v26.1h-83.8v-134.3h82.3v25.1h0Z"/>
  </g>
</svg>