<svg xmlns:xlink="http://www.w3.org/1999/xlink"  xmlns="http://www.w3.org/2000/svg" id="Layer_1" version="1.1" viewBox="0 0 300 300">
  <!-- Generator: Adobe Illustrator 29.1.0, SVG Export Plug-In . SVG Version: 2.1.0 Build 142)  -->
  <defs>
    <style>
      .st0 {
        fill: #fff;
      }
    </style>
  </defs>
  <path class="st0" d="M282.1,142.2v15.5c-.8,3.2-.7,6.7-1.1,10-7.6,58.1-55.1,105.8-113.3,113.2-3.3.4-6.8.3-10,1.1-5.1-.2-10.4.3-15.5,0C29.4,275.7-24,136.7,56.6,56.4c80.5-80.3,219.2-26.8,225.5,85.9ZM82.2,75.8c-7.5,1.9-6.8,8.8-6.6,15.1,3.1,70.9,62.5,130.3,133.4,133.4,6.8.3,14.5.8,15.2-8,.7-7.6.8-24,0-31.5s-11.9-7.2-18.8-8c-11.9-1.3-18.8-5-29.5-8.6s-12.4,8.7-17.5,15.9c-17.7-10-32-24.8-42.5-42.1-.2-.7.4-.8.8-1.1,6.6-4.7,19.3-4.6,15-16.7s-7.3-17.7-8.7-29.5,1.6-17.8-8-18.8-22.5.8-32.9.1Z"/>
</svg>