<svg xmlns:xlink="http://www.w3.org/1999/xlink"  xmlns="http://www.w3.org/2000/svg" id="Layer_1" version="1.1" viewBox="0 0 300 300">
  <!-- Generator: Adobe Illustrator 29.1.0, SVG Export Plug-In . SVG Version: 2.1.0 Build 142)  -->
  <defs>
    <style>
      .st0 {
        fill: #fff;
      }
    </style>
  </defs>
  <path class="st0" d="M158.3,283.1h-17.2l-17.4-2.6c-13.4-2.9-26.3-7.5-38.2-14.1l-67.4,16.6h-1.2v-1.2l16.7-66.9c-6.1-12.5-11.4-25.1-14.1-38.8l-2.6-17.4c.2-5.7-.3-11.5,0-17.2C23.9,22.1,175.7-27.8,252.8,65.2c69.1,83.4,12.8,211.6-94.5,217.9ZM100,87.6c-12.5,1.6-19.2,22.6-18.9,33.4.9,28.9,43,68.5,67.3,81.3,13.1,6.8,35.7,14.1,49.9,8.7,11.8-4.5,24.2-24.5,10.7-33.6-5.3-3.6-20.5-10.9-26.6-10.2-10.4,1.1-10.7,15-18.3,14.2-9-1.1-24.8-12.9-31.1-19.5s-14.8-18.1-15.1-22.4c-.5-6.6,11.5-10.7,9.9-21.2-.5-3.5-7.6-18.8-9.6-22.5-3.4-6.1-11.6-9-18.3-8.1Z"/>
</svg>