<?xml version="1.0" encoding="UTF-8"?>
<svg id="Layer_1" xmlns="http://www.w3.org/2000/svg" version="1.1" viewBox="0 0 50 50">
  <!-- Generator: Adobe Illustrator 29.2.1, SVG Export Plug-In . SVG Version: 2.1.0 Build 116)  -->
  <defs>
    <style>
      .st0 {
        fill: #00000e;
      }
    </style>
  </defs>
  <path class="st0" d="M48.8,40.3c-.3.5-.6.5-1.2.6H10.2c-.5,0-.9-.2-1-.7V2.4c0-.4,0-.9.4-1.1h38.3c.5,0,.7,0,.9.5v38.6h0ZM23.4,2.8h-12.7v17.3h.1c0,.1,12.6.1,12.6.1v-4.7c-.5,0-1.3,0-1.5-.5s0-1,.6-1.1,3.5,0,3.7,0,.3.4.4.6c.1.9-.9,1-1.6,1v5.7c0,.2-.4.6-.6.6h-13.7v4.7h9s.4.2.4.3c.3.5,0,2,0,2.6-.7,3.7-3.6,6.8-7.2,7.8s-1.5.2-2.1.5v1.4h17.4v-13.7c0-.2.4-.6.6-.6h5.7c0-.7,0-1.7,1-1.6s.5.2.6.4,0,3.3,0,3.7-.6.8-1.1.6-.5-1-.5-1.5h-4.7v12.6h17.4v-12.7h-4.7c0,.7,0,1.6-.9,1.6s-.7-.3-.7-.8v-3.3c0-.8,1.4-.9,1.6,0s0,.6,0,.9h4.7v-12.6h0c0-.1-3-.1-3-.1,0,.4,0,1.1-.3,1.4s-1.1.2-1.3-.2,0-3.1,0-3.6.2-.7.7-.8c.9,0,.9.9.9,1.6h3.2V2.8h-13.5v7.9h2.3c0-.3,0-1.1.3-1.3s1-.2,1.2.2.2,2.8.2,3.4-.3,1.1-1.1,1-.6-1-.6-1.6-2.9,0-3.4,0-.5-.4-.5-.4V2.8h-7.2v4.7h.9c.9.2,1,1.4,0,1.6s-2.5,0-3.3,0-.8-.2-.8-.7c0-.9.9-.9,1.6-.9V2.8h-.1ZM18.7,28.2h-8v7.9c4.2-.2,7.6-3.8,8-7.9Z"/>
  <path class="st0" d="M9.7,48.8l-2.8-2.7c-.2-.3,0-.7,0-1,.7-.4,2.2-2.5,2.8-2.6s1,.3,1,.9-.9,1-1.1,1.4h36.4c-.4-.6-1.8-1.4-.9-2.1s.7-.2,1.1,0c.9.6,1.8,1.9,2.6,2.7v.6l-2.9,2.9h-.6c-.3-.2-.6-.5-.5-.9,0-.6,1-.9,1.1-1.5H9.5c.6.8,1.9,1.4.7,2.4h-.6.1Z"/>
  <path class="st0" d="M5.2,4v36.4c.4-.3.9-1.1,1.4-1.1s1,.4.9,1-2.2,2.1-2.6,2.8c-.2.2-.7.2-1,0-.4-.6-2.6-2.3-2.7-2.9s.3-1,.9-1,1,.9,1.5,1.2V4c-.7.2-1.1,1.5-2,1.1s-.5-.9-.1-1.4,1.8-1.9,2.3-2.3.5-.3.8-.2,2.4,2.3,2.6,2.6c.3.4.4.9,0,1.2-.8.5-1.4-.7-1.9-1.1h0Z"/>
</svg>