<svg xmlns:xlink="http://www.w3.org/1999/xlink"  xmlns="http://www.w3.org/2000/svg" id="Layer_1" version="1.1" viewBox="0 0 300 300">
  <!-- Generator: Adobe Illustrator 29.1.0, SVG Export Plug-In . SVG Version: 2.1.0 Build 142)  -->
  <defs>
    <style>
      .st0 {
        fill: #fff;
      }
    </style>
  </defs>
  <path class="st0" d="M261.2,56.1c6.2,1.7,12.2,3.6,16.7,8.4l-111.6,110.8c-12,7.1-24.7,6.1-35.4-2.6L23.4,65.6c-1.1-2,4-4.9,5.5-5.7,2.4-1.3,8.4-3.5,10.9-3.8h221.3Z"/>
  <polygon class="st0" points="286.8 80.8 286.8 219.2 283.2 228.8 204.5 149.7 283.2 71.2 286.8 80.8"/>
  <path class="st0" d="M102.6,155.6c11.2,9.3,22,26.4,36.4,30.6,28.2,8.1,41.8-13.9,59.5-30.6l79.5,79.9c-5.2,5.3-12.3,7.8-19.5,8.5H42.6c-7.1-.9-14.8-2.9-19.5-8.5l79.4-79.8Z"/>
  <path class="st0" d="M17.9,71.2l78.6,78.5L17.9,228.7c-2.6-3-3.3-7.6-3.6-11.5-3.3-43.6,2.6-91.3,0-135.3,0-1.7,2.2-10.7,3.6-10.7Z"/>
</svg>