<?xml version="1.0" encoding="UTF-8"?>
<svg id="Capa_1" xmlns="http://www.w3.org/2000/svg" version="1.1" viewBox="0 0 32 32">
  <!-- Generator: Adobe Illustrator 29.1.0, SVG Export Plug-In . SVG Version: 2.1.0 Build 142)  -->
  <defs>
    <style>
      .st0 {
        fill: #fff;
      }
    </style>
  </defs>
  <circle class="st0" cx="16" cy="16" r="16"/>
  <path d="M8.4,14.5c.6,0,1,.2,1.3.5,1.2,1.2,2.4,2.4,3.6,3.6.2.2.3.2.5,0,2.8-2.9,5.7-5.7,8.5-8.5.4-.4.9-.6,1.5-.5,1.2.2,1.7,1.6.9,2.5-.1.1-.2.2-.3.3-3.2,3.2-6.4,6.4-9.6,9.6-.9.9-1.7.9-2.6,0-1.6-1.6-3.2-3.2-4.8-4.8-.9-.9-.5-2.3.6-2.6.2-.1.4-.1.4-.1Z"/>
</svg>