<?xml version="1.0" encoding="UTF-8"?>
<svg id="Layer_1" xmlns="http://www.w3.org/2000/svg" version="1.1" viewBox="0 0 50 50">
  <!-- Generator: Adobe Illustrator 29.2.1, SVG Export Plug-In . SVG Version: 2.1.0 Build 116)  -->
  <defs>
    <style>
      .st0 {
        fill: #00000e;
      }
    </style>
  </defs>
  <g>
    <path class="st0" d="M12.6,4.5h30.4v9.7c-.2.5-1.2.3-1.2,0V5.7H13.6v6.7l8.8-1.6c.2.1.4.2.4.5.5,1.6.5,3.7,1,5.4,0,.5-.3.6-.8.7l-9.4,1.7v.8h10s.5.3.5.5v2.4c1.4-.4,2.7,0,3.7,1.1,1.5-.3,3.2.6,3.7,2.1,1.3,0,2.6.6,3.2,1.8h7.1v-11.6s.4-.4.5-.4c.3,0,.5,0,.7.3v12.8c-.2.2-.5.3-.9.3h-7c0,.8-.2,1.7-.8,2.4l-2.3,15.2c0,.3-.3.4-.5.5H15.2l-.3-.3-1.6-10.6h-6.7c-.4,0-.7-.5-.5-.9s.3-.4.3-.4h6.6v-.5c0-.6-.3-2.3-.4-2.8s-.4-.5-.5-.8c-.9-1.9.1-4.1,2.2-4.7s.9,0,1.1-.2.4-.7.5-.9c.8-1,2-1.4,3.2-1.2,1-1.1,2.3-1.5,3.7-1.1v-1.5H2.6v13.8h1.9s.3.3.3.4c0,.3,0,.8-.4.9s-2.2,0-2.6,0-.5-.4-.5-.6v-15.2c-.1-1.6-.8-3.4-.9-4.9s0-.5.2-.7l11.8-2.2v-7.6l.3-.5v-.3s-.1,0-.1,0ZM21.7,12.2l-1.7.3-1.3,4.3,3.7-.7-.6-3.9s-.1,0-.1,0ZM18.5,12.8l-2.9.5-1.4,4.3,2.9-.6,1.4-4.3h0ZM14.2,13.5l-2.9.6-1.4,4.3c.1.1,2.6-.4,2.9-.5l1.4-4.3h0ZM9.9,14.4l-2.9.5-1.4,4.3c1-.2,2-.3,2.9-.6l1.4-4.3h0ZM5.5,15.1l-3.8.7.7,4,1.7-.3,1.4-4.3h0ZM9.3,19.9h3.1v-.6s-3.1.6-3.1.6ZM16.3,27.2c-.3.2-1.3,0-1.7.2s-1.3.9-1.4,1.5,0,1.7.5,1.8h19.7c.3,0,.5-.9.5-1.2,0-.9-.7-1.9-1.7-2.1s-1.1,0-1.4,0-.4-.8-.5-1.1c-.3-.6-1.1-1-1.8-1.1s-.8.3-1.2.1-.7-.8-1-1c-.5-.3-1.1-.4-1.6-.3s-.8.5-1.2.5-.7-.4-1.2-.5c-.7-.1-1.4,0-1.9.5s-.4.7-.7.8c-.6.2-1.2-.4-2.3.2s-.8,1.5-1.2,1.8h.1ZM17.8,45.9l-1.4-14h-2.4l2,14h1.8ZM20.5,31.9h-2.7l1.3,14h1.9s-.5-14-.5-14ZM24.8,45.9l.4-14h-3.3l.4,14h2.6-.1ZM26.1,45.9h1.8l1.3-14h-2.5l-.5,14h0ZM33,31.9h-2.5l-1.3,14h1.8s2-14,2-14Z"/>
    <path class="st0" d="M13.4,24.3c.3.3.2.8,0,1H4.4c-.8-.1-.6-1.1.2-1.2,2.7.2,5.6-.2,8.3,0s.5,0,.6.2h-.1Z"/>
    <path class="st0" d="M4.3,27.6h5.7c.7.1.7,1.1,0,1.2h-5.6c-.7-.1-.7-1.1,0-1.2h0Z"/>
    <path class="st0" d="M26,12.4c.3,0,.4.1.7.2,2,1,4,2.5,6,3.5.6.5.6.8,0,1.3-1.8,1.3-4.2,2.2-6.1,3.5-.6.3-1.1,0-1.1-.6.2-2.3-.2-5,0-7.2s.2-.6.6-.7c0,0-.1,0-.1,0ZM26.6,19.3l4.4-2.5-4.4-2.5v5.1h0Z"/>
  </g>
  <path class="st0" d="M39.6,31.5l.7.2.7-.2h.6c1,0,1.9.8,2.2,1.7s.2.5.2.7v1.1h2s.2.2.2.3v3c.7.2,1.2.7,1.3,1.4h1.8c.6,0,.3,0,.3.3v5.9c0,.7-.7,1.2-1.4,1.3h-12.3c-.7,0-1.3-.6-1.4-1.3v-10.6s0-.3.2-.3h2c0-.6,0-1.3.2-1.9s1.3-1.5,2.2-1.6h.6,0ZM37.2,34.1v.8h1.3v-1.6c.2-.5.5-.9.8-1.2-.9-.1-1.8.4-2.1,1.3s-.2.5-.2.7h.2ZM43.3,35v-1.1s0-.5-.2-.6c-.4-.8-1.2-1.2-2.1-1.2l.4.4c.3.3.6,1,.6,1.4v1h1.3ZM41.4,35v-1s0-.5-.2-.6c-.2-.4-.6-.8-1-1-.4.2-.8.6-.9,1s-.2.5-.2.6v1.1h2.3ZM36.2,35.6h-1.3v10.3c0,.2.5.7.7.7h.6v-11ZM38.5,35.6h-1.7v11h5.4s0-.2-.2-.4,0-.3,0-.4v-5.8s.2-.2.3-.2h1.8c0-.7.6-1.4,1.3-1.4v-2.7h-1.6v1.7s-.2.2-.3.2-.3,0-.3-.3v-1.6h-4.2v1.6s-.2.3-.3.3-.3,0-.3-.2v-1.7h.2-.1ZM46.8,39.7c-.2-1.1-1.8-1.1-2,0h2ZM44.1,40.3h-1.5v5.8c.2.3.5.5.8.5h4.6c1.5,0,.8-.4.8-.7v-5.5h-1.5v1.3s-.2.2-.3.2-.3,0-.3-.2v-1.3h-2v1.3s-.2.2-.3.2-.3,0-.3-.2v-1.3h0Z"/>
</svg>